<svg xmlns="http://www.w3.org/2000/svg" xmlns:xlink="http://www.w3.org/1999/xlink" version="1.1" x="0px" y="0px" viewBox="0 0 100 125" enable-background="new 0 0 100 100" xml:space="preserve"><path fill="#000000" d="M86.482,48.246L53.132,14.899c-0.708-0.699-1.756-0.882-2.703-0.524c-0.904,0.394-1.494,1.276-1.494,2.275  v30.221L16.967,14.899c-0.716-0.699-1.759-0.882-2.681-0.524c-0.896,0.394-1.494,1.276-1.494,2.275v66.708  c0,0.991,0.598,1.895,1.494,2.257c0.301,0.136,0.638,0.188,0.951,0.188c0.651,0,1.264-0.228,1.729-0.699l31.968-31.993v30.247  c0,0.991,0.59,1.895,1.494,2.257c0.314,0.136,0.625,0.188,0.956,0.188c0.65,0,1.267-0.228,1.747-0.699l33.351-33.378  C87.45,50.774,87.45,49.229,86.482,48.246z"/><text x="0" y="115" fill="#000000" font-size="5px" font-weight="bold" font-family="'Helvetica Neue', Helvetica, Arial-Unicode, Arial, Sans-serif">Created by Rahe</text><text x="0" y="120" fill="#000000" font-size="5px" font-weight="bold" font-family="'Helvetica Neue', Helvetica, Arial-Unicode, Arial, Sans-serif">from the Noun Project</text></svg>