<svg xmlns="http://www.w3.org/2000/svg" xmlns:xlink="http://www.w3.org/1999/xlink" version="1.1" x="0px" y="0px" viewBox="0 0 100 125" style="enable-background:new 0 0 100 100;" xml:space="preserve"><path d="M45.8,57.5h-9.4c-2.1,0-3.8,1.7-3.8,3.8s1.7,3.8,3.8,3.8h9.4v3.8c0,2.1,1.7,3.8,3.8,3.8C62,72.5,72,62.4,72,50  S62,27.5,49.5,27.5c-2.1,0-3.7,1.7-3.7,3.7c0,0,0,0,0,0V35h-9.4c-2.1,0-3.8,1.7-3.8,3.8s1.7,3.8,3.8,3.8h9.4v3.8h-15  c-2.1,0-3.8,1.7-3.8,3.8s1.7,3.8,3.8,3.8h15V57.5z M53.4,35.5c8,2.1,12.7,10.4,10.6,18.4c-1.4,5.2-5.5,9.3-10.7,10.6  C53.3,62.3,53.4,37.6,53.4,35.5L53.4,35.5z"/><path d="M49.5,83.7c18.6,0,33.8-15.1,33.8-33.8S68.2,16.2,49.5,16.2S15.8,31.4,15.8,50S30.9,83.7,49.5,83.7L49.5,83.7z M49.5,23.7  C64,23.7,75.8,35.5,75.8,50S64,76.2,49.5,76.2S23.3,64.5,23.3,50S35,23.7,49.5,23.7z"/><text x="0" y="115" fill="#000000" font-size="5px" font-weight="bold" font-family="'Helvetica Neue', Helvetica, Arial-Unicode, Arial, Sans-serif">Created by Pawel Rak</text><text x="0" y="120" fill="#000000" font-size="5px" font-weight="bold" font-family="'Helvetica Neue', Helvetica, Arial-Unicode, Arial, Sans-serif">from the Noun Project</text></svg>