<svg xmlns="http://www.w3.org/2000/svg" xmlns:xlink="http://www.w3.org/1999/xlink" version="1.1" x="0px" y="0px" viewBox="0 0 100 125" enable-background="new 0 0 100 100" xml:space="preserve"><path d="M79.327,44.717c-0.161-0.498-0.458-0.938-0.858-1.274c-0.398-0.335-0.882-0.552-1.396-0.626l-8.692-1.263l-3.889-7.878  c-0.457-0.921-1.415-1.494-2.501-1.494s-2.045,0.572-2.504,1.496l-3.027,6.136l1.561,0.227l0.149,0.022  c0.459,0.067,0.904,0.197,1.323,0.384l2.497-5.061l4.05,8.205c0.218,0.442,0.641,0.75,1.129,0.82l9.054,1.315l-6.549,6.383  c-0.354,0.345-0.515,0.841-0.432,1.328l1.547,9.021l-8.1-4.26c-0.219-0.114-0.458-0.172-0.698-0.172s-0.479,0.058-0.698,0.172  l-6.119,3.218l0.533,3.109l6.284-3.305l7.79,4.097c0.202,0.104,0.413,0.182,0.629,0.233c0.505,0.12,1.032,0.099,1.51-0.055  c0.277-0.089,0.54-0.223,0.794-0.404c0.417-0.306,0.741-0.72,0.94-1.205c0.194-0.48,0.251-1.006,0.163-1.521l-1.485-8.66  l6.296-6.135c0.37-0.364,0.631-0.822,0.759-1.34C79.505,45.729,79.484,45.208,79.327,44.717z"/><path d="M31.215,66.204c-0.023-0.044-0.054-0.081-0.081-0.122c-0.421-0.639-1.279-0.888-1.97-0.526l1.925-11.216  c0.083-0.486-0.078-0.983-0.431-1.328l-8.131-8.002l11.262-1.636c0.489-0.071,0.911-0.378,1.13-0.821l4.984-10.142l0.115-0.065  l5.041,10.208c0.158,0.321,0.425,0.566,0.745,0.707c0.122,0.053,0.25,0.094,0.384,0.114l11.28,1.693l-4.075,3.972  c-0.529,0.516-0.569,1.315-0.167,1.906c0.049,0.071,0.077,0.151,0.14,0.216c0,0,0.001,0,0.001,0.001  c0.578,0.591,1.526,0.604,2.12,0.025l4.074-3.97c0.407-0.396,0.694-0.896,0.831-1.451c0.134-0.548,0.113-1.121-0.063-1.666  c-0.177-0.539-0.498-1.015-0.928-1.377c-0.239-0.202-0.509-0.36-0.796-0.479c-0.231-0.096-0.474-0.167-0.724-0.204l-0.792-0.115  l-9.691-1.407l-4.689-9.497c-0.491-1.003-1.534-1.626-2.721-1.626c-1.183,0-2.226,0.621-2.722,1.622l-4.69,9.501l-10.483,1.522  c-0.561,0.082-1.086,0.318-1.518,0.682c-0.435,0.366-0.757,0.844-0.933,1.386c-0.175,0.542-0.194,1.119-0.059,1.656  c0.134,0.55,0.42,1.052,0.829,1.451l7.585,7.394l-1.79,10.431c-0.099,0.56-0.037,1.136,0.178,1.665  c0.212,0.523,0.568,0.978,1.025,1.31c0.463,0.337,1.008,0.535,1.567,0.572c0.074,0.005,0.147,0.008,0.221,0.008  c0.49,0,0.973-0.118,1.409-0.348c0.725-0.381,0.982-1.287,0.616-2.018C31.221,66.222,31.219,66.213,31.215,66.204z"/><path d="M51.844,53.832c-0.053-0.311-0.2-0.582-0.406-0.792c-0.188-0.191-0.426-0.329-0.688-0.399  c-0.075-0.021-0.153-0.032-0.232-0.041c-0.133-0.014-0.269-0.016-0.406,0.008c-0.674,0.116-1.159,0.667-1.231,1.314  c-0.015,0.137-0.019,0.275,0.006,0.418l1.873,11.251l-9.917-5.213l-0.157-0.082c-0.277-0.146-0.588-0.188-0.89-0.149  c-0.174,0.022-0.346,0.065-0.506,0.149l-5.036,2.648c-0.576,0.302-0.867,0.926-0.782,1.535c0.023,0.167,0.069,0.332,0.152,0.489  c0,0.001,0,0.001,0,0.001c0.386,0.733,1.293,1.017,2.026,0.629l4.338-2.281l9.366,4.924c0.227,0.122,0.468,0.213,0.691,0.265  c0.241,0.062,0.487,0.092,0.732,0.092c0.313,0,0.626-0.049,0.944-0.151c0.305-0.102,0.588-0.246,0.844-0.433  c0.455-0.331,0.808-0.782,1.025-1.313c0.158-0.394,0.231-0.814,0.218-1.236c-0.004-0.14-0.018-0.278-0.041-0.417L51.844,53.832z"/><text x="0" y="115" fill="#000000" font-size="5px" font-weight="bold" font-family="'Helvetica Neue', Helvetica, Arial-Unicode, Arial, Sans-serif">Created by Mr. Minuvi</text><text x="0" y="120" fill="#000000" font-size="5px" font-weight="bold" font-family="'Helvetica Neue', Helvetica, Arial-Unicode, Arial, Sans-serif">from the Noun Project</text></svg>