<svg xmlns="http://www.w3.org/2000/svg" xmlns:xlink="http://www.w3.org/1999/xlink" version="1.1" x="0px" y="0px" viewBox="0 0 100 125" style="enable-background:new 0 0 100 100;" xml:space="preserve"><path d="M50,83.5c18.6,0,33.8-15.1,33.8-33.8S68.6,16,50,16S16.2,31.1,16.2,49.7S31.4,83.5,50,83.5z M50,23.5  c14.5,0,26.2,11.8,26.2,26.2S64.5,76,50,76S23.8,64.2,23.8,49.7S35.5,23.5,50,23.5z"/><path d="M50,72.2h1.7c1.1,0,2-0.9,2-2v-5.5h11.1c1.1,0,2-0.9,2-2v-3.5c0-1.1-0.9-2-2-2H53.8v-3.8h16.8c1.1,0,2-0.9,2-2V48  c0-1.1-0.9-2-2-2H53.8v-3.8h11.1c1.1,0,2-0.9,2-2v-3.5c0-1.1-0.9-2-2-2H53.8v-5.5c0-1.1-0.9-2-2-2H50c-12.4,0-22.5,10.1-22.5,22.5  S37.6,72.3,50,72.2L50,72.2z"/><text x="0" y="115" fill="#000000" font-size="5px" font-weight="bold" font-family="'Helvetica Neue', Helvetica, Arial-Unicode, Arial, Sans-serif">Created by Pawel Rak</text><text x="0" y="120" fill="#000000" font-size="5px" font-weight="bold" font-family="'Helvetica Neue', Helvetica, Arial-Unicode, Arial, Sans-serif">from the Noun Project</text></svg>