<svg xmlns="http://www.w3.org/2000/svg" xmlns:xlink="http://www.w3.org/1999/xlink" version="1.1" x="0px" y="0px" viewBox="0 0 100 125" enable-background="new 0 0 100 100" xml:space="preserve"><path fill="#000000" d="M13.509,51.733l33.347,33.364c0.699,0.699,1.756,0.891,2.664,0.533c0.922-0.385,1.524-1.288,1.524-2.279  V53.104L83.02,85.098c0.674,0.699,1.722,0.891,2.652,0.533c0.914-0.385,1.524-1.288,1.524-2.279V16.643  c0-0.991-0.61-1.882-1.524-2.275c-0.302-0.131-0.615-0.174-0.931-0.174c-0.651,0-1.253,0.236-1.722,0.699L51.044,46.863V16.643  c0-0.991-0.603-1.882-1.524-2.275c-0.27-0.131-0.619-0.174-0.934-0.174c-0.634,0-1.246,0.236-1.73,0.699l-33.347,33.36  C12.569,49.222,12.569,50.768,13.509,51.733z"/><text x="0" y="115" fill="#000000" font-size="5px" font-weight="bold" font-family="'Helvetica Neue', Helvetica, Arial-Unicode, Arial, Sans-serif">Created by Rahe</text><text x="0" y="120" fill="#000000" font-size="5px" font-weight="bold" font-family="'Helvetica Neue', Helvetica, Arial-Unicode, Arial, Sans-serif">from the Noun Project</text></svg>