<svg xmlns="http://www.w3.org/2000/svg" data-name="Layer 1" viewBox="0 0 100 125" x="0px" y="0px"><path d="m78,46H22c-2.21,0-4,1.79-4,4s1.79,4,4,4h56c2.21,0,4-1.79,4-4s-1.79-4-4-4Z"/><path d="m22.06,35.22c.12,2.21,1.99,3.89,4.21,3.77,2.21-.12,3.9-2.01,3.77-4.21-.11-2.01,1.3-3.79,3.28-4.15l25.59-4.58c1.05-.19,2.11.04,2.99.66.88.61,1.46,1.53,1.65,2.58l1.15,6.41c.35,1.94,2.03,3.3,3.93,3.3.23,0,.47-.02.71-.06,2.17-.39,3.62-2.47,3.23-4.64l-1.15-6.41c-.56-3.16-2.32-5.9-4.95-7.73-2.63-1.83-5.81-2.53-8.97-1.97l-25.59,4.58c-5.96,1.07-10.2,6.42-9.86,12.46Z"/><path d="m77.94,64.78c-.12-2.21-2.02-3.9-4.21-3.77-2.21.12-3.9,2.01-3.77,4.21.11,2.01-1.3,3.79-3.28,4.15l-25.59,4.58c-1.05.19-2.11-.04-2.99-.66-.88-.61-1.46-1.53-1.65-2.58l-1.15-6.41c-.39-2.18-2.48-3.62-4.64-3.23-2.17.39-3.62,2.47-3.23,4.64l1.15,6.41c.56,3.16,2.32,5.9,4.95,7.73,2.04,1.42,4.4,2.16,6.83,2.16.71,0,1.42-.06,2.14-.19l25.59-4.58c5.96-1.07,10.2-6.42,9.86-12.46Z"/><text x="0" y="115" fill="#000000" font-size="5px" font-weight="bold" font-family="'Helvetica Neue', Helvetica, Arial-Unicode, Arial, Sans-serif">Created by Gregor Cresnar</text><text x="0" y="120" fill="#000000" font-size="5px" font-weight="bold" font-family="'Helvetica Neue', Helvetica, Arial-Unicode, Arial, Sans-serif">from the Noun Project</text></svg>