<svg xmlns="http://www.w3.org/2000/svg" xmlns:xlink="http://www.w3.org/1999/xlink" version="1.1" x="0px" y="0px" viewBox="0 0 100 125" enable-background="new 0 0 100 100" xml:space="preserve"><path d="M70.865,44.1c-0.177-0.539-0.498-1.015-0.93-1.379c-0.436-0.364-0.959-0.6-1.519-0.681l-10.481-1.522l-4.689-9.497  c-0.491-1.003-1.534-1.626-2.721-1.626c-1.186,0-2.229,0.622-2.722,1.622l-4.689,9.501L32.632,42.04  c-0.561,0.082-1.086,0.318-1.518,0.682c-0.435,0.366-0.757,0.844-0.933,1.386c-0.174,0.537-0.193,1.11-0.06,1.661  c0.135,0.55,0.421,1.049,0.827,1.446l7.585,7.395l-1.79,10.436c-0.097,0.561-0.035,1.135,0.179,1.66  c0.212,0.521,0.566,0.977,1.026,1.311c0.464,0.338,1.008,0.534,1.564,0.571c0.073,0.005,0.147,0.008,0.222,0.008  c0.491,0,0.975-0.118,1.411-0.349c0.732-0.387,0.99-1.313,0.604-2.044c-0.022-0.044-0.054-0.081-0.081-0.121  c-0.422-0.64-1.278-0.888-1.97-0.524l1.924-11.217c0.083-0.486-0.078-0.982-0.431-1.328l-8.131-8.002l11.262-1.636  c0.488-0.071,0.911-0.378,1.129-0.821l4.983-10.142l0.115-0.065l5.04,10.208c0.22,0.443,0.642,0.75,1.13,0.82l11.278,1.693  l-4.074,3.972c-0.528,0.516-0.568,1.315-0.167,1.906c0.05,0.07,0.077,0.15,0.141,0.216c0.578,0.592,1.527,0.604,2.121,0.026  l4.072-3.971c0.408-0.397,0.695-0.897,0.832-1.451C71.061,45.218,71.041,44.645,70.865,44.1z"/><path d="M62.379,53.832c-0.103-0.596-0.544-1.044-1.093-1.191c-0.203-0.054-0.419-0.07-0.64-0.033  c-0.675,0.117-1.158,0.668-1.23,1.314c-0.015,0.137-0.019,0.276,0.006,0.418l0.111,0.649l1.763,10.602l-9.917-5.213l-0.155-0.082  c-0.277-0.146-0.587-0.188-0.89-0.149c0,0,0,0-0.001,0c-0.174,0.021-0.347,0.064-0.507,0.149l-5.036,2.647  c-0.576,0.303-0.867,0.927-0.782,1.535c0,0,0,0,0,0.002c0.023,0.166,0.07,0.332,0.152,0.488c0.386,0.733,1.293,1.018,2.026,0.629  l4.338-2.281l9.365,4.925c0.228,0.122,0.469,0.213,0.691,0.265c0.24,0.063,0.486,0.092,0.731,0.092c0.312,0,0.623-0.049,0.943-0.15  c0.308-0.104,0.592-0.248,0.842-0.432c0.456-0.33,0.811-0.783,1.029-1.317c0.209-0.524,0.271-1.095,0.176-1.649L62.379,53.832z"/><text x="0" y="115" fill="#000000" font-size="5px" font-weight="bold" font-family="'Helvetica Neue', Helvetica, Arial-Unicode, Arial, Sans-serif">Created by Mr. Minuvi</text><text x="0" y="120" fill="#000000" font-size="5px" font-weight="bold" font-family="'Helvetica Neue', Helvetica, Arial-Unicode, Arial, Sans-serif">from the Noun Project</text></svg>