<svg xmlns="http://www.w3.org/2000/svg" xmlns:xlink="http://www.w3.org/1999/xlink" version="1.1" x="0px" y="0px" viewBox="0 0 64 80" style="enable-background:new 0 0 64 64;" xml:space="preserve"><g><path d="M32,4C16.5,4,4,16.5,4,32s12.5,28,28,28s28-12.5,28-28C60,16.5,47.5,4,32,4z M36.2,32l13.3-13.3c6,7.8,6,18.7,0,26.6   L36.2,32z M45.3,14.5L32,27.8L18.7,14.5C26.6,8.5,37.4,8.5,45.3,14.5L45.3,14.5z M14.5,18.7L27.8,32L14.5,45.3   C8.5,37.4,8.5,26.6,14.5,18.7z M18.7,49.5L32,36.2l13.3,13.3C37.4,55.5,26.6,55.5,18.7,49.5z"/></g><text x="0" y="79" fill="#000000" font-size="5px" font-weight="bold" font-family="'Helvetica Neue', Helvetica, Arial-Unicode, Arial, Sans-serif">Created by Andy Horvath</text><text x="0" y="84" fill="#000000" font-size="5px" font-weight="bold" font-family="'Helvetica Neue', Helvetica, Arial-Unicode, Arial, Sans-serif">from the Noun Project</text></svg>