<svg xmlns="http://www.w3.org/2000/svg" xmlns:xlink="http://www.w3.org/1999/xlink" version="1.1" x="0px" y="0px" viewBox="0 0 100 125" enable-background="new 0 0 100 100" xml:space="preserve"><path d="M28.986,54.788c-0.24,0-0.479,0.058-0.698,0.172l-6.744,3.547l1.289-7.511c0.083-0.486-0.078-0.983-0.431-1.328l-5.46-5.324  l7.544-1.096c0.489-0.071,0.911-0.378,1.129-0.821l3.374-6.837l2.266,4.59c0.187-0.048,0.372-0.093,0.563-0.121l0.979-0.142  l1.562-0.227l-3.012-6.101c-0.431-0.873-1.333-1.416-2.357-1.416c-1.021,0-1.923,0.541-2.357,1.414l-3.358,6.804l-7.51,1.092  c-0.487,0.072-0.943,0.278-1.314,0.593c-0.375,0.316-0.652,0.73-0.804,1.198c-0.152,0.469-0.169,0.968-0.051,1.441  c0.118,0.479,0.366,0.912,0.718,1.253l5.432,5.296l-1.283,7.478c-0.083,0.481-0.029,0.977,0.156,1.438  c0.185,0.449,0.489,0.84,0.902,1.144c0.397,0.28,0.862,0.448,1.338,0.481c0.038,0.004,0.161,0.008,0.198,0.008  c0.421,0,0.842-0.104,1.219-0.302l6.713-3.53l5.875,3.09l0.533-3.108l-5.71-3.003C29.466,54.846,29.226,54.788,28.986,54.788z"/><path d="M87.334,43.275c-0.149-0.464-0.427-0.877-0.801-1.194c-0.375-0.318-0.831-0.524-1.321-0.596l-7.507-1.091l-3.357-6.803  c-0.431-0.873-1.333-1.416-2.357-1.416c-1.021,0-1.923,0.541-2.357,1.414l-3.078,6.237l1.561,0.227l0.057,0.008  c0.487,0.069,0.959,0.215,1.404,0.423l2.414-4.894l3.376,6.837c0.218,0.443,0.641,0.75,1.129,0.821l7.542,1.096l-5.461,5.324  c-0.354,0.344-0.515,0.84-0.432,1.327l1.288,7.513l-6.746-3.548c-0.22-0.114-0.458-0.172-0.698-0.172s-0.479,0.058-0.698,0.172  l-6.624,3.483l0.268,1.556l0.265,1.543c0.025-0.012,0.053-0.017,0.078-0.028l6.713-3.531l6.716,3.533  c0.183,0.094,0.379,0.168,0.613,0.229c0.203,0.047,0.408,0.07,0.608,0.07c0.271,0,0.541-0.041,0.796-0.123  c0.271-0.084,0.523-0.213,0.754-0.381c0.395-0.287,0.699-0.679,0.893-1.146c0.182-0.459,0.232-0.955,0.148-1.422l-1.282-7.477  l5.435-5.297c0.354-0.345,0.601-0.779,0.71-1.229C87.503,44.258,87.488,43.752,87.334,43.275z"/><path d="M43.788,43.374c0.183-0.026,0.35-0.095,0.505-0.181c0.265-0.146,0.487-0.361,0.625-0.64l4.984-10.142l0.115-0.065  l5.041,10.208c0.219,0.443,0.641,0.75,1.129,0.82l0.429,0.062l10.852,1.63l-3.394,3.308l-0.682,0.665  c-0.14,0.135-0.238,0.293-0.313,0.459c-0.212,0.469-0.149,1.01,0.146,1.445c0.049,0.072,0.077,0.152,0.14,0.217  c0,0,0.001,0,0.001,0.001c0.235,0.239,0.537,0.358,0.847,0.407c0.45,0.07,0.924-0.041,1.273-0.383l0.354-0.345l3.719-3.624  c0.408-0.396,0.696-0.896,0.834-1.452c0.134-0.548,0.112-1.121-0.063-1.666c-0.177-0.54-0.498-1.017-0.928-1.378  c-0.217-0.183-0.456-0.333-0.711-0.447c-0.257-0.115-0.528-0.195-0.81-0.234l-10.481-1.522l-4.689-9.497  c-0.49-1.003-1.534-1.626-2.721-1.626c-1.183,0-2.226,0.621-2.722,1.622l-4.69,9.501l-10.41,1.512l-0.067,0.01  c-0.563,0.08-1.09,0.316-1.525,0.684c-0.434,0.367-0.755,0.844-0.93,1.383c-0.175,0.542-0.195,1.118-0.061,1.658  c0.134,0.552,0.421,1.054,0.829,1.45l7.585,7.395l-1.79,10.432c-0.099,0.561-0.037,1.136,0.179,1.665  c0.212,0.522,0.567,0.978,1.024,1.31c0.463,0.338,1.008,0.535,1.567,0.572c0.074,0.005,0.146,0.008,0.221,0.008  c0.49,0,0.973-0.117,1.409-0.348c0.725-0.381,0.981-1.287,0.616-2.018c-0.004-0.008-0.007-0.018-0.011-0.025  c-0.022-0.044-0.054-0.081-0.081-0.122c-0.421-0.64-1.279-0.888-1.97-0.526l1.925-11.216c0.083-0.485-0.078-0.983-0.431-1.327  l-8.131-8.003L43.788,43.374z"/><path d="M62.073,55.17l-0.229-1.338c-0.055-0.313-0.2-0.582-0.405-0.792c-0.188-0.192-0.426-0.329-0.688-0.399  c-0.202-0.054-0.418-0.07-0.639-0.033c-0.674,0.117-1.158,0.668-1.23,1.314c-0.015,0.137-0.019,0.275,0.007,0.418l0.11,0.649  l1.763,10.602l-9.916-5.213l-0.157-0.082c-0.277-0.146-0.588-0.188-0.891-0.149c-0.174,0.022-0.346,0.065-0.506,0.149l-5.036,2.647  c-0.575,0.303-0.866,0.927-0.781,1.535c0.022,0.168,0.068,0.332,0.151,0.489c0,0.001,0,0.001,0,0.001  c0.387,0.733,1.293,1.018,2.026,0.629l4.338-2.281l9.365,4.925c0.228,0.122,0.469,0.213,0.691,0.265  c0.24,0.063,0.486,0.092,0.731,0.092c0.313,0,0.626-0.049,0.944-0.15c0.305-0.103,0.588-0.246,0.844-0.434  c0.455-0.33,0.808-0.781,1.024-1.313c0.21-0.521,0.271-1.094,0.178-1.653L62.073,55.17z"/><text x="0" y="115" fill="#000000" font-size="5px" font-weight="bold" font-family="'Helvetica Neue', Helvetica, Arial-Unicode, Arial, Sans-serif">Created by Mr. Minuvi</text><text x="0" y="120" fill="#000000" font-size="5px" font-weight="bold" font-family="'Helvetica Neue', Helvetica, Arial-Unicode, Arial, Sans-serif">from the Noun Project</text></svg>