<svg xmlns="http://www.w3.org/2000/svg" viewBox="0 0 64 80" x="0px" y="0px"><polygon points="19 27 23 27 23 23 27 23 27 19 23 19 23 15 19 15 19 19 15 19 15 23 19 23 19 27"/><path d="m56,6H8c-1.1,0-2,.9-2,2v48c0,1.1.9,2,2,2h48c1.1,0,2-.9,2-2V8c0-1.1-.9-2-2-2Zm-7,43h-12v-4h12v4Zm-39,5V10h44L10,54Z"/><text x="0" y="79" fill="#000000" font-size="5px" font-weight="bold" font-family="'Helvetica Neue', Helvetica, Arial-Unicode, Arial, Sans-serif">Created by Andi Nur Abdillah</text><text x="0" y="84" fill="#000000" font-size="5px" font-weight="bold" font-family="'Helvetica Neue', Helvetica, Arial-Unicode, Arial, Sans-serif">from the Noun Project</text></svg>