<svg xmlns="http://www.w3.org/2000/svg" xmlns:xlink="http://www.w3.org/1999/xlink" version="1.1" x="0px" y="0px" viewBox="0 0 100 125" enable-background="new 0 0 100 100" xml:space="preserve"><path d="M21.388,56.139c-0.24,0-0.48,0.059-0.698,0.174l-6.476,3.403l1.238-7.211c0.083-0.485-0.078-0.983-0.432-1.328l-5.24-5.106  l7.241-1.053c0.487-0.071,0.911-0.378,1.129-0.82l3.239-6.563l1.342,2.717c0.345-0.132,0.702-0.238,1.072-0.292L24.231,40  l1.561-0.227l-2.072-4.197c-0.426-0.862-1.317-1.398-2.327-1.398c-1.011,0-1.902,0.535-2.331,1.397l-3.251,6.587l-7.268,1.057  c-0.479,0.069-0.927,0.271-1.307,0.588c-0.371,0.316-0.645,0.726-0.79,1.185c-0.147,0.46-0.164,0.949-0.054,1.398  c0.11,0.477,0.354,0.911,0.71,1.259l5.26,5.126l-1.243,7.24c-0.082,0.479-0.028,0.969,0.153,1.411  c0.182,0.451,0.484,0.841,0.878,1.128c0.391,0.283,0.854,0.453,1.333,0.487c0.039,0.003,0.161,0.008,0.2,0.008  c0.417,0,0.833-0.104,1.204-0.298l6.501-3.418l5.292,2.782l0.533-3.108l-5.127-2.695C21.868,56.195,21.628,56.139,21.388,56.139z"/><path d="M93.339,44.879c-0.146-0.461-0.421-0.872-0.794-1.188c-0.368-0.312-0.814-0.513-1.298-0.584l-7.21-1.048l-3.227-6.536  c-0.426-0.858-1.313-1.391-2.32-1.391c-1.005,0-1.894,0.531-2.322,1.392l-2.136,4.329l1.56,0.227l1.491,0.217  c0.023,0.003,0.045,0.011,0.068,0.015l1.338-2.712l3.207,6.496c0.219,0.443,0.641,0.75,1.129,0.82l7.165,1.042l-5.187,5.056  c-0.354,0.344-0.516,0.84-0.433,1.327l1.225,7.14l-6.408-3.373c-0.22-0.114-0.458-0.172-0.698-0.172s-0.479,0.058-0.698,0.172  l-2.988,1.572l0.267,1.555l0.193,1.127c0.023,0.147,0.033,0.296,0.043,0.443l3.185-1.676l6.454,3.396  c0.182,0.095,0.375,0.168,0.575,0.218c0.202,0.051,0.412,0.075,0.625,0.075c0.264,0,0.527-0.041,0.805-0.127  c0.255-0.086,0.494-0.207,0.718-0.367c0.395-0.285,0.697-0.676,0.874-1.118c0.186-0.452,0.236-0.942,0.153-1.414l-1.231-7.183  l5.229-5.094c0.339-0.336,0.579-0.757,0.697-1.229C93.502,45.817,93.484,45.329,93.339,44.879z"/><path d="M73.782,61.604L72.4,53.55l-0.039-0.228l0.094-0.092l5.936-5.783c0.364-0.359,0.622-0.812,0.74-1.297  c0.123-0.493,0.105-1.011-0.052-1.504c-0.158-0.489-0.449-0.922-0.839-1.25c-0.392-0.331-0.867-0.544-1.373-0.617l-8.323-1.21  l-3.724-7.543c-0.448-0.906-1.389-1.469-2.456-1.469c-1.066,0-2.008,0.562-2.458,1.47l-2.761,5.595l1.101,0.16l0.46,0.067  l1.463,0.212c0.032,0.005,0.063,0.015,0.096,0.021l2.1-4.255l3.579,7.25l0.261,0.528c0.205,0.416,0.593,0.705,1.044,0.798  c0.029,0.006,0.057,0.019,0.085,0.023l8.58,1.247l-5.68,5.537l-0.529,0.517c-0.194,0.188-0.323,0.426-0.393,0.68  c-0.059,0.209-0.076,0.429-0.039,0.648l0.085,0.496l1.329,7.747l0.052,0.304l-7.675-4.037c-0.438-0.229-0.959-0.229-1.396,0  l-4.729,2.487l0.108,0.638l0.157,0.918l0.268,1.555l4.896-2.574l7.447,3.916c0.191,0.102,0.396,0.178,0.623,0.235  c0.212,0.051,0.431,0.077,0.648,0.077c0.29,0,0.575-0.045,0.844-0.133c0.271-0.09,0.526-0.219,0.769-0.393  c0.415-0.301,0.735-0.712,0.925-1.182c0.192-0.469,0.249-0.985,0.163-1.498L73.782,61.604z"/><path d="M57.486,51.188l4.076-3.973c0.405-0.396,0.69-0.896,0.828-1.448c0.134-0.549,0.113-1.122-0.063-1.666  c-0.177-0.539-0.498-1.015-0.928-1.377c-0.293-0.247-0.63-0.429-0.99-0.55c-0.172-0.058-0.348-0.106-0.529-0.132l-0.546-0.079  l-9.937-1.443l-4.69-9.499c-0.493-1.002-1.535-1.624-2.72-1.624c-1.183,0-2.226,0.621-2.722,1.622l-4.69,9.501l-9.415,1.367  l-1.069,0.155c-0.161,0.023-0.317,0.063-0.473,0.112c-0.381,0.12-0.737,0.311-1.044,0.57c-0.435,0.366-0.757,0.844-0.933,1.386  c-0.175,0.541-0.194,1.115-0.06,1.661c0.135,0.549,0.421,1.048,0.828,1.446l7.585,7.395l-1.792,10.436  c-0.097,0.559-0.034,1.133,0.18,1.66c0.213,0.523,0.568,0.979,1.025,1.311c0.463,0.336,1.008,0.534,1.566,0.571  c0.073,0.005,0.146,0.009,0.221,0.009c0.49,0,0.974-0.119,1.41-0.349c0.726-0.381,0.981-1.288,0.615-2.019  c-0.005-0.008-0.007-0.017-0.011-0.023c-0.022-0.044-0.054-0.082-0.082-0.123c-0.421-0.641-1.281-0.887-1.97-0.525l1.926-11.217  c0.083-0.486-0.078-0.982-0.431-1.328l-8.133-8.001l11.264-1.636c0.489-0.071,0.911-0.378,1.13-0.821L41.9,32.413l0.115-0.065  l5.041,10.208c0.07,0.145,0.17,0.268,0.279,0.38c0.167,0.17,0.371,0.297,0.601,0.373c0.082,0.027,0.163,0.055,0.249,0.068  l11.279,1.693l-4.05,3.947l-0.024,0.025c-0.529,0.516-0.569,1.315-0.167,1.906c0.049,0.071,0.076,0.149,0.139,0.214  c0,0.001,0.001,0.002,0.001,0.002c0.427,0.438,1.055,0.554,1.594,0.354C57.15,51.443,57.331,51.338,57.486,51.188z"/><path d="M55.72,64.773l-1.878-10.941c-0.006-0.032-0.019-0.063-0.024-0.093c-0.027-0.113-0.066-0.22-0.117-0.32  c-0.07-0.142-0.157-0.271-0.265-0.381c-0.188-0.19-0.425-0.328-0.688-0.397c-0.202-0.054-0.418-0.07-0.639-0.033  c-0.129,0.022-0.247,0.064-0.36,0.117c-0.481,0.217-0.812,0.674-0.87,1.197c-0.015,0.137-0.019,0.275,0.007,0.418l0.11,0.649  l1.761,10.602l-9.916-5.213l-0.156-0.082c-0.277-0.146-0.588-0.188-0.891-0.149c-0.174,0.022-0.346,0.065-0.506,0.149l-5.036,2.647  c-0.576,0.303-0.866,0.927-0.781,1.535c0.022,0.166,0.068,0.332,0.15,0.488c0,0.001,0,0.001,0.001,0.002  c0.386,0.733,1.293,1.018,2.026,0.629l4.338-2.281l9.364,4.925c0.228,0.122,0.469,0.213,0.693,0.266  c0.241,0.062,0.486,0.091,0.729,0.091c0.312,0,0.623-0.049,0.94-0.149c0.307-0.103,0.592-0.247,0.851-0.437  c0.453-0.33,0.806-0.781,1.021-1.311c0.211-0.524,0.272-1.096,0.179-1.653L55.72,64.773z"/><text x="0" y="115" fill="#000000" font-size="5px" font-weight="bold" font-family="'Helvetica Neue', Helvetica, Arial-Unicode, Arial, Sans-serif">Created by Mr. Minuvi</text><text x="0" y="120" fill="#000000" font-size="5px" font-weight="bold" font-family="'Helvetica Neue', Helvetica, Arial-Unicode, Arial, Sans-serif">from the Noun Project</text></svg>