<svg xmlns="http://www.w3.org/2000/svg" xmlns:xlink="http://www.w3.org/1999/xlink" version="1.1" x="0px" y="0px" viewBox="0 0 100 125" enable-background="new 0 0 100 100" xml:space="preserve"><path d="M95.995,43.815c-0.137-0.42-0.387-0.793-0.729-1.084c-0.341-0.285-0.751-0.468-1.188-0.531l-5.651-0.823l-2.531-5.123  c-0.392-0.793-1.207-1.285-2.13-1.285c-0.921,0-1.737,0.491-2.132,1.285l-2.151,4.359l1.562,0.227l1.319,0.192  c0.079,0.011,0.155,0.034,0.233,0.05l1.169-2.368l2.32,4.698c0.22,0.442,0.642,0.749,1.129,0.82l5.184,0.754l-3.752,3.656  c-0.354,0.345-0.516,0.841-0.433,1.328l0.887,5.161l-4.638-2.438c-0.219-0.114-0.458-0.172-0.697-0.172  c-0.24,0-0.479,0.058-0.698,0.172l-2.812,1.478l0.268,1.556l0.267,1.556l2.977-1.565l5.06,2.66c0.164,0.086,0.339,0.152,0.542,0.205  c0.186,0.045,0.374,0.066,0.563,0.066c0.251,0,0.496-0.039,0.732-0.115c0.232-0.075,0.452-0.188,0.663-0.338  c0.358-0.26,0.637-0.614,0.807-1.028c0.166-0.412,0.216-0.86,0.141-1.296l-0.966-5.629l4.094-3.99  c0.316-0.311,0.54-0.703,0.646-1.133C96.148,44.692,96.133,44.245,95.995,43.815z"/><path d="M79.392,58.016l-1.028-5.996l5.226-5.094c0.345-0.339,0.586-0.766,0.699-1.234c0.113-0.467,0.095-0.954-0.052-1.41  c-0.148-0.461-0.423-0.87-0.794-1.183s-0.82-0.514-1.297-0.582l-0.241-0.035l-1.561-0.227l-5.407-0.787l-3.228-6.535  c-0.425-0.858-1.313-1.392-2.319-1.392c-1.006,0-1.896,0.532-2.322,1.393l-2.282,4.625l1.562,0.227l1.561,0.227l1.482-3.004  l2.843,5.757l0.364,0.737c0.11,0.225,0.274,0.414,0.474,0.555c0.191,0.137,0.415,0.23,0.655,0.265l7.167,1.042l-4.834,4.712  l-0.354,0.343c-0.354,0.346-0.515,0.841-0.432,1.327l1.123,6.549l0.101,0.588l-6.412-3.372c-0.219-0.115-0.458-0.173-0.697-0.173  c-0.24,0-0.479,0.058-0.698,0.173l-4.086,2.15l0.266,1.555l0.268,1.555l4.252-2.236l6.451,3.393c0.189,0.1,0.392,0.176,0.578,0.221  c0.201,0.051,0.413,0.076,0.627,0.076c0.267,0,0.53-0.041,0.789-0.121c0.26-0.084,0.503-0.207,0.741-0.377  c0.389-0.285,0.689-0.674,0.866-1.115c0.183-0.447,0.236-0.937,0.154-1.412L79.392,58.016z"/><path d="M15.539,52.695L10.9,55.133l0.887-5.162c0.083-0.487-0.078-0.983-0.432-1.328l-3.752-3.656l5.183-0.754  c0.488-0.071,0.91-0.377,1.129-0.82l2.322-4.699l1.18,2.392c0.114-0.026,3.11-0.477,3.11-0.477l-2.16-4.378  c-0.393-0.79-1.209-1.281-2.13-1.281c-0.923,0-1.739,0.492-2.13,1.284l-2.532,5.124L5.925,42.2c-0.44,0.064-0.854,0.249-1.195,0.538  c-0.336,0.285-0.586,0.658-0.725,1.08c-0.138,0.424-0.152,0.877-0.047,1.301c0.105,0.429,0.328,0.82,0.648,1.136l4.091,3.987  L7.731,55.87c-0.077,0.442-0.026,0.896,0.142,1.3c0.168,0.412,0.446,0.768,0.824,1.041c0.207,0.145,0.428,0.255,0.644,0.322  c0.238,0.078,0.484,0.117,0.732,0.117c0.188,0,0.378-0.022,0.578-0.071c0.187-0.048,0.367-0.117,0.531-0.203l5.056-2.658l3.09,1.624  l0.534-3.107l-2.926-1.539C16.498,52.467,15.976,52.467,15.539,52.695z"/><path d="M30.039,55.514l-6.41,3.371l1.226-7.137c0.083-0.487-0.078-0.982-0.433-1.328l-5.186-5.055l7.167-1.042  c0.202-0.029,0.387-0.107,0.556-0.21c0.241-0.146,0.445-0.351,0.573-0.61l3.205-6.494l1.483,3.004l3.121-0.454l-2.284-4.629  c-0.427-0.856-1.315-1.389-2.321-1.389s-1.896,0.533-2.321,1.393l-3.224,6.533l-7.086,1.031l-0.126,0.019  c-0.479,0.07-0.927,0.271-1.293,0.58c-0.372,0.312-0.646,0.722-0.796,1.186c-0.146,0.456-0.164,0.943-0.05,1.416  c0.115,0.467,0.357,0.892,0.705,1.234l5.219,5.086l-1.233,7.186c-0.08,0.477-0.026,0.963,0.153,1.402  c0.181,0.449,0.484,0.838,0.871,1.119c0.221,0.162,0.466,0.287,0.743,0.379c0.256,0.08,0.52,0.121,0.785,0.121  c0.205,0,0.411-0.024,0.624-0.076c0.204-0.051,0.399-0.125,0.583-0.223l6.448-3.392l4.252,2.237l0.534-3.109l-4.087-2.15  C30.998,55.282,30.475,55.282,30.039,55.514z"/><path d="M41.292,66.206c-0.022-0.044-0.054-0.082-0.082-0.123c-0.421-0.64-1.281-0.888-1.97-0.526l1.926-11.217  c0.083-0.486-0.078-0.982-0.432-1.328l-8.133-8.002l0.559-0.081l8.252-1.199l2.453-0.356c0.293-0.042,0.556-0.178,0.772-0.369  c0.144-0.127,0.27-0.275,0.356-0.452l4.983-10.141l0.115-0.066l5.04,10.207c0.088,0.176,0.214,0.323,0.355,0.45  c0.216,0.192,0.479,0.328,0.773,0.371l10.657,1.598l0.621,0.096l-3.905,3.806l-0.17,0.166c-0.382,0.372-0.495,0.893-0.395,1.378  c0.039,0.188,0.115,0.362,0.229,0.527c0.049,0.07,0.076,0.152,0.14,0.216c0.014,0.015,0.033,0.019,0.047,0.032  c0.419,0.396,1.006,0.508,1.521,0.326c0.2-0.069,0.391-0.175,0.553-0.332l4.075-3.973c0.406-0.396,0.691-0.896,0.827-1.444  c0.137-0.549,0.116-1.124-0.06-1.669c-0.177-0.538-0.497-1.015-0.929-1.378c-0.286-0.242-0.616-0.42-0.967-0.542  c-0.18-0.062-0.362-0.113-0.553-0.141l-10.481-1.523l-4.689-9.498c-0.492-1.001-1.535-1.624-2.72-1.624  c-1.184,0-2.227,0.621-2.723,1.622l-4.688,9.5l-1.241,0.18l-8.263,1.201l-0.979,0.142c-0.189,0.027-0.375,0.08-0.555,0.142  c-0.35,0.121-0.678,0.3-0.964,0.541c-0.436,0.367-0.756,0.845-0.933,1.385c-0.174,0.54-0.193,1.114-0.059,1.662  c0.135,0.549,0.421,1.048,0.828,1.446l7.585,7.395l-1.793,10.44c-0.094,0.558-0.032,1.128,0.183,1.658  c0.216,0.524,0.569,0.978,1.027,1.31c0.461,0.334,1.003,0.53,1.563,0.569c0.073,0.005,0.146,0.009,0.221,0.009  c0.49,0,0.974-0.119,1.41-0.349c0.726-0.381,0.981-1.289,0.614-2.019C41.298,66.223,41.296,66.214,41.292,66.206z"/><path d="M61.917,53.832c-0.033-0.191-0.104-0.369-0.199-0.525c-0.06-0.098-0.128-0.187-0.205-0.267  c-0.188-0.19-0.426-0.329-0.688-0.397c-0.162-0.045-0.333-0.058-0.508-0.043c-0.044,0.004-0.088,0-0.133,0.008  c-0.676,0.117-1.159,0.668-1.23,1.316c-0.015,0.137-0.019,0.274,0.006,0.416l0.111,0.649l1.762,10.604l-9.916-5.215l-0.155-0.082  c-0.276-0.146-0.586-0.188-0.887-0.149c-0.176,0.021-0.35,0.064-0.511,0.149l-5.036,2.647c-0.577,0.304-0.868,0.929-0.781,1.539  c0.023,0.166,0.069,0.33,0.152,0.486c0.386,0.733,1.294,1.018,2.026,0.629l4.338-2.281l9.379,4.934  c0.22,0.114,0.451,0.202,0.68,0.258c0.238,0.061,0.484,0.09,0.73,0.09c0.313,0,0.626-0.049,0.936-0.147  c0.305-0.101,0.59-0.245,0.851-0.433c0.457-0.334,0.813-0.787,1.025-1.313c0.211-0.522,0.272-1.095,0.178-1.654L61.917,53.832z"/><text x="0" y="115" fill="#000000" font-size="5px" font-weight="bold" font-family="'Helvetica Neue', Helvetica, Arial-Unicode, Arial, Sans-serif">Created by Mr. Minuvi</text><text x="0" y="120" fill="#000000" font-size="5px" font-weight="bold" font-family="'Helvetica Neue', Helvetica, Arial-Unicode, Arial, Sans-serif">from the Noun Project</text></svg>