<svg xmlns="http://www.w3.org/2000/svg" xmlns:xlink="http://www.w3.org/1999/xlink" version="1.1" x="0px" y="0px" viewBox="0 0 128 160" style="enable-background:new 0 0 128 128;" xml:space="preserve"><g><path d="M61.483,32.44c0.26-2.996,0.682-15.665-9.544-24.147c-8.754-7.261-21.578-8.345-31.91-2.697   c-1.155,0.632-1.385,2.254-0.443,3.181c4.282,4.212,8.239,8.734,11.868,13.518c3.183,4.196,6.074,9.316,10.917,11.811   c4.951,2.551,10.72,2.328,15.997,1.041c5.024,10.146,8.045,21.155,9.075,32.424c-2.026-3.35-4.995-6.686-9.355-9.174   c-9.896-5.647-22.714-4.513-31.899,2.823c-1.03,0.824-0.974,2.461,0.114,3.21c3.972,2.736,7.78,5.709,11.413,8.881   c3.548,3.098,6.716,6.72,10.482,9.552c5.724,4.306,13,3.986,19.419,1.512c-0.306,4.591-0.639,9.196-1.104,13.774   c-0.38,3.739-0.873,7.578-2.287,11.088c-2.95-4.218-9.685-7.103-17.72-7.103c-10.837,0-19.325,5.242-19.325,11.934   S35.669,126,46.505,126c10.449,0,18.691-4.878,19.269-11.226c3.27-4.672,4.142-10.562,4.708-16.104   c0.753-7.375,1.429-14.859,1.39-22.275c-0.022-4.243-0.288-8.486-0.82-12.696c4.531,0.903,9.513,0.965,13.821-0.91   c4.047-1.762,6.605-5.293,9.124-8.752c4.38-6.011,9.111-11.715,14.418-16.936c0.941-0.926,0.711-2.55-0.443-3.181   c-10.332-5.648-23.156-4.564-31.91,2.697c-4.393,3.644-6.814,8.007-8.128,12.055C66.296,43.068,64.128,37.645,61.483,32.44z    M57.476,27.54c-3.9-4.198-8.225-8.008-12.728-11.544c-4.941-3.88-10.333-7.429-16.372-9.327   c7.375-1.715,15.234-0.087,21.008,4.702C55.376,16.342,57.073,23.02,57.476,27.54z M37.236,23.356   c-3.309-4.542-6.797-8.912-10.614-13.041c5.247,1.528,10.907,4.893,17.662,10.441c5.441,4.47,8.868,7.908,11.5,10.871   c-4.594,0.874-8.483,0.519-11.581-1.077C41.439,29.126,39.946,27.077,37.236,23.356z M46.505,122   c-9.167,0-15.324-4.102-15.324-7.934s6.158-7.933,15.324-7.933s15.324,4.102,15.324,7.933S55.672,122,46.505,122z M78.618,39.695   c5.792-4.804,13.682-6.429,21.078-4.686c-6.06,1.884-11.479,5.422-16.436,9.307c-4.483,3.513-8.791,7.303-12.675,11.474   C70.986,51.282,72.67,44.629,78.618,39.695C84.41,34.891,72.67,44.629,78.618,39.695z M66.915,76.395   c-4.512-3.415-9.366-6.387-14.347-9.066c-5.624-3.025-11.647-5.637-18.028-6.468c6.972-2.977,15.019-2.726,21.564,1.009   C62.876,65.736,65.721,72.013,66.915,76.395z M46.252,75.753c-4.055-3.903-8.255-7.607-12.737-11.016   c6.015,0.67,11.719,3.216,17.005,6.037c5.401,2.882,10.644,6.141,15.446,9.947c-4.366,1.647-8.255,1.963-11.585,0.923   C51.407,80.715,49.576,78.953,46.252,75.753C42.197,71.85,49.576,78.953,46.252,75.753z M97.36,43.167   c-2.314,2.75-4.481,5.61-6.597,8.514c-1.97,2.702-3.911,5.619-6.965,7.193c-1.449,0.745-5.226,2.151-11.511,0.99   c2.601-2.922,6.004-6.327,11.43-10.784c6.753-5.546,12.411-8.909,17.657-10.436C100.004,40.125,98.655,41.628,97.36,43.167   C94.428,46.651,98.655,41.628,97.36,43.167z"/></g><text x="0" y="143" fill="#000000" font-size="5px" font-weight="bold" font-family="'Helvetica Neue', Helvetica, Arial-Unicode, Arial, Sans-serif">Created by SBTS</text><text x="0" y="148" fill="#000000" font-size="5px" font-weight="bold" font-family="'Helvetica Neue', Helvetica, Arial-Unicode, Arial, Sans-serif">from the Noun Project</text></svg>