<?xml version="1.0" encoding="UTF-8" standalone="no"?>
<!-- Created with Inkscape (http://www.inkscape.org/) -->

<svg
   version="1.1"
   id="svg833"
   width="1056"
   height="816"
   viewBox="0 0 1056 816"
   sodipodi:docname="project-incase.svg"
   inkscape:version="1.1 (c68e22c387, 2021-05-23)"
   inkscape:export-filename="C:\Users\martin\Downloads\ex.png"
   inkscape:export-xdpi="600"
   inkscape:export-ydpi="600"
   xmlns:inkscape="http://www.inkscape.org/namespaces/inkscape"
   xmlns:sodipodi="http://sodipodi.sourceforge.net/DTD/sodipodi-0.dtd"
   xmlns="http://www.w3.org/2000/svg"
   xmlns:svg="http://www.w3.org/2000/svg">
  <defs
     id="defs837">
    <filter
       inkscape:label="Sharpen"
       inkscape:menu="Image Effects"
       inkscape:menu-tooltip="Sharpen edges and boundaries within the object, force=0.15"
       style="color-interpolation-filters:sRGB;"
       id="filter1224"
       x="0"
       y="0"
       width="1"
       height="1">
      <feConvolveMatrix
         order="3 3"
         kernelMatrix="0 -0.15 0 -0.15 1.6 -0.15 0 -0.15 0"
         divisor="1"
         in="SourceGraphic"
         targetX="1"
         targetY="1"
         id="feConvolveMatrix1222" />
    </filter>
  </defs>
  <sodipodi:namedview
     id="namedview835"
     pagecolor="#ffffff"
     bordercolor="#666666"
     borderopacity="1.0"
     inkscape:pageshadow="2"
     inkscape:pageopacity="1"
     inkscape:pagecheckerboard="0"
     showgrid="false"
     inkscape:zoom="0.65251398"
     inkscape:cx="475.08561"
     inkscape:cy="442.13612"
     inkscape:window-width="1754"
     inkscape:window-height="1347"
     inkscape:window-x="1677"
     inkscape:window-y="0"
     inkscape:window-maximized="0"
     inkscape:current-layer="g839" />
  <g
     inkscape:groupmode="layer"
     inkscape:label="Image"
     id="g839"
     style="display:inline">
    <rect
       style="fill:#f9f9f9;stroke-width:3.29197;stroke-linejoin:round"
       id="rect1995"
       width="1057.4486"
       height="816.84076"
       x="-0.7243042"
       y="-0.42037964" />
    <g
       id="g1836">
      <path
         style="fill:#e8352e;stroke-width:1.06667"
         d="M 0,148.8 V 0 h 528 528 V 148.8 297.6 H 528 0 Z m 1030.8461,124.68588 c 1.4556,-0.55856 1.6872,-3.39516 1.6872,-20.65997 V 232.8134 l -6.1333,1.54105 c -8.8303,2.21867 -29.77369,2.10273 -39.73333,-0.21995 -13.54539,-3.15892 -26.12582,-8.69592 -38.13334,-16.78357 -5.23364,-3.52511 -5.17812,-3.67996 -2.47268,6.8982 8.28517,32.39473 33.16383,49.15373 73.85215,49.74895 5.0853,0.0743 10.0053,-0.1561 10.9333,-0.5122 z m -22.3979,-51.08666 c 4.0598,-0.86006 11.1898,-3.35087 15.8443,-5.53513 l 8.4629,-3.9714 -7.2376,-2.44145 c -16.9314,-5.71139 -25.82832,-11.5447 -47.05955,-30.85469 -16.87725,-15.34998 -23.69163,-19.03491 -34.99158,-18.92196 -7.42827,0.0742 -18.4078,3.46844 -24.95018,7.71305 l -2.55018,1.65451 2.70501,0.72344 c 8.79145,2.35119 16.61457,8.22523 33.94468,25.48756 18.48669,18.41439 25.18234,23.37871 35.11733,26.03682 7.52946,2.01451 11.61938,2.03608 20.71487,0.10925 z M 1033.6,171.75365 v -20.24634 l -2.9333,-0.61245 C 1015.6677,147.76323 997.199,139.38759 983.09833,129.32244 974.3363,123.06805 954.86739,104.63118 947.91059,96 l -3.86884,-4.8 -0.0209,6.711635 c -0.0278,8.964265 2.62871,21.396675 6.63395,31.045845 10.72422,25.83607 38.72188,50.39514 68.0118,59.65881 3.8134,1.20606 7.6534,2.42289 8.5334,2.70406 0.88,0.28118 2.68,0.54912 4,0.59544 l 2.4,0.0842 z m -764.9936,7.93836 5.52693,-1.64132 v -5.82535 c 0,-6.51085 -0.0374,-6.54887 -3.93787,-3.99323 -1.82609,1.1965 -4.98812,1.84409 -9.11439,1.86666 -5.78354,0.0317 -6.577,-0.25482 -9.37581,-3.38494 -5.55106,-6.20814 -5.56063,-17.79777 -0.0196,-23.72947 2.65808,-2.84548 3.75376,-3.25103 8.78343,-3.25103 3.53146,0 7.27248,0.778 9.70537,2.01835 l 3.95887,2.01835 v -5.80612 c 0,-5.68114 -0.0845,-5.84139 -3.92433,-7.44579 -6.23022,-2.60315 -17.65533,-2.16179 -23.62992,0.91283 -9.85102,5.06952 -14.62653,19.86163 -10.89093,33.73458 3.4336,12.75141 17.69835,19.0463 32.91825,14.52648 z m 42.58882,6.4e-4 c 2.15969,-0.90237 4.78427,-2.41677 5.83241,-3.36532 1.78436,-1.61483 1.9057,-1.54431 1.9057,1.10735 0,2.75513 0.17645,2.83199 6.50173,2.83199 h 6.50174 L 331.56839,160.8 c -0.40401,-21.34869 -1.12892,-24.09461 -7.64405,-28.95517 -3.80171,-2.83622 -19.88241,-3.69109 -27.39101,-1.45615 l -4.8,1.42873 -0.32716,5.6953 c -0.29545,5.14294 -0.14027,5.61628 1.6,4.88057 14.06551,-5.94638 25.92716,-4.72331 25.92716,2.67339 0,1.94931 -0.7131,2.13384 -8.26666,2.13928 -14.30097,0.0107 -21.55793,3.64855 -23.78665,11.92538 -4.00918,14.88895 9.84746,26.60633 24.3152,20.56132 z m -8.80468,-9.43434 c -1.35699,-0.99225 -2.01721,-2.78278 -2.01721,-5.47076 0,-5.90205 3.09899,-7.98755 11.86925,-7.98755 6.67604,0 6.91515,0.0911 6.2964,2.4 -0.35375,1.32 -0.64974,3.20317 -0.65775,4.18482 -0.009,0.98167 -1.25723,3.26167 -2.77605,5.06667 -3.09285,3.67565 -9.00911,4.51638 -12.71464,1.80682 z m 71.39207,9.90185 c 15.71694,-4.36371 14.4022,-25.72398 -1.83111,-29.74954 -12.57452,-3.11825 -17.46185,-7.02656 -12.93028,-10.34011 2.85442,-2.0872 13.02776,-1.69789 18.31211,0.70076 l 4.53334,2.05776 v -5.70039 c 0,-6.9968 -0.19793,-7.10305 -14.4,-7.72966 -15.84239,-0.699 -22.48546,3.67826 -22.32152,14.70812 0.13322,8.96238 3.21464,11.50019 20.18818,16.62661 5.8625,1.77062 6.42685,2.2077 6.71968,5.20425 0.57596,5.89391 -7.96076,7.54045 -18.98634,3.66204 -7.78572,-2.73874 -7.46667,-2.87372 -7.46667,3.15889 0,5.75565 -0.45895,5.40073 10.13333,7.83642 4.1281,0.94924 13.91268,0.71335 18.04928,-0.43515 z m 63.81739,-1.0775 4,-1.30726 v -6.08721 -6.08721 l -4.53333,2.26618 c -6.97529,3.48689 -20.03409,3.26569 -23.6437,-0.40049 -1.44405,-1.46667 -2.94699,-3.98667 -3.33989,-5.6 l -0.71435,-2.93334 h 17.1823 17.1823 v -5.7075 c 0,-15.31174 -8.45492,-24.15916 -23.0874,-24.15916 -15.5128,0 -23.85575,9.14306 -23.83998,26.12629 0.003,3.52387 0.53341,8.32704 1.17809,10.67371 1.47985,5.38671 8.85241,12.65498 14.42733,14.22328 4.9599,1.39528 19.63253,0.80851 25.18863,-1.00729 z m -27.19217,-32.42768 c 0.28161,-1.4731 1.99159,-3.92335 3.79998,-5.44501 5.76454,-4.85055 14.39315,-2.06608 16.08303,5.19003 l 0.68313,2.93333 H 420.4349 409.89583 Z m 127.42572,33.56474 c 19.70795,-5.47344 21.31223,-41.71529 2.20071,-49.71611 -5.20625,-2.17955 -15.61179,-1.83188 -20.5483,0.68654 -4.66226,2.37851 -8.71935,7.26857 -10.53865,12.70235 -1.77165,5.29148 -1.5184,18.64725 0.44261,23.34176 4.61654,11.05167 16.26257,16.36847 28.44363,12.98546 z m -12.21198,-11.65024 c -3.98425,-3.13399 -5.39822,-7.6042 -4.8967,-15.48055 0.57851,-9.08523 3.09084,-12.69306 9.15404,-13.14564 5.09812,-0.38056 8.16973,2.1955 9.85614,8.26608 3.95964,14.25341 -5.1571,27.40521 -14.11348,20.36011 z M 879.2,179.08266 c 3.97173,-1.29802 4,-1.34827 4,-7.10908 0,-5.10407 -0.22449,-5.71039 -1.86667,-5.04154 -12.21733,4.97605 -22.34921,5.02517 -26.56091,0.12877 -1.37817,-1.60221 -2.50575,-4.08634 -2.50575,-5.52029 v -2.60719 H 868.8 885.33333 l -0.006,-5.6 c -0.0166,-15.6726 -8.13348,-24.26666 -22.91914,-24.26666 -8.67256,0 -12.7733,1.65302 -17.73105,7.14745 -9.20419,10.20054 -7.91532,32.45049 2.31782,40.01328 6.94227,5.13067 21.33745,6.40693 32.20499,2.85526 z m -26.93333,-31.96471 c 0,-3.67004 5.65278,-8.45128 9.99179,-8.45128 4.45464,0 8.8054,3.4273 9.81702,7.73333 l 0.68913,2.93333 h -10.24897 c -9.6644,0 -10.24897,-0.12635 -10.24897,-2.21538 z M 108.8,174.4 v -5.86667 h -6.93333 -6.933337 V 146.66667 124.8 H 101.86667 108.8 v -5.86667 -5.86666 H 88.533333 68.266667 V 118.93333 124.8 H 75.2 82.133333 v 21.86667 21.86666 H 75.2 68.266667 v 5.15556 c 0,2.83556 0.32,5.47556 0.711111,5.86666 0.391111,0.39112 9.511111,0.71112 20.266667,0.71112 H 108.8 Z m 27.90349,-11.55741 c 0.49924,-20.68094 1.48631,-23.45951 8.13625,-22.90314 5.94521,0.49739 6.59284,2.74985 6.6112,22.99388 l 0.0157,17.33334 h 6.4 6.4 v -18.80958 c 0,-20.96367 -0.91818,-25.84496 -5.60295,-29.78694 -4.81156,-4.04866 -13.31654,-3.72115 -18.35993,0.70701 l -3.77046,3.3105 v -2.77716 c 0,-2.6832 -0.21654,-2.77717 -6.4,-2.77717 h -6.4 V 155.2 180.26667 h 6.27477 6.27476 z M 590.93333,160 v -20.26667 h 8 8 v -4.8 -4.8 h -8 c -7.87688,0 -8,-0.0421 -8,-2.73679 0,-5.66975 1.59333,-6.86321 9.16264,-6.86321 h 6.95425 l -0.32511,-5.06666 c -0.31685,-4.93802 -0.4199,-5.07577 -4.05844,-5.42491 -2.05334,-0.19703 -6.77332,-0.0346 -10.48885,0.36108 -9.6946,1.03227 -12.92399,4.10583 -13.73722,13.07435 l -0.60357,6.65614 h -6.25185 -6.25185 v 4.8 4.8 h 6.4 6.4 V 160 180.26667 h 6.4 6.4 z m 110.93334,0 v -20.26667 h 7.46666 7.46667 v -4.8 -4.8 h -7.528 -7.528 l 0.328,-4.53333 0.328,-4.53333 7.2,-0.31541 7.2,-0.3154 v -5.44248 -5.44249 l -9.50742,0.61596 c -14.4424,0.93568 -17.20086,3.11805 -18.83294,14.89982 l -0.70187,5.06666 h -5.74555 -5.74555 v 4.8 4.8 H 682.13333 688 v 19.55556 c 0,10.75556 0.32,19.87556 0.71111,20.26666 0.39111,0.39112 3.51111,0.71112 6.93334,0.71112 h 6.22222 z m 73.6,14.93333 V 169.6 h -8 -8 v -19.73333 -19.73334 h -12.8 -12.8 v 4.8 4.8 h 6.4 6.4 v 14.88847 14.88846 l -8.26667,0.31154 -8.26667,0.31153 -0.34182,3.56822 c -0.64806,6.76504 -1.35583,6.56512 23.24168,6.56512 h 22.43348 z m 29.86666,-10.1863 c 0,-17.67933 0.98399,-20.99664 6.96992,-23.49773 4.66577,-1.94948 9.19278,-1.9223 13.99461,0.084 2.10614,0.88 4.01072,1.6 4.2324,1.6 0.2217,0 0.40307,-2.65188 0.40307,-5.89306 0,-5.34435 -0.25476,-5.98993 -2.7361,-6.93334 -7.19298,-2.73476 -17.68274,-0.49604 -21.19915,4.52431 -1.65585,2.36406 -1.66475,2.35839 -1.66475,-1.06058 v -3.43735 H 798.4 791.46667 v 24.35556 c 0,13.39556 0.32,24.67556 0.71111,25.06666 0.39111,0.39112 3.51111,0.71112 6.93333,0.71112 h 6.22222 z m 225.95557,-36.62318 c -0.1956,-0.51855 -3.3387,-3.42597 -6.9847,-6.46094 C 1011.6651,111.14197 1002.7683,98.273843 985.06841,64.912793 980.51025,56.321494 974.67882,46.642534 972.10969,43.403991 964.15265,33.373695 953.15287,27.733333 941.54895,27.733333 h -5.26385 l 4.00241,4.430193 c 5.02236,5.559153 9.47238,15.172409 16.46545,35.569807 15.84592,46.219437 31.29083,61.032737 63.86924,61.257347 6.0622,0.0418 10.8622,-0.34828 10.6667,-0.86683 z M 759.46667,113.06667 V 105.6 h -6.4 -6.4 v 7.46667 7.46666 h 6.4 6.4 z M 1034.6623,101.6 c 0,-3.96 -0.3178,-13.346678 -0.7009,-20.859285 l -0.6966,-13.659286 -3.0746,-1.589926 c -9.4141,-4.868198 -22.4645,-23.276793 -30.2711,-42.69944 -2.47471,-6.157062 -4.74755,-11.442733 -5.05075,-11.745935 -1.37094,-1.3709371 -4.35964,16.891562 -4.30196,26.287205 0.12724,20.72817 8.55557,39.685655 25.08891,56.431371 7.279,7.372546 16.4734,15.035296 18.0405,15.035296 0.534,0 0.9689,-3.24 0.9665,-7.2 z"
         id="path1842" />
      <path
         style="fill:#259362;stroke-width:1.06667"
         d="M 53.589347,713.33333 53.866667,664 103.2,663.72268 l 49.33333,-0.27731 v 49.61064 49.61066 h -5.63643 c -5.39039,0 -5.87931,-0.24593 -11.2,-5.63355 -5.38958,-5.45737 -5.56357,-5.82255 -5.56357,-11.67759 v -6.04404 l 5.2417,-0.32241 5.2417,-0.32241 -2.30837,-4.77821 c -1.58014,-3.27082 -3.14962,-4.96836 -4.97503,-5.38096 l -2.66666,-0.60276 -0.28409,-28.48571 -0.28409,-28.4857 H 103.44924 76.8 v 16 16 l 3.466667,-0.0739 c 2.900788,-0.0618 4.27883,-1.08176 8.442114,-6.24841 5.581184,-6.92629 7.20061,-7.55395 19.424549,-7.52866 9.5389,0.0197 12.19997,1.36533 15.84175,8.01057 3.13867,5.72719 3.7504,9.64522 1.62492,10.40735 -2.32064,0.83209 -4.62154,-1.09836 -6.63744,-5.56884 -1.71934,-3.81274 -2.38087,-4.33142 -5.52455,-4.33142 -4.26276,0 -4.20556,-0.45175 -0.95556,7.54654 1.63407,4.02147 2.89009,9.81822 3.34669,15.44547 l 0.7309,9.00799 8.11998,0.0163 c 4.46599,0.009 8.64812,0.36898 9.29363,0.8 1.17829,0.78676 3.62635,4.89039 3.62635,6.07875 0,0.34943 -6.06862,0.50098 -13.48581,0.33679 -15.53996,-0.344 -14.85222,0.12846 -15.96167,-10.96519 L 107.4058,718.4 l -7.03481,14.71292 c -7.346288,15.36435 -8.188009,16.26761 -14.447317,15.5037 l -2.86743,-0.34995 8.240607,-16.69659 8.240606,-16.69659 -2.476539,-6.62219 -2.476539,-6.62221 -4.049389,4.38545 C 86.93607,709.91215 85.946868,710.4 81.6428,710.4 H 76.8 v 20.49979 20.49979 l 5.563563,5.63354 5.563562,5.63355 H 70.619577 53.312028 Z M 89.6,756.8 83.806208,750.93333 h 4.016533 c 5.09051,0 8.683423,1.89451 13.993739,7.37876 l 4.21648,4.35458 h -5.31959 c -5.034586,0 -5.629977,-0.31431 -11.11337,-5.86667 z M 960,750.93333 C 960,748 960.36,745.6 960.8,745.6 c 0.44,0 0.8,2.4 0.8,5.33333 0,2.93334 -0.36,5.33334 -0.8,5.33334 -0.44,0 -0.8,-2.4 -0.8,-5.33334 z m 33.30945,-29.06666 -0.24278,-22.13334 h -4.8 c -4.08889,0 -4.8,0.31606 -4.8,2.13334 0,1.17333 -0.41344,2.13333 -0.91876,2.13333 -0.50531,0 -0.68935,-1.2 -0.40898,-2.66667 0.46139,-2.41358 1.00732,-2.66666 5.75223,-2.66666 3.27169,0 5.43914,0.51254 5.76565,1.36342 0.28777,0.74989 0.38195,10.94989 0.20931,22.66667 L 993.55223,744 Z m -712.77612,13.11989 v -6.34676 l -6.13333,-0.38488 -6.13333,-0.38487 6.66666,-0.2017 6.66667,-0.20168 V 734.4 c 0,3.81333 -0.24,6.93333 -0.53333,6.93333 -0.29334,0 -0.53334,-2.85604 -0.53334,-6.34677 z m 105.75982,2.93855 c -0.15847,-3.90829 -0.20258,-3.94493 -5.22648,-4.34107 L 376,733.18453 l 5.10014,-0.19226 c 5.61577,-0.2117 6.57024,0.75017 5.8059,5.85096 -0.38669,2.58052 -0.47648,2.44602 -0.61289,-0.91812 z M 480.41444,728 c 0.002,-7.62667 0.17177,-10.60671 0.37756,-6.6223 0.20579,3.98439 0.20426,10.22439 -0.003,13.86666 -0.20766,3.64226 -0.37603,0.38231 -0.37417,-7.24436 z m 150.45448,-16 c 5.3e-4,-16.42667 0.14861,-22.99762 0.32904,-14.60213 0.18044,8.3955 0.18,21.8355 -9.8e-4,29.86666 -0.18097,8.03118 -0.32861,1.16214 -0.32806,-15.26453 z m 30.99775,27.2 c 1.06185,-1.17333 2.17064,-2.13333 2.46398,-2.13333 0.29333,0 -0.33546,0.96 -1.39732,2.13333 -1.06185,1.17333 -2.17064,2.13333 -2.46398,2.13333 -0.29333,0 0.33546,-0.96 1.39732,-2.13333 z m 39.14128,-0.53333 c 0.0218,-1.76 0.2608,-2.35087 0.53124,-1.31304 0.27044,1.03784 0.25266,2.47784 -0.0396,3.2 -0.2922,0.72217 -0.51347,-0.12696 -0.49173,-1.88696 z M 711.70833,720.8 711.46667,699.73333 h -4.76615 -4.76615 l -0.3536,12.26852 -0.35359,12.26851 0.0531,-12.53518 0.053,-12.53518 5.07755,-0.32556 c 3.49539,-0.2241 5.24795,0.1185 5.62439,1.09952 0.30077,0.78379 0.40462,10.53029 0.23079,21.65888 l -0.31607,20.23383 z m 94.85149,17.12511 c -0.15848,-3.90829 -0.20258,-3.94493 -5.22649,-4.34107 l -5.06666,-0.39951 5.10014,-0.19226 c 5.61577,-0.2117 6.57024,0.75017 5.80589,5.85096 -0.38668,2.58052 -0.47648,2.44602 -0.61288,-0.91812 z m 35.24813,0.74156 c 0.0218,-1.76 0.2608,-2.35087 0.53124,-1.31304 0.27044,1.03784 0.25266,2.47784 -0.0396,3.2 -0.2922,0.72217 -0.51347,-0.12696 -0.49173,-1.88696 z M 902.4,737.6509 v -3.68244 l -6.66667,-0.31756 -6.66666,-0.31757 -0.29357,-16.76298 -0.29356,-16.76298 -10.90644,-0.36551 -10.90643,-0.36551 11.2,0.0619 11.2,0.0619 0.29375,16.8 0.29376,16.8 h 6.90624 6.90625 v 4.26666 c 0,2.34667 -0.24,4.26667 -0.53334,4.26667 -0.29333,0 -0.53333,-1.6571 -0.53333,-3.68243 z m 20.6845,-10.18423 c 0,-7.92 0.16792,-11.16 0.37315,-7.2 0.20524,3.96 0.20524,10.44 0,14.4 -0.20523,3.96 -0.37315,0.72 -0.37315,-7.2 z M 934.82388,726.4 c 0,-8.50667 0.16566,-11.98667 0.36813,-7.73333 0.20246,4.25333 0.20246,11.21333 0,15.46666 -0.20247,4.25334 -0.36813,0.77334 -0.36813,-7.73333 z m -502.29055,8.43148 c 0,-2.87731 0.36,-5.23148 0.8,-5.23148 0.44,0 0.8,2.13167 0.8,4.73705 0,2.60537 -0.36,4.95954 -0.8,5.23147 -0.44,0.27194 -0.8,-1.85973 -0.8,-4.73704 z m -223.38245,-0.16481 c -0.0463,-2.78667 0.2994,-5.06667 0.76827,-5.06667 0.46886,0 0.67407,1.8 0.45602,4 -0.61375,6.19248 -1.1316,6.64366 -1.22429,1.06667 z M 400.43199,736.8 398.4,734.4 l 2.4,2.03199 c 2.2554,1.90957 2.88559,2.76801 2.03199,2.76801 -0.20241,0 -1.28241,-1.08 -2.4,-2.4 z m 579.69861,1.06667 C 980.93578,736.84 982.01578,736 982.5306,736 c 0.51484,0 0.89817,0.84 0.85185,1.86667 -0.0535,1.18708 -0.28548,1.36504 -0.63705,0.48881 -0.45181,-1.12603 -0.87506,-1.12603 -2.3158,0 -1.57519,1.23111 -1.60703,1.17906 -0.299,-0.48881 z m -755.84363,-4.73919 c 1.03783,-0.27045 2.47783,-0.25266 3.2,0.0396 0.72216,0.29219 -0.12697,0.51346 -1.88697,0.49172 -1.76,-0.0218 -2.35087,-0.2608 -1.31303,-0.53124 z m 502.88924,-0.0306 c 1.89358,-0.23563 5.25358,-0.23951 7.46667,-0.009 2.21308,0.23091 0.66379,0.4237 -3.44288,0.42844 -4.10667,0.004 -5.91738,-0.18419 -4.02379,-0.41983 z m 24.53334,0 c 1.89358,-0.23563 5.25358,-0.23951 7.46666,-0.009 2.21308,0.23091 0.66379,0.4237 -3.44288,0.42844 -4.10666,0.004 -5.91737,-0.18419 -4.02378,-0.41983 z m 115.2,0 c 1.89358,-0.23563 5.25358,-0.23951 7.46666,-0.009 2.21308,0.23091 0.66379,0.4237 -3.44288,0.42844 -4.10666,0.004 -5.91737,-0.18419 -4.02378,-0.41983 z M 973.6,732.09357 c 0.73333,-0.29591 1.93333,-0.29591 2.66667,0 0.73333,0.2959 0.13333,0.53801 -1.33334,0.53801 -1.46666,0 -2.06666,-0.24211 -1.33333,-0.53801 z m -531.75253,-3.56024 c 0,-2.05333 0.21952,-2.89333 0.48782,-1.86666 0.26828,1.02666 0.26828,2.70666 0,3.73333 -0.2683,1.02667 -0.48782,0.18667 -0.48782,-1.86667 z m 11.65428,0 c 0,-1.46666 0.24211,-2.06666 0.53802,-1.33333 0.2959,0.73333 0.2959,1.93333 0,2.66667 C 453.74386,730.6 453.50175,730 453.50175,728.53333 Z M 359.90942,710.4 c 0,-10.85333 0.1584,-15.29333 0.35199,-9.86667 0.19359,5.42667 0.19359,14.30667 0,19.73334 -0.19359,5.42666 -0.35199,0.98666 -0.35199,-9.86667 z m 420.26667,0 c 0,-10.85333 0.1584,-15.29333 0.35198,-9.86667 0.19359,5.42667 0.19359,14.30667 0,19.73334 -0.19358,5.42666 -0.35198,0.98666 -0.35198,-9.86667 z m -112.23481,14.4 c 0.0218,-1.76 0.2608,-2.35087 0.53124,-1.31303 0.27045,1.03783 0.25266,2.47783 -0.0396,3.2 -0.29219,0.72216 -0.51346,-0.12697 -0.49172,-1.88697 z M 370.58483,704.53333 c 8.8e-4,-12.32 0.15614,-17.21391 0.34505,-10.87536 0.18891,6.33855 0.1882,16.41855 -0.001,22.4 -0.18978,5.98145 -0.34434,0.79536 -0.34347,-11.52464 z m 585.35645,19.2 c 0.0218,-1.76 0.2608,-2.35087 0.53124,-1.31303 0.27045,1.03783 0.25266,2.47783 -0.0396,3.2 -0.29219,0.72216 -0.51346,-0.12697 -0.49172,-1.88697 z m -380.73895,-3.2 c 0.0118,-2.34666 0.23028,-3.18106 0.48541,-1.85423 0.25514,1.32684 0.24545,3.24684 -0.0215,4.26667 -0.26698,1.01983 -0.47574,-0.0658 -0.4639,-2.41244 z m 82.13333,0 c 0.0118,-2.34666 0.23028,-3.18106 0.48542,-1.85423 0.25513,1.32684 0.24545,3.24684 -0.0216,4.26667 -0.26698,1.01983 -0.47573,-0.0658 -0.46389,-2.41244 z M 790.8482,703.46667 c -9.5e-4,-11.73334 0.1549,-16.67887 0.34632,-10.99007 0.19141,5.68879 0.19219,15.28879 0.002,21.33333 -0.19047,6.04453 -0.34709,1.39007 -0.34803,-10.34326 z m 51.02079,17.06666 c 0.0118,-2.34666 0.23028,-3.18106 0.48542,-1.85423 0.25514,1.32684 0.24545,3.24684 -0.0216,4.26667 -0.26697,1.01983 -0.47573,-0.0658 -0.46389,-2.41244 z m -446.99438,0 c 0.0218,-1.76 0.2608,-2.35087 0.53125,-1.31303 0.27044,1.03783 0.25266,2.47783 -0.0396,3.2 -0.29219,0.72216 -0.51346,-0.12697 -0.49172,-1.88697 z m 420.26667,0 c 0.0218,-1.76 0.2608,-2.35087 0.53124,-1.31303 0.27045,1.03783 0.25266,2.47783 -0.0396,3.2 -0.29219,0.72216 -0.51346,-0.12697 -0.49172,-1.88697 z M 966.64747,720 c 0,-2.05333 0.21952,-2.89333 0.48782,-1.86667 0.26828,1.02667 0.26828,2.70667 0,3.73334 -0.2683,1.02666 -0.48782,0.18666 -0.48782,-1.86667 z m -502.9017,1.37892 c 1.32684,-0.25513 3.24684,-0.24545 4.26667,0.0216 1.01983,0.26698 -0.0658,0.47573 -2.41244,0.46389 -2.34667,-0.0118 -3.18107,-0.23028 -1.85423,-0.48542 z m 204.19551,-5.11225 c 0.0218,-1.76 0.2608,-2.35087 0.53124,-1.31304 0.27045,1.03784 0.25266,2.47784 -0.0396,3.2 -0.29219,0.72217 -0.51346,-0.12696 -0.49172,-1.88696 z m 288,0 c 0.0218,-1.76 0.2608,-2.35087 0.53124,-1.31304 0.27045,1.03784 0.25266,2.47784 -0.0396,3.2 -0.29219,0.72217 -0.51346,-0.12696 -0.49172,-1.88696 z M 221.6,716.04722 c 1.32,-0.25425 3.48,-0.25425 4.8,0 1.32,0.25424 0.24,0.46226 -2.4,0.46226 -2.64,0 -3.72,-0.20802 -2.4,-0.46226 z m 234.66667,-2.08699 c 0.73333,-0.2959 1.93333,-0.2959 2.66666,0 0.73334,0.29591 0.13334,0.53802 -1.33333,0.53802 -1.46667,0 -2.06667,-0.24211 -1.33333,-0.53802 z m -10.31579,-8.6269 c 0.0927,-5.57699 0.61054,-5.12581 1.22429,1.06667 0.21805,2.2 0.0128,4 -0.45602,4 -0.46887,0 -0.81458,-2.28 -0.76827,-5.06667 z m 280.86943,1.42344 c -0.31867,-0.83044 -0.42361,-2.87044 -0.23318,-4.53334 l 0.3462,-3.02343 10.93563,-0.0589 10.93563,-0.0589 -10.66896,0.36289 -10.66896,0.36289 v 3.64027 c 0,3.63059 0.0149,3.64132 5.6,4.03204 l 5.6,0.39177 -5.63348,0.19731 c -4.01406,0.14058 -5.80004,-0.23673 -6.21288,-1.31259 z M 869.6,707.50267 c 1.61333,-0.24441 4.25333,-0.24441 5.86667,0 1.61333,0.24439 0.29333,0.44436 -2.93334,0.44436 -3.22666,0 -4.54666,-0.19997 -2.93333,-0.44436 z m -647.98756,-1.05708 c 1.32683,-0.25514 3.24683,-0.24545 4.26666,0.0215 1.01983,0.26697 -0.0658,0.47573 -2.41243,0.46389 -2.34667,-0.0118 -3.18107,-0.23028 -1.85423,-0.48542 z m 235.72089,0.048 c 0.73334,-0.2959 1.93334,-0.2959 2.66667,0 0.73333,0.2959 0.13333,0.53802 -1.33333,0.53802 -1.46667,0 -2.06667,-0.24212 -1.33334,-0.53802 z m 97.06667,0 c 0.73333,-0.2959 1.93333,-0.2959 2.66667,0 0.73333,0.2959 0.13333,0.53802 -1.33334,0.53802 -1.46666,0 -2.06666,-0.24212 -1.33333,-0.53802 z M 400.53333,704 c 1.06186,-1.17333 2.17065,-2.13333 2.46398,-2.13333 0.29334,0 -0.33545,0.96 -1.39731,2.13333 -1.06186,1.17333 -2.17065,2.13333 -2.46398,2.13333 -0.29333,0 0.33546,-0.96 1.39731,-2.13333 z m 438.8526,-1.85904 c -2.2342,-2.52775 -2.26495,-2.6553 -0.22611,-0.93771 l 2.35982,1.98799 0.35027,-10.52895 0.35027,-10.52896 0.22324,11.46667 c 0.12279,6.30667 0.0669,11.46667 -0.12416,11.46667 -0.19106,0 -1.51106,-1.31657 -2.93333,-2.92571 z m 83.28074,0.37774 c 0,-2.44266 -0.46171,-2.70977 -5.33937,-3.08898 l -5.33936,-0.4151 5.48904,0.0927 c 4.652,0.0786 5.62174,0.4535 6.35911,2.45874 0.50274,1.36716 0.43954,2.63213 -0.14969,2.99629 -0.56085,0.34662 -1.01973,-0.57302 -1.01973,-2.04364 z M 661.76532,701.6 l -2.03199,-2.4 2.4,2.03199 c 2.25541,1.90957 2.88559,2.76801 2.03199,2.76801 -0.20241,0 -1.28241,-1.08 -2.4,-2.4 z M 493.86667,699.73333 488,699.01439 l 5.53705,-0.17386 c 3.04537,-0.0957 5.8337,0.30614 6.19628,0.8928 0.36258,0.58667 0.51092,0.98843 0.32962,0.8928 -0.18129,-0.0956 -2.96962,-0.49738 -6.19628,-0.8928 z m 28.8,0 -5.86667,-0.71894 6.13333,-0.17386 c 3.49369,-0.099 6.13334,0.28521 6.13334,0.8928 0,0.58667 -0.12,0.98843 -0.26667,0.8928 -0.14667,-0.0956 -2.90667,-0.49738 -6.13333,-0.8928 z M 680.8,698.96933 c 1.61333,-0.2444 4.25333,-0.2444 5.86667,0 1.61333,0.2444 0.29333,0.44437 -2.93334,0.44437 -3.22666,0 -4.54666,-0.19997 -2.93333,-0.44437 z m -266.64637,-1.04185 c 1.03784,-0.27045 2.47784,-0.25266 3.2,0.0396 0.72217,0.29219 -0.12696,0.51346 -1.88696,0.49172 -1.76,-0.0218 -2.35087,-0.2608 -1.31304,-0.53124 z M 554.4,697.96022 c 0.73333,-0.2959 1.93333,-0.2959 2.66667,0 0.73333,0.29591 0.13333,0.53802 -1.33334,0.53802 -1.46666,0 -2.06666,-0.24211 -1.33333,-0.53802 z m 416,0 c 0.73333,-0.2959 1.93333,-0.2959 2.66667,0 0.73333,0.29591 0.13333,0.53802 -1.33334,0.53802 -1.46666,0 -2.06666,-0.24211 -1.33333,-0.53802 z M 888.87474,684.8 c 0,-3.81333 0.1936,-5.37333 0.43022,-3.46667 0.23661,1.90667 0.23661,5.02667 0,6.93334 -0.23662,1.90666 -0.43022,0.34666 -0.43022,-3.46667 z m -799.0374,2.60619 c -1.656234,-1.16008 -2.370673,-2.74913 -2.370673,-5.27286 0,-6.42264 7.121294,-9.17595 11.547398,-4.46458 2.895855,3.08249 2.920245,5.01287 0.108516,8.5874 -2.50215,3.18097 -5.802139,3.5897 -9.285241,1.15004 z M 223.2,684.036 c 1.61333,-0.24441 4.25333,-0.24441 5.86667,0 1.61333,0.24439 0.29333,0.44436 -2.93334,0.44436 -3.22666,0 -4.54666,-0.19997 -2.93333,-0.44436 z m -111.73683,-72.54213 8.0035,-0.38361 V 582.35514 553.6 l 8.26666,0.21195 8.26667,0.21193 -7.716,0.36778 -7.716,0.36776 -0.284,28.48696 -0.284,28.48695 -8.27017,0.0721 -8.27017,0.0721 8.00351,-0.38361 z m 249.87016,-9.53364 c 0.73334,-0.2959 1.93334,-0.2959 2.66667,0 0.73333,0.29591 0.13333,0.53802 -1.33333,0.53802 -1.46667,0 -2.06667,-0.24211 -1.33334,-0.53802 z m 8.0203,-0.0327 c 1.03784,-0.27044 2.47784,-0.25266 3.2,0.0396 0.72217,0.29219 -0.12696,0.51346 -1.88696,0.49172 -1.76,-0.0218 -2.35087,-0.2608 -1.31304,-0.53124 z m 179.30262,-10.46082 c 0.003,-5.86667 0.18189,-8.13058 0.39804,-5.03092 0.21616,3.09967 0.21389,7.89967 -0.005,10.66667 -0.21865,2.767 -0.39549,0.23091 -0.39271,-5.63575 z M 364,593.39805 c 1.02667,-0.26829 2.70667,-0.26829 3.73333,0 1.02667,0.2683 0.18667,0.48782 -1.86666,0.48782 -2.05334,0 -2.89334,-0.21952 -1.86667,-0.48782 z M 53.826925,537.6 c 0,-28.45333 0.137476,-40.09333 0.305502,-25.86667 0.168025,14.22667 0.168025,37.50667 0,51.73334 -0.168026,14.22666 -0.305502,2.58666 -0.305502,-25.86667 z m 99.199995,0 c 0,-28.45333 0.13749,-40.09333 0.30551,-25.86667 0.16802,14.22667 0.16802,37.50667 0,51.73334 -0.16802,14.22666 -0.30551,2.58666 -0.30551,-25.86667 z m -82.842939,49.33893 c 4.867855,-0.1981 12.547855,-0.19699 17.066666,0.002 4.518811,0.19944 0.53602,0.36152 -8.850647,0.36017 -9.386667,-10e-4 -13.083875,-0.16454 -8.216019,-0.36263 z M 132,586.95227 c 2.49333,-0.22457 6.57333,-0.22457 9.06667,0 2.49333,0.22457 0.45333,0.40832 -4.53334,0.40832 -4.98666,0 -7.02666,-0.18375 -4.53333,-0.40832 z m 511.48697,0.0418 c 1.03783,-0.27044 2.47783,-0.25266 3.2,0.0396 0.72216,0.2922 -0.12697,0.51346 -1.88697,0.49173 -1.76,-0.0218 -2.35087,-0.2608 -1.31303,-0.53125 z m 6.91303,0.0327 c 0.73333,-0.29591 1.93333,-0.29591 2.66667,0 0.73333,0.2959 0.13333,0.53801 -1.33334,0.53801 -1.46666,0 -2.06666,-0.24211 -1.33333,-0.53801 z M 209.06667,581.5329 c 0,-4.43819 0.4697,-5.55825 3.46666,-8.26667 l 3.46667,-3.1329 -2.93333,3.25837 c -2.21038,2.45531 -2.93334,4.35491 -2.93334,7.70754 v 4.44918 L 228,585.86848 l 17.86667,0.32005 -18.4,0.23908 -18.4,0.23906 z m 65.28377,4.34699 6.08378,-0.3834 0.37736,-6.61491 0.37737,-6.61491 0.20552,7.2 0.20553,7.2 -6.66667,-0.20169 -6.66666,-0.20169 z m 122.62887,-3.74656 0.17931,-4.53333 0.41841,4 0.41842,4 h 18.53788 18.53789 l 0.41841,-4 0.41841,-4 0.17932,4.53333 0.17931,4.53334 H 416.53333 396.8 Z m 70.48736,3.7563 c 2.2,-0.23012 5.8,-0.23012 8,0 2.2,0.23014 0.4,0.41841 -4,0.41841 -4.4,0 -6.2,-0.18827 -4,-0.41841 z m 142.93333,0.013 c 1.61333,-0.24441 4.25333,-0.24441 5.86667,0 1.61333,0.24439 0.29333,0.44436 -2.93334,0.44436 -3.22666,0 -4.54666,-0.19997 -2.93333,-0.44436 z m 73.03521,0.0111 5.56853,-0.42304 0.3499,-13.54536 0.3499,-13.54534 -0.0517,13.86667 -0.0517,13.86666 -5.86666,0.10176 -5.86667,0.10176 5.56855,-0.42305 z m 20.83146,-0.0111 c 1.61333,-0.24441 4.25333,-0.24441 5.86666,0 1.61334,0.24439 0.29334,0.44436 -2.93333,0.44436 -3.22667,0 -4.54667,-0.19997 -2.93333,-0.44436 z M 386.58154,564.8 c -9.5e-4,-11.73333 0.1549,-16.67887 0.34631,-10.99007 0.19141,5.68879 0.19219,15.28879 0.002,21.33333 -0.19047,6.04454 -0.34709,1.39007 -0.34803,-10.34326 z m 218.86481,18.50447 c 1.11118,-1.55587 2.23365,-2.62254 2.49439,-2.37037 0.26074,0.25217 -0.6484,1.52516 -2.02031,2.82887 l -2.4944,2.37036 z M 411.07772,565.33333 c 0,-7.33333 0.17042,-10.33333 0.37871,-6.66666 0.20828,3.66666 0.20828,9.66666 0,13.33333 -0.20829,3.66667 -0.37871,0.66667 -0.37871,-6.66667 z m -189.21105,10.90664 c 0,-0.45468 3.72,-4.41468 8.26666,-8.8 l 8.26667,-7.9733 -7.93542,8.22853 -7.93543,8.22852 11.66876,0.34493 11.66876,0.34494 -12,0.22654 c -6.6,0.1246 -12,-0.14547 -12,-0.60016 z m 231.63508,-1.30664 c 0,-1.46666 0.24211,-2.06666 0.53802,-1.33333 0.2959,0.73333 0.2959,1.93333 0,2.66667 C 453.74386,577 453.50175,576.4 453.50175,574.93333 Z M 464.39462,563.2 c 0,-6.16 0.1763,-8.68 0.39177,-5.6 0.21547,3.08 0.21547,8.12 0,11.2 -0.21547,3.08 -0.39177,0.56 -0.39177,-5.6 z m 131.22624,-4.8 c 0.002,-8.21333 0.1691,-11.43233 0.37209,-7.15333 0.20299,4.27899 0.20162,10.99899 -0.003,14.93333 -0.20447,3.93434 -0.37055,0.43333 -0.36889,-7.78 z m -47.04912,6.4 c 0.009,-2.93333 0.21517,-4.00673 0.46035,-2.38533 0.24518,1.62139 0.23862,4.02139 -0.0145,5.33333 -0.25319,1.31194 -0.45378,-0.0146 -0.44578,-2.948 z m -188.81456,-0.53333 c 0,-2.64 0.20803,-3.72 0.46227,-2.4 0.25425,1.32 0.25425,3.48 0,4.8 -0.25424,1.32 -0.46227,0.24 -0.46227,-2.4 z m -136.82385,-2.46711 c 0,-0.18357 1.56,-1.74357 3.46667,-3.46666 l 3.46667,-3.1329 -3.1329,3.46667 c -2.9203,3.23142 -3.80044,3.95696 -3.80044,3.13289 z m 408.7808,-6.06623 c 0,-2.05333 0.21952,-2.89333 0.48782,-1.86666 0.26829,1.02666 0.26829,2.70666 0,3.73333 -0.2683,1.02667 -0.48782,0.18667 -0.48782,-1.86667 z M 91.494862,553.88427 c 2.50884,-0.22533 6.34884,-0.22216 8.533338,0.007 2.18449,0.2292 0.1318,0.41356 -4.561533,0.40969 -4.693334,-0.004 -6.480646,-0.1914 -3.971805,-0.41674 z m 571.210218,-4.0176 c 0.009,-2.93334 0.21517,-4.00673 0.46034,-2.38534 0.24518,1.6214 0.23862,4.0214 -0.0145,5.33334 -0.25318,1.31193 -0.45378,-0.0146 -0.44578,-2.948 z m -13.88478,0.86081 c 1.03783,-0.27045 2.47783,-0.25266 3.2,0.0396 0.72216,0.29219 -0.12697,0.51346 -1.88697,0.49172 -1.76,-0.0218 -2.35087,-0.2608 -1.31303,-0.53124 z m -100.34569,-4.06081 c 0.0218,-1.76 0.2608,-2.35087 0.53125,-1.31304 0.27044,1.03784 0.25266,2.47784 -0.0396,3.2 -0.29219,0.72217 -0.51346,-0.12696 -0.49172,-1.88696 z m 140.59206,-7.94426 v -10.61092 l -5.6,-0.42414 -5.6,-0.42414 5.86666,0.10176 5.86667,0.10176 0.30797,9.963 c 0.28496,9.21856 0.44436,9.85754 2.13333,8.55171 1.4013,-1.08341 1.35329,-0.85798 -0.20662,0.97034 -1.11759,1.30982 -2.19759,2.38155 -2.4,2.38155 -0.2024,0 -0.36801,-4.77491 -0.36801,-10.61092 z m -224.73614,-0.58908 c 0.006,-3.52 0.20512,-4.8314 0.44252,-2.91423 0.23739,1.91718 0.2325,4.79718 -0.0109,6.4 -0.2434,1.60283 -0.43763,0.0342 -0.43164,-3.48577 z m -253.89212,-1.06666 c 0.009,-2.93334 0.21517,-4.00673 0.46034,-2.38534 0.24519,1.6214 0.23863,4.0214 -0.0145,5.33334 -0.25319,1.31193 -0.45379,-0.0147 -0.44579,-2.948 z m 200.44402,-7.2 L 411.2,523.2 l 4.8,-0.0872 4.8,-0.0871 -4.53333,0.41223 -4.53334,0.41224 v 5.75248 5.75248 l 5.6,0.39176 5.6,0.39177 -6.18423,0.19731 -6.18423,0.19731 0.31756,-6.66667 z M 82.339233,520.86641 c 3.58476,-0.41371 3.978761,-0.78592 4.378501,-4.1364 0.434094,-3.63845 0.437951,-3.63459 0.327434,0.32743 -0.109493,3.9253 -0.201147,4.01189 -4.378501,4.13641 L 78.4,521.32103 Z m 4.351289,-20.59974 c 0,-2.64 0.208017,-3.72 0.46226,-2.4 0.254243,1.32 0.254243,3.48 0,4.8 -0.254243,1.32 -0.46226,0.24 -0.46226,-2.4 z M 88.8,487.73495 c 10.413333,-0.17463 27.45333,-0.17463 37.86667,0 10.41333,0.17464 1.89333,0.31753 -18.93334,0.31753 -20.826663,0 -29.346663,-0.14289 -18.93333,-0.31753 z M 56,482.13333 C 57.061852,480.96 58.17064,480 58.463973,480 c 0.293334,0 -0.335455,0.96 -1.397306,2.13333 -1.061852,1.17334 -2.17064,2.13334 -2.463974,2.13334 -0.293333,0 0.335455,-0.96 1.397307,-2.13334 z m 191.77174,-56 c 0.009,-2.93333 0.21517,-4.00673 0.46035,-2.38533 0.24518,1.6214 0.23862,4.0214 -0.0145,5.33333 -0.25319,1.31194 -0.45378,-0.0147 -0.44578,-2.948 z M 280.88335,424 c 0.004,-4.10667 0.19752,-5.65596 0.42844,-3.44288 0.2309,2.21309 0.22703,5.57309 -0.009,7.46667 -0.23563,1.89359 -0.42456,0.0829 -0.41983,-4.02379 z m 82.04998,6.19805 c 1.02667,-0.26829 2.70667,-0.26829 3.73334,0 1.02666,0.2683 0.18666,0.48782 -1.86667,0.48782 -2.05333,0 -2.89333,-0.21952 -1.86667,-0.48782 z m 34.15719,-3.53138 c 0,-2.64 0.20802,-3.72 0.46226,-2.4 0.25425,1.32 0.25425,3.48 0,4.8 -0.25424,1.32 -0.46226,0.24 -0.46226,-2.4 z m 38.4,0 c 0,-2.64 0.20802,-3.72 0.46226,-2.4 0.25425,1.32 0.25425,3.48 0,4.8 -0.25424,1.32 -0.46226,0.24 -0.46226,-2.4 z M 637.22388,416 c 0,-8.50667 0.16566,-11.98667 0.36813,-7.73333 0.20246,4.25333 0.20246,11.21333 0,15.46666 -0.20247,4.25334 -0.36813,0.77334 -0.36813,-7.73333 z m 16.00544,-1.06667 c 0,-9.09333 0.1636,-12.81333 0.36354,-8.26666 0.19995,4.54666 0.19995,11.98666 0,16.53333 -0.19994,4.54667 -0.36354,0.82667 -0.36354,-8.26667 z m 30.93334,0 c 0,-9.09333 0.16359,-12.81333 0.36354,-8.26666 0.19994,4.54666 0.19994,11.98666 0,16.53333 -0.19995,4.54667 -0.36354,0.82667 -0.36354,-8.26667 z m 22.4,0 c 0,-9.09333 0.16359,-12.81333 0.36354,-8.26666 0.19994,4.54666 0.19994,11.98666 0,16.53333 -0.19995,4.54667 -0.36354,0.82667 -0.36354,-8.26667 z m 99.06119,11.73334 c 0,-2.64 0.20802,-3.72 0.46226,-2.4 0.25425,1.32 0.25425,3.48 0,4.8 -0.25424,1.32 -0.46226,0.24 -0.46226,-2.4 z m -419.24946,-16.74426 -0.24106,-20.47759 -5.6,-0.39176 -5.6,-0.39177 5.63348,-0.19731 c 3.75131,-0.13139 5.80882,0.25963 6.1583,1.17033 0.28864,0.75222 0.38206,10.23222 0.20757,21.06667 L 386.61546,430.4 Z M 571.2,424.43148 c 0,-2.87731 0.36,-5.23148 0.8,-5.23148 0.44,0 0.8,2.13167 0.8,4.73705 0,2.60537 -0.36,4.95954 -0.8,5.23147 -0.44,0.27194 -0.8,-1.85973 -0.8,-4.73704 z m -160.30679,-13.97304 -0.22654,-12.47489 -5.06667,-0.39951 -5.06667,-0.39951 5.10014,-0.19226 c 6.3086,-0.23783 6.26356,-0.3481 5.83117,14.27628 l -0.3449,11.66478 z m 42.60854,9.80823 c 0,-1.46667 0.24211,-2.06667 0.53802,-1.33334 0.2959,0.73334 0.2959,1.93334 0,2.66667 -0.29591,0.73333 -0.53802,0.13333 -0.53802,-1.33333 z M 224.43869,403.2 c 0,-10.26667 0.15998,-14.46667 0.35552,-9.33333 0.19553,5.13333 0.19553,13.53333 0,18.66666 -0.19554,5.13334 -0.35552,0.93334 -0.35552,-9.33333 z m 240.03871,4.8 0.0559,-10.66667 6.93333,-0.073 6.93334,-0.073 -6.62988,0.38751 -6.62989,0.38751 -0.35938,10.3521 -0.35939,10.3521 0.0559,-10.66666 z m 128.75768,4.8 c 0,-1.46667 0.24211,-2.06667 0.53802,-1.33333 0.2959,0.73333 0.2959,1.93333 0,2.66666 -0.29591,0.73334 -0.53802,0.13334 -0.53802,-1.33333 z m 27.73334,0 c 0,-1.46667 0.24211,-2.06667 0.53801,-1.33333 0.29591,0.73333 0.29591,1.93333 0,2.66666 -0.2959,0.73334 -0.53801,0.13334 -0.53801,-1.33333 z m -261.21124,-3.2 c 0,-2.64 0.20803,-3.72 0.46227,-2.4 0.25425,1.32 0.25425,3.48 0,4.8 -0.25424,1.32 -0.46227,0.24 -0.46227,-2.4 z M 113.6,410.66667 c 1.06186,-1.17334 2.17065,-2.13334 2.46398,-2.13334 0.29333,0 -0.33546,0.96 -1.39731,2.13334 -1.06186,1.17333 -2.17065,2.13333 -2.46398,2.13333 -0.29334,0 0.33545,-0.96 1.39731,-2.13333 z m 496.74128,-0.53334 c 0.0218,-1.76 0.2608,-2.35087 0.53124,-1.31303 0.27045,1.03783 0.25266,2.47783 -0.0396,3.2 -0.29219,0.72216 -0.51346,-0.12697 -0.49172,-1.88697 z m -17.1062,-2.66666 c 0,-1.46667 0.24211,-2.06667 0.53802,-1.33334 0.2959,0.73334 0.2959,1.93334 0,2.66667 -0.29591,0.73333 -0.53802,0.13333 -0.53802,-1.33333 z m 27.77287,-0.53334 c 0.0218,-1.76 0.2608,-2.35087 0.53124,-1.31303 0.27044,1.03783 0.25266,2.47783 -0.0396,3.2 -0.2922,0.72216 -0.51347,-0.12697 -0.49173,-1.88697 z M 53.683349,399.46667 c 0.0047,-4.10667 0.197529,-5.65596 0.428436,-3.44288 0.230907,2.21308 0.227035,5.57308 -0.0086,7.46666 -0.23564,1.89359 -0.424564,0.0829 -0.419832,-4.02378 z m 99.200001,0 c 0.004,-4.10667 0.19752,-5.65596 0.42844,-3.44288 0.2309,2.21308 0.22703,5.57308 -0.009,7.46666 -0.23563,1.89359 -0.42456,0.0829 -0.41983,-4.02378 z m -65.147688,0 c 0.01184,-2.34667 0.230277,-3.18107 0.485416,-1.85423 0.25514,1.32683 0.245453,3.24683 -0.02153,4.26666 -0.266979,1.01983 -0.47573,-0.0658 -0.463891,-2.41243 z m 30.933328,0 c 0.0118,-2.34667 0.23028,-3.18107 0.48542,-1.85423 0.25514,1.32683 0.24545,3.24683 -0.0216,4.26666 -0.26697,1.01983 -0.47573,-0.0658 -0.46389,-2.41243 z M 659.36842,400 c 0,-1.46667 0.24211,-2.06667 0.53801,-1.33333 0.29591,0.73333 0.29591,1.93333 0,2.66666 -0.2959,0.73334 -0.53801,0.13334 -0.53801,-1.33333 z m -87.34457,-4.26667 c 0,-2.64 0.20802,-3.72 0.46226,-2.4 0.25425,1.32 0.25425,3.48 0,4.8 -0.25424,1.32 -0.46226,0.24 -0.46226,-2.4 z m 142.81123,2.13334 c 0,-1.46667 0.24211,-2.06667 0.53802,-1.33334 0.2959,0.73334 0.2959,1.93334 0,2.66667 -0.29591,0.73333 -0.53802,0.13333 -0.53802,-1.33333 z m -269.76841,-0.764 c 1.61333,-0.24441 4.25333,-0.24441 5.86666,0 1.61334,0.24439 0.29334,0.44436 -2.93333,0.44436 -3.22667,0 -4.54667,-0.19997 -2.93333,-0.44436 z m 281.75364,-0.7459 c -0.31867,-0.83044 -0.42361,-2.87044 -0.23318,-4.53334 l 0.3462,-3.02343 10.93563,-0.0589 10.93563,-0.0589 -10.66896,0.36289 -10.66896,0.36289 v 3.64027 c 0,3.63059 0.0149,3.64132 5.6,4.03204 l 5.6,0.39177 -5.63348,0.19731 c -4.01406,0.14058 -5.80004,-0.23673 -6.21288,-1.31259 z m 42.66667,0 c -0.31867,-0.83044 -0.42361,-2.87044 -0.23319,-4.53334 0.33175,-2.8971 0.59133,-3.02768 6.21288,-3.12516 l 5.86666,-0.10176 -5.6,0.42414 c -5.57278,0.42208 -5.6,0.44174 -5.6,4.04598 0,3.60836 0.0209,3.62331 5.6,4.01362 l 5.6,0.39176 -5.63347,0.19731 c -4.01407,0.14059 -5.80004,-0.23672 -6.21288,-1.31258 z m 29.17969,0.73411 6.66666,-0.38835 v -3.63586 -3.63586 l -7.2,-0.37316 -7.2,-0.37315 7.79467,-0.20892 7.79467,-0.20891 -0.328,4.53333 -0.328,4.53333 -6.93334,0.073 -6.93333,0.073 6.66667,-0.38834 z M 544,393.06667 C 545.37787,391.6 546.74521,390.4 547.03854,390.4 c 0.29333,0 -0.59401,1.2 -1.97187,2.66667 -1.37787,1.46666 -2.74521,2.66666 -3.03854,2.66666 -0.29334,0 0.594,-1.2 1.97187,-2.66666 z m 91.73333,-2.06894 c 0,-0.98899 -1.42386,-1.68456 -4,-1.95403 l -4,-0.41841 4.53334,-0.17932 c 3.88199,-0.15354 4.53333,0.12721 4.53333,1.95403 0,1.17333 -0.24,2.13333 -0.53333,2.13333 -0.29334,0 -0.53334,-0.69103 -0.53334,-1.5356 z m 46.93334,-0.0644 c 0,-1.10936 -1.2266,-1.64901 -4,-1.75982 -3.36375,-0.1344 -3.51909,-0.23189 -0.97657,-0.61288 1.66289,-0.24917 3.82289,-0.10101 4.8,0.32916 0.97711,0.43023 2.21781,0.67894 2.75712,0.5527 0.53931,-0.12624 0.36053,0.51755 -0.39727,1.43066 -1.7223,2.07523 -2.18328,2.08795 -2.18328,0.0602 z M 91.733333,388.8 c 1.377862,-1.46667 2.745204,-2.66667 3.038537,-2.66667 0.293333,0 -0.594009,1.2 -1.97187,2.66667 -1.377861,1.46667 -2.745203,2.66667 -3.038537,2.66667 -0.293333,0 0.594009,-1.2 1.97187,-2.66667 z m 21.765327,-0.8 -2.03199,-2.4 2.4,2.03199 c 2.2554,1.90957 2.88559,2.76801 2.03199,2.76801 -0.20241,0 -1.28241,-1.08 -2.4,-2.4 z m 292.14028,0.54391 c 3.39476,-0.21232 8.67476,-0.21034 11.73334,0.004 3.05858,0.21473 0.28105,0.38845 -6.17228,0.38604 -6.45333,-0.002 -8.95581,-0.17809 -5.56106,-0.39041 z m 39.42773,0.0254 c 1.61333,-0.2444 4.25333,-0.2444 5.86666,0 1.61334,0.2444 0.29334,0.44436 -2.93333,0.44436 -3.22667,0 -4.54667,-0.19996 -2.93333,-0.44436 z m 19.36938,-0.70486 c -0.31,-0.80787 -0.38146,-3.80787 -0.15878,-6.66667 l 0.40486,-5.1978 0.19227,6.0846 0.19227,6.08459 7.2,0.37315 7.2,0.37316 -7.23348,0.20891 c -5.30795,0.15331 -7.38352,-0.18209 -7.79714,-1.25994 z m -101.48242,-0.33699 c 1.03784,-0.27045 2.47784,-0.25267 3.2,0.0396 0.72217,0.29219 -0.12696,0.51346 -1.88696,0.49172 -1.76,-0.0218 -2.35087,-0.2608 -1.31304,-0.53124 z m 193.5797,-0.0136 c 1.32,-0.25425 3.48,-0.25425 4.8,0 1.32,0.25424 0.24,0.46226 -2.4,0.46226 -2.64,0 -3.72,-0.20802 -2.4,-0.46226 z m 43.2,0.0175 c 1.02667,-0.26829 2.70667,-0.26829 3.73334,0 1.02666,0.2683 0.18666,0.48782 -1.86667,0.48782 -2.05333,0 -2.89333,-0.21952 -1.86667,-0.48782 z m 43.2,0.0288 c 0.73334,-0.2959 1.93334,-0.2959 2.66667,0 0.73333,0.29591 0.13333,0.53802 -1.33333,0.53802 -1.46667,0 -2.06667,-0.24211 -1.33334,-0.53802 z m 14.93334,0 c 0.73333,-0.2959 1.93333,-0.2959 2.66666,0 0.73334,0.29591 0.13334,0.53802 -1.33333,0.53802 -1.46667,0 -2.06667,-0.24211 -1.33333,-0.53802 z m 46.93333,0 c 0.73333,-0.2959 1.93333,-0.2959 2.66667,0 0.73333,0.29591 0.13333,0.53802 -1.33334,0.53802 -1.46666,0 -2.06666,-0.24211 -1.33333,-0.53802 z M 411.00807,374.4 c 0,-3.81333 0.1936,-5.37333 0.43022,-3.46667 0.23661,1.90667 0.23661,5.02667 0,6.93334 -0.23662,1.90666 -0.43022,0.34666 -0.43022,-3.46667 z"
         id="path1840" />
      <path
         style="fill:#060606;stroke-width:1.06667"
         d="m 964.26667,756.3845 c -2.24434,-0.61958 -2.7197,-1.46961 -3.00152,-5.36729 -0.29834,-4.12624 -0.12392,-4.54062 1.6,-3.80106 3.78073,1.62195 14.64138,1.82002 16.66164,0.30387 1.81385,-1.36124 4.58187,-10.16691 3.5274,-11.22139 -0.26757,-0.26757 -1.93066,0.58124 -3.69576,1.88623 -2.01182,1.48741 -4.74389,2.37272 -7.32221,2.37272 -10.16969,0 -15.46803,-7.25695 -15.41368,-21.1116 0.0496,-12.64239 5.62616,-20.77931 14.24095,-20.77931 4.36213,0 10.46984,2.50499 10.46984,4.29406 0,0.5716 0.48,1.03927 1.06667,1.03927 0.58667,0 1.06667,-0.96 1.06667,-2.13333 0,-1.81728 0.71111,-2.13334 4.8,-2.13334 h 4.8 v 23.0388 c 0,26.76156 -0.59688,29.21414 -7.91909,32.53975 -4.44595,2.01928 -15.41146,2.58256 -20.88091,1.07262 z m 13.28554,-24.24709 c 4.98681,-1.91362 6.76965,-16.87313 2.63704,-22.12689 -6.664,-8.47191 -16.10882,2.74728 -12.76544,15.16363 1.59676,5.92994 5.61757,8.69422 10.1284,6.96326 z m -762.88554,9.0806 c -4.51273,-1.07199 -4.53334,-1.09899 -4.53334,-5.93852 0,-4.5362 0.16065,-4.81518 2.4,-4.16766 17.01399,4.91969 25.47598,1.30159 22.71199,-9.71101 -0.7701,-3.06832 -6.15619,-5.66749 -11.74439,-5.66749 -3.66176,0 -3.7676,-0.11568 -3.7676,-4.11809 v -4.11809 l 5.47963,-0.64898 c 8.88095,-1.05182 12.25001,-6.45187 7.18518,-11.51669 -1.99137,-1.99137 -3.06647,-2.18995 -8.8,-1.62542 -3.59231,0.35369 -7.8821,0.95634 -9.53285,1.33921 -2.97327,0.68959 -2.99824,0.6524 -2.66667,-3.96946 0.39173,-5.46024 1.5209,-5.93879 14.51054,-6.14961 13.12485,-0.21302 20.59829,5.96665 19.04464,15.74771 -0.66021,4.15634 -5.74025,9.69091 -8.97063,9.77324 -1.07552,0.0274 -0.15652,0.94079 2.19548,2.18206 10.49703,5.53982 11.00141,21.13653 0.8727,26.98617 -4.24012,2.4488 -17.22893,3.30247 -24.38468,1.60263 z m 192.26666,-0.83405 c -7.92553,-3.65788 -11.21831,-9.63162 -11.17657,-20.27646 0.0522,-13.31527 7.68665,-21.44083 20.14491,-21.44083 11.1207,0 17.89317,6.83602 19.01357,19.192 l 0.58106,6.408 h -14.54815 c -15.23974,0 -15.65466,0.142 -13.88556,4.75221 1.75955,4.58532 12.22102,6.22902 20.67074,3.24779 2.49419,-0.88 4.74214,-1.6 4.99544,-1.6 0.25331,0 0.31296,2.02718 0.13256,4.50483 -0.30856,4.23792 -0.5808,4.58066 -4.59466,5.78469 -6.55223,1.96545 -16.40769,1.70109 -21.33334,-0.57223 z m 17.6,-25.66711 c 0,-2.90016 -2.81957,-6.51122 -5.87017,-7.51801 -5.40805,-1.78481 -9.98008,0.6183 -11.67116,6.13449 -0.72331,2.3594 -0.58112,2.4 8.40278,2.4 5.08044,0 9.13855,-0.45138 9.13855,-1.01648 z m 24.74463,25.95929 c -4.38991,-2.23885 -6.61595,-6.40926 -6.59557,-12.3565 0.0326,-9.51807 4.58209,-13.07002 18.2698,-14.26401 7.1152,-0.62066 8.38114,-1.02338 8.38114,-2.66621 0,-4.83707 -7.39763,-6.46851 -16.63047,-3.66763 -2.87991,0.87364 -5.35619,1.59364 -5.50286,1.6 -0.14667,0.006 -0.26667,-1.8859 -0.26667,-4.20499 0,-3.96383 0.23972,-4.28309 4,-5.32738 6.34068,-1.7609 17.34282,-1.38113 21.6,0.74557 6.32018,3.15729 7.46311,6.99483 7.46502,25.06501 L 480,741.33333 h -5.33333 c -4.76475,0 -5.33334,-0.24725 -5.33334,-2.31926 v -2.31928 l -2.65846,2.49751 c -3.51277,3.30006 -12.35662,4.05439 -17.39691,1.48384 z m 15.20759,-6.4054 c 2.39532,-0.91918 4.84778,-6.02852 4.84778,-10.09968 v -3.40155 l -5.30279,0.62804 c -6.75117,0.79958 -9.43631,2.25717 -10.26887,5.57434 -1.42132,5.66301 4.49437,9.68934 10.72388,7.29885 z m 82.09728,6.17928 c -8.57378,-4.03743 -12.65265,-14.15766 -10.27494,-25.49351 2.39559,-11.42101 9.43661,-16.8348 20.94205,-16.1022 11.31045,0.7202 17.60967,7.78715 17.65997,19.81236 l 0.0234,5.6 h -14.47188 -14.47188 l 0.69142,2.4 c 2.04012,7.08156 12.89672,9.52363 22.65234,5.09539 l 4.53334,-2.05776 v 4.77425 c 0,5.88354 -1.83201,6.84335 -14.4,7.54424 -6.89112,0.38431 -9.37058,0.0816 -12.88384,-1.57277 z m 17.68384,-26.61268 c 0,-8.69018 -13.94742,-9.7934 -16.89553,-1.33641 l -1.12683,3.2324 h 9.01118 c 7.92406,0 9.01118,-0.22873 9.01118,-1.89599 z m 83.5808,27.50497 c -1.25723,-0.50736 -3.05723,-2.02373 -4,-3.36972 l -1.71414,-2.44727 v 2.904 c 0,2.7737 -0.23931,2.90401 -5.33333,2.90401 h -5.33333 V 712 682.66667 h 5.33333 5.33333 v 11.11795 11.11794 l 3.11796,-3.11794 c 6.48269,-6.48271 18.26002,-2.54546 21.46877,7.17716 0.68767,2.08366 1.25031,7.29086 1.25031,11.57155 0,9.87618 -1.55015,14.52551 -6.20594,18.61336 -3.85816,3.3875 -8.96644,4.19341 -13.91696,2.19562 z m 7.5137,-11.02053 c 4.38429,-5.89751 2.33647,-20.65199 -3.15904,-22.76081 -2.85806,-1.09674 -6.81986,0.71699 -8.44939,3.86818 -3.18727,6.16348 -1.35196,19.96679 2.89148,21.74684 2.91273,1.22183 6.57928,0.0213 8.71695,-2.85421 z m 28.49682,10.33882 C 679.37364,737.51964 678.4,733.079 678.4,715.76759 v -16.03426 h 5.33333 5.33334 v 15.39048 c 0,16.69329 0.64716,18.74286 5.91827,18.74286 4.85523,0 6.2525,-4.14489 6.71332,-19.9145 l 0.41551,-14.21884 h 4.67645 4.67645 v 20.8 20.8 h -4.8 c -4.45982,0 -4.8,-0.19682 -4.8,-2.77716 v -2.77716 l -3.77046,3.31049 c -4.33493,3.80613 -10.13374,4.44599 -14.23822,1.5711 z m 141.20868,0.73102 c -10.12076,-4.14235 -12.59853,-28.88419 -3.87082,-38.65219 4.59072,-5.1379 12.27748,-5.52362 17.5647,-0.88137 l 3.90612,3.4296 v -11.3105 -11.31049 H 848 853.33333 V 712 741.33333 H 848 c -5.03437,0 -5.33333,-0.15568 -5.33333,-2.77716 v -2.77716 l -3.77046,3.31049 c -3.88954,3.41508 -9.02263,4.26955 -13.82954,2.30212 z m 14.82784,-11.06984 c 4.38428,-5.89751 2.33647,-20.65199 -3.15904,-22.76081 -2.85806,-1.09674 -6.81986,0.71699 -8.4494,3.86818 -3.18726,6.16348 -1.35196,19.96679 2.89149,21.74684 2.91272,1.22183 6.57927,0.0213 8.71695,-2.85421 z M 268.8,734.93333 v -6.4 h 5.86667 5.86666 v 6.4 6.4 H 274.66667 268.8 Z m 98.66667,5.39162 c -6.01007,-2.45987 -6.3749,-3.94401 -6.72767,-27.36761 L 360.41133,691.2 H 354.60566 348.8 v -4.26667 -4.26666 h 10.59209 10.59208 l 0.34125,23.43067 c 0.39489,27.11373 0.26228,26.74433 9.88709,27.5425 5.91723,0.4907 5.92082,0.49318 5.92082,4.09225 v 3.60124 l -8.26666,-0.0676 c -4.54667,-0.0372 -9.22667,-0.46054 -10.4,-0.94077 z m 131.37532,-8.28028 c -1.56646,-5.15791 -4.49077,-14.56184 -6.49846,-20.89764 l -3.65035,-11.51964 5.42127,0.31964 5.42128,0.31964 4.26797,15.7775 c 2.34738,8.67762 4.61097,15.39762 5.0302,14.93333 0.41923,-0.46429 2.58527,-7.68417 4.81342,-16.04417 l 4.05119,-15.2 h 5.15075 c 2.83291,0 5.14702,0.36 5.14246,0.8 -0.004,0.44 -2.83623,9.68 -6.29263,20.53334 l -6.28436,19.73333 -6.86231,0.31134 -6.86232,0.31134 z M 724.26667,737.6 v -3.73333 H 731.2 738.13333 V 720.53333 707.2 H 732.8 727.46667 v -3.73333 -3.73334 H 738.13333 748.8 V 716.8 733.86667 h 6.93333 6.93334 v 3.73333 3.73333 h -19.2 -19.2 z m 63.20674,2.63593 c -1.31629,-0.52921 -3.3545,-2.53879 -4.52935,-4.46573 -1.94127,-3.18399 -2.13644,-5.37626 -2.14007,-24.03687 L 780.8,691.2 h -5.86667 -5.86666 v -4.26667 -4.26666 h 10.5622 10.56221 l 0.37113,23.42943 c 0.42943,27.11048 0.29823,26.74608 9.91697,27.54374 5.91723,0.4907 5.92082,0.49318 5.92082,4.09225 v 3.60124 l -8.26667,-0.0676 c -4.54666,-0.0372 -9.34363,-0.5006 -10.65992,-1.0298 z M 864,737.6 v -3.73333 h 6.93333 6.93334 V 720.53333 707.2 H 872.53333 867.2 v -3.73333 -3.73334 h 10.63958 10.63958 l 0.29376,16.8 0.29375,16.8 6.66666,0.31757 6.66667,0.31756 v 3.68244 3.68243 H 883.2 864 Z m 48,-17.06667 v -20.8 h 5.33333 c 5.0355,0 5.33334,0.15522 5.33334,2.77948 v 2.77947 l 3.09462,-3.3128 c 2.56799,-2.74905 3.90493,-3.31281 7.85615,-3.31281 10.07489,0 12.51589,5.50101 12.51589,28.20567 v 14.46099 H 940.8 935.46667 v -14.69599 c 0,-16.00363 -1.01786,-19.43734 -5.76184,-19.43734 -5.34101,0 -6.47462,3.19441 -6.85212,19.30855 l -0.34729,14.82478 H 917.25271 912 Z M 738.13333,684.8 v -6.4 h 5.33334 5.33333 v 6.4 6.4 h -5.33333 -5.33334 z m 139.94678,0.26667 0.31989,-6.13334 5.06667,-0.32511 5.06666,-0.32511 v 6.45845 6.45844 h -5.38656 -5.38657 z M 103.46667,582.4 v -28.8 h -8.028402 -8.0284 l 11.380426,-15.2 c 6.259236,-8.36 11.746376,-15.61037 12.193666,-16.11193 0.44727,-0.50155 6.17426,6.21845 12.72663,14.93334 l 11.9134,15.84526 -8.07866,0.31153 -8.07866,0.31154 V 582.44486 611.2 h -8 -8 z m 260.8,19.70249 C 363.68,601.9184 360.92,601.46063 358.13333,601.08521 l -5.06666,-0.6826 v -4.84875 c 0,-3.77802 0.33859,-4.71884 1.53328,-4.26039 13.11364,5.03217 20.86672,2.43224 20.86672,-6.99748 0,-4.01202 -0.009,-4.02028 -2.1062,-1.92313 -4.47212,4.47212 -13.31773,4.13344 -18.36608,-0.70319 -8.45707,-8.10237 -7.41608,-30.12548 1.70651,-36.10282 5.82198,-3.81471 14.68796,-2.58998 17.61365,2.43313 0.92951,1.59588 1.09195,1.44114 1.11968,-1.06665 C 375.46527,544.12877 375.70079,544 380.8,544 h 5.33333 v 23.21664 c 0,26.18802 -0.6798,29.1048 -7.55125,32.39953 -3.51382,1.68481 -12.11103,3.17798 -14.31541,2.48632 z M 373.34502,573.6 c 2.94025,-4.82236 2.91939,-14.43148 -0.0396,-18.1931 -6.49448,-8.2564 -15.13553,-0.61843 -13.42435,11.86603 1.30196,9.4988 9.25213,13.23482 13.46387,6.32707 z M 537.6,573.33333 V 544 h 5.33333 c 5.07048,0 5.33334,0.14059 5.33334,2.8526 v 2.85261 l 2.4,-2.18598 c 7.58915,-6.91237 16.11011,-5.62921 21.15743,3.18607 3.25115,5.67822 3.7293,22.53552 0.79317,27.96388 -4.81171,8.896 -15.00186,11.07498 -21.82335,4.66652 l -2.52725,-2.37424 v 10.85261 10.8526 H 542.93333 537.6 Z m 24.85766,0.53334 c 3.04366,-5.90492 2.09216,-16.54907 -1.77685,-19.87705 -3.69576,-3.17896 -5.46011,-3.17396 -8.6586,0.0245 -4.63005,4.63006 -4.86719,17.11211 -0.41587,21.89004 3.39793,3.64724 8.40582,2.70692 10.85132,-2.03752 z M 57.210516,592.98925 54.4,590.7785 v -53.06999 -53.06997 l 2.468748,-2.31928 C 59.321618,480.01491 59.622282,480 103.61615,480 h 44.27864 l 2.31928,2.46875 c 2.31691,2.46624 2.31926,2.52259 2.31926,55.38924 v 52.92051 l -2.81051,2.21075 C 147.35954,594.8482 145.40754,595.2 137.45615,595.2 H 128 v -3.73333 -3.73334 h 8.53333 8.53334 v -8.48847 -8.48845 L 136.8,570.44486 128.53333,570.13333 V 566.4 562.66667 l 8.26667,-0.31153 8.26667,-0.31155 V 524.75514 487.46667 H 107.73333 70.4 V 524.8 562.13333 H 82.666667 94.933333 V 566.4 570.66667 H 78.4 61.866667 V 579.2 587.73333 H 78.4 94.933333 v 3.73334 3.73333 h -17.45615 c -16.044776,0 -17.683389,-0.17874 -20.266667,-2.21075 z m 536.922814,-6.14128 c -7.27208,-1.00442 -9.6,-8.04486 -9.6,-29.0338 V 544 h 5.33334 5.33333 v 13.7075 c 0,7.53911 0.53589,15.24476 1.19088,17.12365 1.07914,3.09561 1.55225,3.38579 5.04214,3.0925 5.68612,-0.47785 6.53261,-3.03498 6.55126,-19.79032 L 608,544 h 5.33333 5.33334 v 20.8 20.8 h -5.33334 C 608.31321,585.6 608,585.43859 608,582.85149 v -2.7485 l -2.65862,3.15959 c -2.65487,3.15514 -6.17358,4.28075 -11.20805,3.58539 z m 48.49484,-0.2398 c -9.38845,-1.25761 -10.09484,-1.70639 -10.09484,-6.41339 0,-2.30712 0.18138,-4.19478 0.40308,-4.19478 0.22168,0 2.12626,0.72 4.2324,1.6 5.15014,2.15187 14.97056,2.10826 17.155,-0.0762 3.51178,-3.51179 0.94026,-6.12198 -8.85719,-8.99042 -10.21418,-2.99048 -12.93329,-5.6408 -12.93329,-12.60615 0,-10.86204 10.85805,-15.29698 27.46667,-11.21866 2.02889,0.4982 2.4,1.3039 2.4,5.21043 v 4.62111 l -2.83675,-1.47171 c -6.57598,-3.41167 -15.55477,-2.81644 -17.06978,1.13159 -1.01186,2.63687 1.75011,4.56621 9.68763,6.76722 9.05032,2.50958 12.41631,5.5988 13.0466,11.97387 1.04413,10.56053 -7.44868,15.69655 -22.59953,13.66705 z m -432.49484,-5.61553 c 0,-4.32054 0.58413,-5.23355 9.38353,-14.66667 C 231.87283,553.08016 233.6,550.49282 233.6,545.22915 c 0,-7.48316 -8.06074,-9.97561 -17.86667,-5.52454 L 211.2,541.76237 v -5.13544 -5.13542 l 6.40854,-1.35999 c 16.12209,-3.42134 27.35834,2.79643 27.0419,14.96407 -0.15326,5.89287 -3.74842,11.50294 -13.63768,21.28086 -5.03035,4.97372 -9.14609,9.41372 -9.14609,9.86666 0,0.45296 5.28,0.82356 11.73333,0.82356 h 11.73333 v 4.26666 4.26667 h -17.6 -17.6 z M 268.8,579.2 v -6.4 h 5.86667 5.86666 v 6.4 6.4 H 274.66667 268.8 Z m 129.06667,2.66667 v -3.73334 h 6.93333 6.93333 v -12.8 -12.8 H 405.86667 400 V 548.26667 544 h 11.2 11.2 v 17.06667 17.06666 h 6.4 6.4 v 3.73334 3.73333 h -18.66667 -18.66666 z m 60.66716,2.12668 c -3.64718,-1.98187 -4.15452,-3.94814 -4.88343,-18.92668 l -0.60991,-12.53334 h -5.18691 -5.18691 V 548.26667 544 H 448 h 5.33333 v -5.86667 -5.86666 H 458.66667 464 V 538.13333 544 h 7.46667 7.46666 v 4.26667 4.26666 h -7.56104 -7.56104 l 0.36104,11.77402 c 0.41437,13.51293 0.59463,13.78466 9.16104,13.80965 l 5.6,0.0163 v 3.73334 3.73333 l -8.8,-0.0427 c -5.52455,-0.0268 -9.842,-0.60892 -11.5995,-1.56393 z M 678.4,556.8 V 528 h 5.33333 5.33334 v 10.86623 10.86623 L 692,546.9423 c 3.77707,-3.59269 7.7301,-4.52751 12.49523,-2.95488 6.37215,2.103 7.4247,5.42836 7.85371,24.81258 l 0.37183,16.8 h -5.42705 -5.42705 v -14.93333 c 0,-13.51112 -0.20318,-15.13652 -2.13334,-17.06667 -2.39883,-2.39884 -3.54419,-2.59505 -6.35793,-1.08918 -3.18082,1.70232 -4.30873,7.05514 -4.30873,20.44835 V 585.6 H 683.73333 678.4 Z M 411.73333,529.6 v -5.86667 h 5.33334 5.33333 v 5.86667 5.86667 h -5.33333 -5.33334 z M 78.933333,516.8 c 0,-3.55555 0.177778,-3.73333 3.733334,-3.73333 3.555555,0 3.733333,0.17778 3.733333,3.73333 0,3.55555 -0.177778,3.73333 -3.733333,3.73333 -3.555556,0 -3.733334,-0.17778 -3.733334,-3.73333 z m 0,-16.53333 c 0,-4.16508 0.08889,-4.26667 3.733334,-4.26667 3.644444,0 3.733333,0.10155 3.733333,4.26667 0,4.16507 -0.08889,4.26666 -3.733333,4.26666 -3.644445,0 -3.733334,-0.10154 -3.733334,-4.26666 z M 360,446.4736 c -0.58667,-0.23118 -2.38667,-0.71146 -4,-1.06729 -2.65295,-0.58512 -2.93333,-1.09181 -2.93333,-5.30093 v -4.65399 l 4,1.42749 c 10.66998,3.80781 18.4,0.68848 18.4,-7.42505 v -4.00867 l -2.81052,2.21075 c -3.40272,2.67658 -10.78121,2.95931 -15.36532,0.58877 -10.6055,-5.48431 -10.66244,-31.88478 -0.0822,-38.13464 5.40809,-3.19465 13.50649,-2.0771 16.89082,2.33086 1.13877,1.48321 1.30361,1.39573 1.33334,-0.70757 0.0306,-2.16436 0.55754,-2.4 5.36725,-2.4 h 5.33333 L 386.1312,412 c -0.002,24.827 -0.58781,27.6776 -6.59457,32.07985 -2.67947,1.96374 -16.37125,3.6413 -19.53711,2.39375 z m 11.88081,-26.59655 c 4.03408,-3.46997 4.87488,-14.27427 1.52611,-19.61038 -2.64789,-4.21931 -7.33976,-4.7376 -10.65675,-1.17723 -4.55337,4.88747 -3.78779,18.14213 1.25176,21.67197 3.16417,2.21628 4.44077,2.07298 7.87888,-0.88436 z m 177.98586,10.18455 c -7.67152,-3.64452 -11.21503,-10.03643 -11.17658,-20.16067 0.0372,-9.7908 4.69135,-17.70993 12.04602,-20.49655 3.89654,-1.47636 13.35868,-1.45849 17.63806,0.0333 3.0857,1.07568 3.35916,1.5555 3.35916,5.89406 v 4.72304 l -3.14703,-1.62739 c -8.31177,-4.29819 -17.24677,-0.78691 -18.77883,7.3797 -2.43147,12.96083 5.98879,20.78169 17.29039,16.05958 2.10614,-0.88 4.01072,-1.6 4.2324,-1.6 0.2217,0 0.40307,1.90311 0.40307,4.22914 0,5.23335 -2.02471,6.53568 -11.12084,7.15302 -4.853,0.32938 -7.55002,-0.069 -10.74582,-1.58723 z m 43.6278,-0.0941 c -13.95712,-6.33857 -14.85061,-30.28185 -1.46908,-39.36778 5.06409,-3.43846 15.82457,-3.0376 21.19961,0.78976 7.69271,5.4777 10.30712,20.92811 5.21549,30.82209 -4.51709,8.77756 -15.30858,12.13273 -24.94602,7.75593 z m 13.3826,-8.57794 c 4.68997,-4.68997 5.15265,-16.55771 0.85835,-22.01701 -4.57051,-5.81047 -12.85501,-1.60278 -14.29316,7.25948 -1.92068,11.83581 6.78916,21.40317 13.43481,14.75753 z m -394.6104,4.74375 v -4.8 h 6.4 6.4 v -18.26966 -18.26966 l -4.17342,0.66736 c -2.29538,0.36705 -4.93538,0.95974 -5.86667,1.31712 -1.39428,0.53502 -1.69325,-0.21065 -1.69325,-4.22326 0,-4.81783 0.0513,-4.88772 4.53334,-6.17349 C 220.36,375.66647 225.28,375.04798 228.8,375.0073 l 6.4,-0.0739 0.28747,23.2 0.28746,23.2 h 5.84587 5.84587 v 4.8 4.8 h -17.6 -17.6 v -4.8 z M 268.8,424 v -6.93333 h 5.86667 5.86666 V 424 430.93333 H 274.66667 268.8 Z m 129.06667,2.66667 V 422.4 h 6.96719 6.96717 l -0.30051,-12.53333 -0.30052,-12.53334 -5.6,-0.32241 -5.6,-0.32241 v -3.67759 -3.67759 h 11.2 11.2 V 405.86667 422.4 h 6.4 6.4 v 4.26667 4.26666 h -18.66667 -18.66666 z m 63.20554,3.07474 c -5.76552,-1.66502 -6.94053,-4.74088 -7.51582,-19.6746 L 453.04531,396.8 h -5.18932 -5.18932 v -3.73333 -3.73334 h 5.2801 5.2801 l 0.3199,-6.13333 0.3199,-6.13333 5.01175,-0.32287 5.01177,-0.32287 0.32156,6.18953 0.32158,6.18954 7.2,0.3154 7.2,0.31541 v 3.63586 3.63586 l -7.2,0.3154 -7.2,0.3154 -0.30527,10.398 c -0.40134,13.6706 0.16631,14.66867 8.3428,14.66867 h 6.36247 v 4.26667 4.26666 l -7.2,-0.0962 c -3.96,-0.0529 -8.7575,-0.54598 -10.66112,-1.09572 z m 167.19446,-19.60808 v -20.8 H 632 c 2.68399,0 3.73333,0.47148 3.73333,1.67742 0,1.39051 0.48073,1.29929 2.81052,-0.53333 3.51854,-2.76768 8.2944,-2.83917 10.96937,-0.1642 2.01762,2.01762 2.07273,2.01762 3.89865,0 2.03485,-2.24848 7.81384,-2.75007 11.14492,-0.96733 3.19953,1.71234 4.23088,7.87541 4.23726,25.32078 l 0.006,16.26666 h -4.23958 -4.23958 l -0.29376,-16.68522 c -0.25987,-14.76094 -0.51623,-16.8215 -2.22289,-17.86667 -3.9532,-2.42101 -5.00419,1.5181 -5.00419,18.75577 v 15.79612 h -4.23958 -4.23958 l -0.29376,-16.68522 c -0.25403,-14.42965 -0.54212,-16.84171 -2.13106,-17.8427 -3.73126,-2.3506 -4.54192,0.61974 -4.92509,18.04602 l -0.3624,16.4819 h -4.17093 -4.17093 z m 46.93333,0 v -20.8 h 3.73333 c 2.78015,0 3.73334,0.45598 3.73334,1.78593 0,1.51652 0.37242,1.43606 2.46874,-0.53333 3.15125,-2.96044 8.50653,-3.04374 11.18018,-0.17392 l 1.99869,2.14534 1.94152,-2.14534 c 1.2671,-1.40013 3.27353,-2.13967 5.77619,-2.12901 7.95397,0.0339 8.9657,2.67082 9.50875,24.78367 l 0.43877,17.86666 H 711.58975 707.2 v -15.79612 c 0,-17.23767 -1.05099,-21.17678 -5.00419,-18.75577 -1.70666,1.04517 -1.96302,3.10573 -2.22289,17.86667 l -0.29376,16.68522 h -4.21249 -4.21249 l -0.29376,-16.68522 c -0.25988,-14.76094 -0.51624,-16.8215 -2.22289,-17.86667 -3.95321,-2.42101 -5.0042,1.5181 -5.0042,18.75577 v 15.79612 H 679.46667 675.2 Z m 49.06667,16.53334 V 422.4 H 731.2 738.13333 V 409.6 396.8 H 732.8 727.46667 v -3.73333 -3.73334 H 738.13333 748.8 V 405.86667 422.4 h 6.93333 6.93334 v 4.26667 4.26666 h -19.2 -19.2 z m 63.12467,3.05378 C 782.14899,428.21008 780.8,423.99007 780.8,409.10093 V 396.8 h -5.33333 -5.33334 v -3.73333 -3.73334 h 5.33334 5.33333 v -6.4 -6.4 h 5.33333 5.33334 v 6.4 6.4 H 798.4 805.33333 V 393.06667 396.8 H 798.4 791.46667 v 11.52 c 0,13.45123 0.36678,14.08 8.21333,14.08 h 5.65333 v 4.26667 4.26666 l -7.2,-0.0962 c -3.96,-0.0529 -8.7939,-0.55541 -10.74199,-1.11668 z M 94.836399,426.07626 C 88.362521,424.08198 80.718713,417.23376 78.240522,411.2077 L 76.266667,406.408 65.333333,406.404 54.4,406.4 v -6.93333 -6.93334 l 10.933333,-0.004 10.933334,-0.004 1.973855,-4.7997 C 81.841777,378.96869 93.700572,371.2 103.46667,371.2 c 9.94337,0 22.44703,8.47895 25.67735,17.41229 l 1.41788,3.92104 h 10.98572 10.98571 v 6.93334 6.93333 l -10.93333,0.004 -10.93333,0.004 -1.97386,4.7997 c -2.57244,6.25523 -10.1326,12.87865 -17.0422,14.93058 -6.51421,1.93451 -10.37925,1.92025 -16.814211,-0.062 z M 112.00054,412.53333 C 125.02809,403.64086 119.15381,384 103.46667,384 c -15.684287,0 -21.685436,19.79867 -8.642261,28.51207 4.906078,3.27748 12.392181,3.28675 17.176131,0.0212 z M 411.73333,374.4 V 368 h 5.33334 5.33333 v 6.4 6.4 h -5.33333 -5.33334 z m 326.4,0 V 368 h 5.33334 5.33333 v 6.4 6.4 h -5.33333 -5.33334 z"
         id="path1838" />
    </g>
  </g>
</svg>
