<?xml version="1.0" encoding="UTF-8" standalone="no"?>
<!-- Generator: Adobe Illustrator 12.0.0, SVG Export Plug-In . SVG Version: 6.00 Build 51448)  -->

<svg
   height="420.798"
   id="Layer_1"
   inkscape:version="1.1 (c68e22c387, 2021-05-23)"
   sodipodi:docname="Wood_Pattern_Grain_Texture_clip_art.svg"
   sodipodi:version="0.32"
   space="preserve"
   style="overflow:visible;enable-background:new 0 0 313.226 420.798;"
   version="1.1"
   viewBox="0 0 313.226 420.798"
   width="313.226"
   xmlns:inkscape="http://www.inkscape.org/namespaces/inkscape"
   xmlns:sodipodi="http://sodipodi.sourceforge.net/DTD/sodipodi-0.dtd"
   xmlns="http://www.w3.org/2000/svg"
   xmlns:svg="http://www.w3.org/2000/svg"
   xmlns:rdf="http://www.w3.org/1999/02/22-rdf-syntax-ns#"
   xmlns:cc="http://creativecommons.org/ns#"
   xmlns:dc="http://purl.org/dc/elements/1.1/">
  <metadata
     id="metadata2">
    <rdf:RDF>
      <cc:Work
         rdf:about="">
        <dc:description />
        <dc:subject>
          <rdf:Bag>
            <rdf:li />
          </rdf:Bag>
        </dc:subject>
        <dc:publisher>
          <cc:Agent
             rdf:about="http://www.openclipart.org/">
            <dc:title />
          </cc:Agent>
        </dc:publisher>
        <dc:creator>
          <cc:Agent>
            <dc:title>Architetto Francesco Rollandin</dc:title>
          </cc:Agent>
        </dc:creator>
        <dc:rights>
          <cc:Agent>
            <dc:title>Architetto Francesco Rollandin</dc:title>
          </cc:Agent>
        </dc:rights>
        <dc:date />
        <dc:format>image/svg+xml</dc:format>
        <dc:type
           rdf:resource="http://purl.org/dc/dcmitype/StillImage" />
        <cc:license
           rdf:resource="http://web.resource.org/cc/PublicDomain" />
        <dc:language>en</dc:language>
      </cc:Work>
      <cc:License
         rdf:about="http://web.resource.org/cc/PublicDomain">
        <cc:permits
           rdf:resource="http://web.resource.org/cc/Reproduction" />
        <cc:permits
           rdf:resource="http://web.resource.org/cc/Distribution" />
        <cc:permits
           rdf:resource="http://web.resource.org/cc/DerivativeWorks" />
      </cc:License>
    </rdf:RDF>
  </metadata>
  <defs
     id="defs140" />
  <sodipodi:namedview
     bordercolor="#666666"
     borderopacity="1.0"
     id="base"
     inkscape:current-layer="Layer_1"
     inkscape:cx="285.20753"
     inkscape:cy="242.25107"
     inkscape:pageopacity="0.0"
     inkscape:pageshadow="2"
     inkscape:window-height="1347"
     inkscape:window-width="2001"
     inkscape:window-x="1430"
     inkscape:window-y="0"
     inkscape:zoom="1.7110347"
     pagecolor="#ffffff"
     inkscape:pagecheckerboard="0"
     showgrid="false"
     inkscape:window-maximized="0" />
  <g
     inkscape:groupmode="layer"
     id="layer1"
     inkscape:label="keep"
     style="display:inline">
    <path
       d="M 40.227,0.648996 C 38.93,65.374996 51.741,127.886 85.938,183.14 114.464,128.737 119.614,60.661996 126.22,0.649996 c -6.734,-1.885 -4.785,7.773 -5.132,12.293 -0.532,6.921 -1.218,13.826 -1.99,20.724 -1.532,13.695 -3.452,27.305 -5.833,40.877 C 108.382,102.379 101.218,128.754 85.938,152.704 68.91,135.064 59.102,106.575 54.182,83.037996 c -3.252,-15.556 -5.762,-30.81 -7.849,-46.567 -0.953,-7.19 0.877,-37.154 -6.106,-35.822"
       id="path5-5"
       style="overflow:visible;fill:#d59758" />
    <path
       d="m 48.939,0.648996 c 1.945,44.94 8.018,93.585 35.806,130.273004 29.033,-31.930004 29.565,-89.682004 32.225,-130.094004 -4.323,0.343 -2.979,19.745 -3.359,25.003 -0.824,11.375 -2.191,22.612 -4.004,33.869 C 105.952,82.390996 98.857,102.766 85.343,121.374 70.352,109.844 63.49,85.284996 59.675,67.678996 c -1.82,-8.393 -7.336,-66.306 -10.736,-67.03"
       id="path7-4"
       style="overflow:visible;fill:#d59758" />
    <path
       d="m 53.654,0.828996 c 2.234,39.149 9.77,77.365 31.688,110.401004 11.47,-10.694 15.77,-31.442004 18.57,-46.181004 4.055,-21.34 6.388,-42.592 8.283,-64.22 -0.955,-0.06 -1.909,-0.12 -2.864,-0.179 1.224,35.799 -8.331,70.973 -23.99,102.822004 -10.5,-15.120004 -16.358,-33.294004 -21.504,-50.760004 -2.087,-7.087 -6.847,-51.602 -10.183,-51.883"
       id="path9-5"
       style="overflow:visible;fill:#d59758" />
    <path
       d="m 66.066,0.648996 c -1.302,24.391 7.565,47.622 18.679,68.807 8.781,-21.959 14.726,-45.106 15.038,-68.807 -11.239,0 -22.478,0 -33.717,0"
       id="path11-0"
       style="overflow:visible;fill:#d59758" />
    <path
       d="m 30.38,0.470996 c 2.86,42.706 6.538,85.394 16.268,127.192004 2.878,12.367 6.094,24.467 9.612,36.669 2.347,8.139 8.396,15.345 11.678,23.306 8.49,20.596 13.673,41.734 18.001,63.533 2.896,-41.899 20.466,-78.002 30.316,-118.1 5.297,-21.563 9.666,-43.486004 12.47,-65.518004 1.615,-12.687 2.827,-25.263 3.822,-38.017 0.482,-6.177 -1.844,-29.07 3.521,-28.708 -1.528,31.79 -3.129,63.889 -7.827,95.401 -2.415,16.200004 -4.396,32.732004 -8.751,48.553004 -4.289,15.582 -10.97,30.071 -15.211,45.665 -18.633,68.506 -13.321,140.915 -13.75,211.116 -0.038,6.163 -0.075,12.326 -0.113,18.489 -11.782,3.063 -6.828,-22.957 -6.948,-30.076 -0.41,-24.347 -0.819,-48.692 -1.229,-73.038 C 81.769,289.02 83.225,261.144 75.887,233.98 67.615,203.357 54.131,174.68 46.012,144.01 38.177,114.414 32.01,83.471996 29.59,52.916996 c -1.386,-17.507 -2.239,-34.83 -2.731,-52.386 -0.625,-0.013 4.422,0.083 3.521,-0.06"
       id="path13-8"
       style="overflow:visible;fill:#d59758" />
    <path
       d="M 68.036,420.353 C 70.799,353.034 65.682,285.773 52.595,219.748 46.567,189.334 29.34,163.219 22.459,133.115 14.836,99.768996 11.66,66.472996 10.385,32.349996 c -0.394,-10.537 0.099,-21.156 0.183,-31.7 -6.168,-0.451 -3.469,12.896 -3.389,17.933 0.118,7.356 0.362,14.718 0.787,22.063 1.017,17.591 2.747,35.033 4.825,52.528 C 16.504,124.43 25.029,152.919 35.529,182.244 59.2,248.351 58.267,316.063 61.19,385.396 c 0.253,5.981 -3.115,38.304 6.846,34.957"
       id="path15-3"
       style="overflow:visible;fill:#d59758" />
    <path
       d="M 55.444,420.053 C 56.427,371.305 54.01,322.001 48.477,273.572 45.785,250.006 42.926,226.167 36.709,203.235 33.198,190.286 29.998,178.337 24.449,166.175 18.477,153.085 12.317,145.72 2.391,135.101 c -0.146,4.571 -1.13,10.558 0.895,13.308 3.491,4.738 10.016,7.999 13.83,13.666 6.988,10.386 10.122,23.368 13.586,35.231 7.459,25.546 10.212,52.172 13.414,78.499 2.822,23.207 4.695,46.985 5.256,70.344 0.354,14.715 0.707,29.431 1.061,44.146 0.128,5.351 -3.14,32.156 5.011,29.758"
       id="path17-0"
       style="overflow:visible;fill:#d59758" />
    <path
       d="m 0.84,162.551 c 16.838,5.833 23.555,36.236 27.332,51.202 5.293,20.975 8.641,42.698 10.817,64.201 4.781,47.229 5.662,94.673 7.564,142.099 -5.228,0.442 -3.369,-16.445 -3.569,-20.537 -0.803,-16.463 -1.607,-32.926 -2.41,-49.39 -1.048,-21.473 -1.792,-42.972 -3.703,-64.39 C 34.838,262.96 30.817,240.531 24.874,218.467 22.048,207.977 17.814,198.335 12.369,188.986 9.453,183.981 5.556,180.542 1.402,176.47 -0.701,174.408 0.925,165.474 0.84,162.551"
       id="path19-2"
       style="overflow:visible;fill:#d59758" />
    <path
       d="M 32.051,420.053 C 36.272,383.276 35.35,346.176 33.662,309.295 32.176,276.848 32.516,220.217 0.9,201.938 c -2.631,8.788 7.084,12.692 11.48,20.353 4.769,8.312 7.081,17.697 9.708,26.833 5.476,19.045 6.418,39.822 7.573,59.495 1.086,18.498 0.46,36.913 -0.395,55.42 -0.664,14.364 1.743,45.007 -9.15,56.015 3.978,-10e-4 7.956,-10e-4 11.935,-10e-4"
       id="path21-9"
       style="overflow:visible;fill:#d59758" />
    <path
       d="m 0.84,229.627 c 19.314,22.854 18.064,64.732 18.759,92.779 0.714,28.819 4.155,61.751 -7.667,88.849 -2.717,6.229 -11.621,14.779 -11.033,2.832 0.306,-6.231 5.369,-14.117 6.917,-20.339 3.76,-15.109 7.199,-31.067 7.412,-46.713 C 15.707,311.806 10.517,279.996 1.001,246.165 -0.367,241.295 0.988,234.67 0.84,229.627"
       id="path23-3"
       style="overflow:visible;fill:#d59758" />
    <path
       d="M 1.377,148.229 C 1.218,128.237 1.059,108.246 0.9,88.253996 1.563,111.752 6.553,135.22 17.013,156.284 13.709,151.311 7.744,145.862 1.377,148.229"
       id="path25-0"
       style="overflow:visible;fill:#d59758" />
    <path
       d="M 0.84,282.5 C 9.191,314.415 9.391,348.306 0.9,380.069 0.9,347.603 1.714,314.85 0.84,282.5"
       id="path27-4"
       style="overflow:visible;fill:#d59758" />
    <path
       d="m 99.306,420.053 c 0.125,-31.92 -0.506,-63.832 0.035,-95.753 0.561,-33.07 -0.75,-68.018 6.152,-100.493 6.235,-29.334 21.835,-56.117 26.694,-86.2 5.04,-31.2 7.398,-63.266004 9.931,-94.750004 1.126,-13.993 2.195,-28.012 1.11,-42.028 0.935,0 1.869,0 2.804,0 -1.748,62.487 -5.695,124.132004 -21.035,184.817004 -3.334,13.188 -10.427,26.866 -12.114,40.013 -2.077,16.187 -3.503,32.401 -4.82,48.665 -2.631,32.489 -3.044,65.184 -2.862,97.76 0.089,15.941 0.655,31.858 1.147,47.792 -2.164,0.056 -4.937,0.641 -7.042,0.177"
       id="path29-1"
       style="overflow:visible;fill:#d59758" />
    <path
       d="m 111.838,419.876 c 1.088,-62.513 -4.792,-129.345 9.872,-190.629 3.302,-13.802 10.857,-26.515 14.083,-39.791 3.667,-15.097 7.041,-30.251 9.981,-45.508 6.482,-33.635 4.087,-68.557004 4.383,-102.645004 0.085,-9.87 0.171,-19.741 0.256,-29.611 0.003,-0.365 -0.426,-14.896 2.661,-11.042 1.437,1.793 0,10.676 0,12.855 0,11.152 0,22.305 0,33.457 0,33.012 1.762,65.732004 -3.67,98.345004 -2.518,15.116 -4.935,30.664 -9.817,45.233 -4.689,13.994 -10.623,26.922 -13.826,41.478 -6.303,28.644 -4.783,59.825 -5.804,88.976 -0.812,23.173 -1.624,46.346 -2.436,69.519 -0.181,5.175 3.006,32.19 -5.683,29.363"
       id="path31-1"
       style="overflow:visible;fill:#d59758" />
    <path
       d="m 202.307,253.856 c -1.617,-11.254 -3.957,-22.119 -8.234,-32.703 -4.073,-10.08 -11.243,-18.759 -15.124,-28.76 -8.388,-21.614 -12.526,-45.346 -15.133,-68.333 -2.378,29.518 -13.387,59.385 -24.544,86.65 -12.104,29.578 -11.679,66.929 -13.591,98.466 -1.985,32.72 -2.873,65.536 -3.01,98.314 -0.016,3.68 -0.03,7.358 -0.03,11.038 0,2.455 3.669,2.204 3.768,-0.665 0.383,-11.214 0.767,-22.428 1.15,-33.642 0.584,-17.065 1.513,-34.105 2.404,-51.158 1.7,-32.533 4.479,-65.457 10.133,-97.56 4.939,-28.05 19.927,-54.321 21.931,-82.801 2.819,21.425 10.078,39 20.318,57.678 11.728,21.39 16.48,40.858 17.881,64.942 1.406,24.184 1.451,48.864 -0.843,72.997 -2.354,24.771 -11.047,47.415 -13.188,72.031 6.594,1.508 4.89,-14.396 5.321,-19.144 0.492,-5.419 2.764,-11.189 3.871,-16.543 2.952,-14.267 5.177,-28.708 6.623,-43.206 2.922,-29.282 2.307,-58.294 0.297,-87.601"
       id="path33-1"
       style="overflow:visible;fill:#d59758" />
    <path
       d="m 136.067,419.876 c -1.225,-38.192 -3.211,-76.794 -0.103,-114.932 2.836,-34.799 3.964,-81.994 25.166,-111.063 30.304,26.141 34.45,70.483 33.78,107.668 -0.355,19.718 -1.207,39.585 -3.465,59.185 -1.194,10.367 -2.687,20.683 -6.013,30.592 -2.2,6.556 -0.951,30.081 -8.188,29.026 3.653,-35.073 12.248,-68.558 13.697,-104.035 1.568,-38.395 -6.691,-74.16 -28.916,-105.429 -14.95,31.075 -19.377,68.022 -21.045,102.052 -0.874,17.829 -1.815,35.646 -2.441,53.485 -0.598,17.043 -3.024,36.759 1.226,53.45 -1.232,10e-4 -2.465,10e-4 -3.698,10e-4"
       id="path35-0"
       style="overflow:visible;fill:#d59758" />
    <path
       d="m 162.92,138.382 c -0.496,-45.911004 -0.994,-91.822004 -1.491,-137.733004 6.021,-0.853 3.21,14.333 3.242,18.643 0.121,16.265 0.242,32.531 0.364,48.796 0.189,25.52 0.38,51.040004 0.57,76.560004 -0.889,-2.076 -1.93,-4.137 -2.685,-6.266"
       id="path37-8"
       style="overflow:visible;fill:#d59758" />
    <path
       d="m 177.959,0.648996 c 0,31.739 0.215,63.489 1.15,95.215 0.878,29.752004 -2.007,65.433004 10.731,92.871004 26.651,57.408 23.081,125.565 16.914,187.174 -1.496,14.941 -4.812,29.403 -8.327,43.966 18.254,2.54 15.63,-166.794 11.578,-186.071 -2.85,-13.556 -8.349,-27.966 -13.488,-40.818 -4.781,-11.956 -6.527,-24.501 -8.295,-37.298 -4.638,-33.585 -3.071,-68.350004 -3.828,-102.160004 -0.291,-13.007 -0.582,-26.014 -0.874,-39.02 -0.111,-4.997 2.806,-16.699 -5.561,-13.859"
       id="path39-7"
       style="overflow:visible;fill:#d59758" />
    <path
       d="m 197.951,0.828996 c 0.751,64.992 -3.5,131.085004 9.495,195.068004 6.127,30.165 10.566,59.179 11.363,90.124 0.783,30.457 -1.239,61.569 -4.245,91.876 -1.408,14.198 -2.995,28.235 -7.364,41.858 7.738,2.379 9.813,-30.347 10.555,-36.523 1.969,-16.395 3.507,-32.764 4.297,-49.261 1.649,-34.463 0.15,-68.528 -2.623,-102.887 -2.236,-27.719 -7.743,-55.116 -10.131,-82.802 -2.824,-32.749 -4.84,-65.533004 -6.418,-98.364004 -0.405,-8.418 -0.645,-16.854 -0.87,-25.279 -0.15,-5.607 2.88,-24.722 -4.059,-23.81"
       id="path41-5"
       style="overflow:visible;fill:#d59758" />
    <path
       d="m 229.102,0.828996 c 0.192,66.266 -0.824,132.484004 0.76,198.746004 1.528,63.928 7.982,129.14 -0.031,192.882 -1.188,9.449 -2.95,18.069 -5.325,27.298 10.407,0.156 8.335,-2.677 8.793,-12.31 0.385,-8.086 0.795,-16.175 1.074,-24.266 0.564,-16.343 1.119,-32.685 1.351,-49.036 0.491,-34.736 0.402,-69.439 -0.24,-104.173 -1.351,-73.063 -1.188,-146.182004 -1.768,-219.256004 -0.036,-4.415 2.291,-11.992 -4.614,-9.885"
       id="path43-3"
       style="overflow:visible;fill:#d59758" />
    <path
       d="m 259.596,0.648996 c 1.474,31.673 1.604,63.403 -0.438,95.049 C 257.16,126.659 249.042,156.962 247.208,188.097 c -2.011,34.152 -1.449,67.691 1.143,101.79 2.351,30.927 7.327,61.152 7.735,92.328 0.169,12.884 0.007,25.554 -2.934,38.137 10.059,0 11.883,2.172 11.807,-7.888 -0.069,-9.103 -0.294,-18.189 -0.618,-27.286 -0.528,-14.813 -1.471,-29.828 -3.432,-44.524 -4.337,-32.5 -9.549,-64.25 -10.892,-97.104 -1.35,-33.001 0.546,-66.211 5.393,-98.868 4.714,-31.759 5.942,-64.077004 7.832,-96.118004 0.518,-8.786 1.047,-17.578 1.33,-26.375 0.182,-5.694 4.169,-24.264 -4.976,-21.54"
       id="path45-7"
       style="overflow:visible;fill:#d59758" />
    <path
       d="m 270.338,0.648996 c 0.007,32.105 -0.509,64.313 -3.163,96.316 -2.659,32.056004 -9.704,64.137004 -12.286,96.492004 -2.508,31.414 -0.76,60.125 6.991,90.578 7.546,29.647 13.733,59.917 12.691,90.642 -0.517,15.225 -1.032,30.45 -1.549,45.675 7.008,1.687 4.688,-7.051 4.834,-11.876 0.241,-7.99 0.416,-15.98 0.577,-23.973 0.299,-14.836 0.033,-29.647 -0.517,-44.476 -0.592,-15.966 -1.609,-31.877 -3.311,-47.763 -1.626,-15.185 -7.009,-29.005 -9.104,-44.004 -8.879,-63.561 4.433,-127.73 7.849,-191.278004 0.404,-7.501 4.863,-57.867 -3.012,-56.333"
       id="path47-5"
       style="overflow:visible;fill:#d59758" />
    <path
       d="m 147.405,419.876 c -0.347,-28.311 -3.094,-55.986 -1.908,-84.418 1.37,-32.86 0.973,-69.812 16.529,-99.504 18.223,27.655 20.92,62.676 20.836,94.797 -0.076,29.922 -12.898,59.389 -10.095,89.302 -10.971,0.878 -7.479,-6.071 -7.698,-15.517 -0.145,-6.264 -0.751,-12.624 0.029,-18.855 1.626,-12.979 7.252,-23.876 10.444,-36.313 7.966,-31.033 3.077,-59.983 -12.622,-87.456 -11.761,23.427 -15.034,53.971 -12.888,79.815 0.978,11.769 3.659,23.698 2.613,35.509 -1.279,14.434 -1.882,27.916 -1.541,42.64 -1.232,0 -2.466,0 -3.699,0"
       id="path49-2"
       style="overflow:visible;fill:#d59758" />
    <path
       d="m 163.816,286.976 c -12.651,21.849 -8.012,50.884 -3.581,74.296 12.467,-23.72 12.383,-49.598 3.581,-74.296"
       id="path51-4"
       style="overflow:visible;fill:#d59758" />
    <path
       d="m 156.655,420.053 c -0.055,-12.428 -1.157,-27.157 2.686,-39.088 -0.03,6.418 2.546,39.089 -2.686,39.088"
       id="path53-8"
       style="overflow:visible;fill:#d59758" />
    <path
       d="m 288.062,0.648996 c 0,31.525 1.274,64.292 -2.985,95.586 C 283.251,109.644 277.273,122.851 273.76,135.968 c -4.081,15.234 -5.987,30.929 -6.658,46.644 -1.126,26.404 -0.855,61.966 9.266,86.641 11.603,28.286 10.909,55.345 11.496,85.492 0.411,21.086 0.822,42.172 1.232,63.259 0.033,1.685 1.103,4.003 3.442,2.049 1.045,-0.872 0.105,-9.589 0.114,-10.755 0.057,-7.999 0.074,-15.998 0.105,-23.997 0.12,-30.35 0.919,-61.034 -2.702,-91.194 -3.683,-30.675 -17.649,-57.476 -17.273,-89.191 0.368,-31.027 9.52,-59.513 15.462,-89.665 7.291,-36.987004 3.229,-77.058004 3.577,-114.601004 -1.253,-0.001 -2.506,-0.001 -3.759,-0.001"
       id="path55-7"
       style="overflow:visible;fill:#d59758" />
    <path
       d="m 296.296,121.375 c -9.368,24.022 -16.252,49.104 -18.199,74.851 -1.619,21.413 4.811,55.042 20.885,70.162 12.344,-47.134 17.304,-99.624 -2.686,-145.013"
       id="path57-1"
       style="overflow:visible;fill:#d59758" />
    <path
       d="m 297.313,0.828996 c -0.006,27.143 0.326,54.297 1.262,81.423 0.415,12.023 0.181,24.874004 4.228,36.258004 4.173,11.738 9.65,22.906 9.728,35.687 -0.097,-11.875 2.18,-26.638 -1.016,-37.894 -2.346,-8.266 -6.053,-14.39 -6.461,-23.408004 -0.822,-18.188 -1.645,-36.375 -2.467,-54.563 -0.247,-5.459 1.635,-39.048 -5.274,-37.503"
       id="path59-6"
       style="overflow:visible;fill:#d59758" />
    <path
       d="m 312.53,230.881 c -13.567,60.465 -15.615,122.896 -14.52,184.809 0.049,2.788 2.583,7.113 2.583,2.724 0,-3.532 -0.016,-7.063 0,-10.595 0.038,-8.624 0.2,-17.241 0.386,-25.862 0.32,-14.859 0.642,-29.809 1.8,-44.63 1.275,-16.329 1.983,-33.252 5.929,-49.218 4.386,-17.746 3.623,-35.017 3.789,-53.484 0.01,-1.249 0.022,-2.496 0.033,-3.744"
       id="path61-0"
       style="overflow:visible;fill:#d59758" />
    <path
       d="m 304.174,420.174 c 0.018,-28.947 -3.21,-65.8 8.355,-92.917 -0.195,16.139 -0.141,32.128 -1.701,48.189 -0.823,8.469 -1.531,16.95 -2.305,25.424 -0.412,4.523 0.406,19.466 -4.349,19.304"
       id="path63-2"
       style="overflow:visible;fill:#d59758" />
    <path
       d="m 307.933,0.648996 c 0.015,26.568 -3.146,58.378 4.476,84.024 -0.033,-15.505 -0.066,-31.01 -0.1,-46.516 -0.012,-5.701 3.866,-39.556 -4.376,-37.508"
       id="path65-2"
       style="overflow:visible;fill:#d59758" />
  </g>
  <g
     inkscape:groupmode="layer"
     id="layer2"
     inkscape:label="base"
     style="display:inline" />
</svg>
