<?xml version="1.0" encoding="utf-8"?>
<!-- Generator: Adobe Illustrator 23.1.0, SVG Export Plug-In . SVG Version: 6.00 Build 0)  -->
<svg version="1.1" id="Layer_1" xmlns="http://www.w3.org/2000/svg" xmlns:xlink="http://www.w3.org/1999/xlink" x="0px" y="0px"
	 viewBox="0 0 1200 1200" enable-background="new 0 0 1200 1200" xml:space="preserve">
<path fill="#490420" d="M1056.918,303.695c-65.716,12.575-135.266,88.79-137.906,194.565
	c-1.532,61.338,24.091,102.221,48.87,141.758c30.496,48.659,59.3,94.62,41.444,178.447c-15.202,71.365-61.429,107.687-95.46,125.225
	c14.711-89.472-7.99-183.889-62.479-250.593c-56.095-68.669-98.341-126.378-125.464-185.13l37.007-24.083
	c71.207-46.343,98.36-136.555,64.561-214.503l-5.516-12.72c-7.075-16.317-15.939-31.492-26.29-45.352
	c17.651-27.937,24.083-86.07,26.287-132.728c0.337-7.143-2.683-13.778-8.289-18.203c-5.561-4.393-12.956-5.836-19.791-3.866
	c-75.621,21.815-104.167,56.887-113.996,73.977c-14.922-4.439-30.435-7.38-46.353-8.654c-27.435-2.196-47.772-3.31-60.45-3.313
	c-0.014,0-0.03,0-0.044,0c-12.878,0-33.551,1.13-61.447,3.355c-19.213,1.534-37.833,5.502-55.536,11.6
	c-9.184-16.436-37.409-52.836-114.584-75.099c-6.833-1.97-14.231-0.526-19.795,3.867c-5.603,4.425-8.624,11.061-8.285,18.202
	c2.364,50.081,9.6,113.383,30.528,138.523c-8.042,11.755-15.064,24.359-20.867,37.743l-5.399,12.447v0.002
	c-33.857,78.082-6.601,168.361,64.807,214.662l39.952,25.905c2.469,1.601,4.966,3.138,7.473,4.652
	c-19.163,64.815-39.47,150.662-47.456,242.939c-6.499,75.09-12.663,126.511-17.824,161.518c-4.369-21-14.997-40.368-30.85-55.365
	c-50.374-47.651-107.653-64.014-165.635-47.314c-0.046,0.013-0.124,0.037-0.197,0.059c-0.03,0.01-0.062,0.018-0.093,0.028
	c-57.888,16.914-97.508,61.359-114.582,128.535c-7.586,29.849-1.785,61.509,15.914,86.861
	c17.745,25.417,45.552,41.814,76.294,44.989c3.346,0.344,6.718,0.626,10.083,0.842c1.837,6.59,3.382,12.261,4.604,16.911
	c2.059,7.831,5.608,16.417,10.551,25.517c5.905,10.872,16.486,17.048,28.072,17.048c3.354,0,6.79-0.516,10.221-1.587
	c9.1-2.839,16.019-8.896,19.77-16.677c7.72,4.858,17.333,6.189,26.904,3.205c9.086-2.832,15.995-8.877,19.751-16.655
	c7.732,4.913,17.381,6.269,26.986,3.272c14.411-4.499,23.33-17.115,22.857-31.868c6.823,2.65,14.399,4.016,22.66,4.016
	c5.381,0,11.071-0.626,16.986-1.758c-0.638,12.273,4.35,23.723,14.864,31.983c13.652,10.728,30.794,14.187,47.223,14.187
	c7.767,0,15.372-0.776,22.378-1.92c0.146,0.36,0.279,0.737,0.435,1.083c5.857,12.895,21.269,20.121,41.661,20.12
	c4.54,0,9.327-0.358,14.31-1.092c97.101-14.29,183.031-11.052,229.193-9.31c16.377,0.616,25.864,0.943,31.745,0.606
	c1.177,0.183,2.41,0.128,3.63-0.203c50.074-13.687,91.95-52.823,118.552-109.405c50.473-7.827,164.125-39.141,209.057-163.417
	c34.754-96.125,10.959-159.802-10.034-215.985c-14.946-39.994-27.852-74.534-18.511-115.264
	c9.821-42.826,30.509-64.503,48.762-83.627c24.153-25.307,45.012-47.162,21.568-102.138
	C1125.755,311.708,1094.794,296.439,1056.918,303.695z M798.696,73.162c2.134-0.613,3.681,0.368,4.246,0.815
	c0.684,0.54,1.816,1.75,1.72,3.788c-2.618,55.414-10.131,97.98-20.674,119.17c-4.481-5.068-9.245-9.845-14.142-14.469
	c8.442-16.998,11.063-50.413,11.848-67.022c0.236-4.992-4.512-8.682-9.314-7.296c-36.577,10.552-51.999,26.748-58.078,35.874
	c-5.742-2.803-11.567-5.453-17.555-7.765C706.393,121.415,732.868,92.152,798.696,73.162z M330.712,79.631
	c-0.096-2.038,1.035-3.246,1.718-3.786c0.44-0.347,1.468-1.011,2.895-1.011c0.419,0,0.873,0.056,1.355,0.196
	c68.474,19.755,94.333,50.518,102.993,64.699c-5.692,2.322-11.224,4.95-16.678,7.713c-5.302-8.727-20.299-26.242-59.063-37.426
	c-4.801-1.385-9.551,2.304-9.314,7.296c0.826,17.478,3.678,53.583,13.218,69.559c-5.061,4.929-9.966,10.033-14.567,15.448
	C341.735,182.568,333.481,138.289,330.712,79.631z M408.131,155.692c-0.014,0.008-0.028,0.017-0.042,0.025
	C408.102,155.709,408.117,155.701,408.131,155.692z M387.259,170.011c-0.1,0.077-0.2,0.154-0.299,0.231
	C387.059,170.164,387.159,170.088,387.259,170.011z M391.9,469.285c-64.28-41.678-88.814-122.943-58.337-193.229l5.399-12.447
	c30.63-70.643,97.312-118.332,174.021-124.455c27.44-2.192,47.648-3.301,60.066-3.301c0.013,0,0.028,0,0.042,0
	c12.218,0.003,32.093,1.098,59.071,3.256c76.649,6.133,143.29,53.819,173.915,124.447l5.516,12.72
	c30.425,70.165,5.984,151.369-58.113,193.084l-39.32,25.59c-85.7,55.772-196.512,55.867-282.306,0.24L391.9,469.285z
	 M315.639,1010.584c-4.549,3.585-9.372,7.098-14.334,10.444c-3.088,2.084-4.499,5.908-3.504,9.498
	c3.107,11.209,5.465,20.2,7.007,26.724c1.302,5.508,2.33,11.761,3.057,18.591c0.975,9.141-4.847,14.324-10.619,16.126
	c-5.761,1.798-13.465,0.847-17.845-7.192l-0.771-1.44c-2.094-3.958-6.715-5.875-10.997-4.561c-4.276,1.317-7.019,5.503-6.522,9.937
	l0.052,0.479c0.986,9.161-4.853,14.354-10.644,16.159c-5.778,1.805-13.522,0.849-17.91-7.243l-0.653-1.221
	c-2.097-3.953-6.718-5.862-10.991-4.548c-4.274,1.319-7.016,5.504-6.521,9.952l0.046,0.43c0.982,9.117-4.858,14.296-10.65,16.102
	c-5.783,1.808-13.53,0.866-17.906-7.188c-4.278-7.88-7.313-15.166-9.02-21.653c-1.605-6.104-3.746-13.905-6.363-23.187
	c-1.018-3.613-4.246-6.159-7.997-6.307c-5.073-0.2-10.223-0.568-15.307-1.093c-25.728-2.657-49.006-16.387-63.865-37.67
	c-14.814-21.22-19.673-47.708-13.327-72.674c15.484-60.925,51.003-101.103,102.661-116.174c0.041-0.011,0.082-0.024,0.124-0.035
	c0.03-0.008,0.059-0.017,0.087-0.025c51.761-14.912,103.262,0.048,148.931,43.246c18.712,17.701,28.773,42.682,27.602,68.536
	C348.286,970.529,335.959,994.58,315.639,1010.584z M893.65,957.234c-1.99,9.003-4.382,17.931-7.2,26.745
	c-22.123,69.178-65.236,117.528-118.505,133.049c-0.024,0.006-0.046,0.01-0.07,0.016c-3.036,0.693-17.225,0.158-32.242-0.409
	c-46.723-1.766-133.689-5.042-232.371,9.483c-20.643,3.047-34.582-2.251-37.669-9.05c-2.933-6.459,1.653-19.948,23.32-38.442
	c36.751-31.365,114.577-27.731,148.824-24.341c10.565,2.011,17.81,2.145,18.076,2.148c4.65-0.01,8.322-3.426,8.701-7.94
	c0.378-4.514-2.784-8.559-7.257-9.279c-1.188-0.19-8.605-1.352-19.977-2.45c-24.837-5.27-65.821-22.396-68.794-78.052
	c-2.899-54.3,22.819-98.731,68.798-118.851c44.387-19.429,94.263-10.199,127.058,23.514c3.338,3.43,8.822,3.507,12.252,0.169
	c3.43-3.336,3.506-8.822,0.169-12.252c-37.88-38.94-95.36-49.659-146.426-27.308c-9.299,4.07-17.834,9.036-25.64,14.722
	c13.126-37.522,21.247-62.875,21.347-63.189c1.457-4.558-1.056-9.433-5.615-10.89c-4.565-1.467-9.435,1.055-10.89,5.615
	c-0.124,0.388-12.633,39.447-31.777,92.526c-0.381,1.056-0.526,2.136-0.494,3.194c-13.735,18.618-22.387,41.07-25.222,66.068
	c-0.328,0.499-0.614,1.036-0.84,1.615c-18.295,46.906-34.199,84.193-49.968,117.189c-8.7,3.927-16.691,8.734-23.576,14.61
	c-19.037,16.249-27.075,29.665-29.454,40.323c-18.474,3.244-41.98,3.858-57.723-8.511c-16.38-12.87-3.816-31.723-1.131-35.371
	c8.55-11.621,27.841-24.392,45.926-11.949c3.94,2.711,9.336,1.715,12.049-2.225c2.713-3.942,1.716-9.337-2.225-12.049
	c-4.995-3.438-10.173-5.639-15.382-6.872c10.285-24.176,40.065-100.707,62.093-222.98c0.848-4.709-2.282-9.214-6.992-10.063
	c-4.699-0.839-9.213,2.283-10.063,6.992c-24.321,135.009-59.075,215.175-63.803,225.694c-14.148,2.709-27.107,11.693-35.559,23.182
	c-1.98,2.69-3.672,5.424-5.094,8.175c-20.384,5.852-36.355,4.519-47.4-4.159c-0.333-0.262-0.583-0.54-0.892-0.807
	c-0.115-0.515-0.219-1.056-0.339-1.561c-1.307-5.526-3.165-12.715-5.538-21.423c3.51-2.491,6.934-5.049,10.228-7.642
	c7.527-5.928,14.131-12.783,19.709-20.338c6.889-1.44,14.35-0.557,21.626,4.45c3.942,2.715,9.334,1.715,12.049-2.225
	c2.713-3.941,1.716-9.337-2.225-12.049c-2.916-2.007-5.898-3.571-8.908-4.801c5.178-18.02,17.577-74.277,31.091-230.419
	c6.357-73.46,22.405-155.708,45.745-235.734c39.873,20.701,83.613,31.091,127.37,31.091c47.772,0,95.528-12.382,138.237-37.049
	c27.865,59.66,70.549,117.943,126.91,186.939c54.571,66.803,75.323,163.243,55.865,252.381
	C893.761,956.704,893.695,956.965,893.65,957.234z M524.132,1042.816c9.351-20.292,18.858-42.294,28.969-67.108
	c5.308,28.602,20.069,47.106,36.841,59.028C568.849,1035.019,545.516,1037.093,524.132,1042.816z M1105.644,434.69
	c-18.815,19.714-42.231,44.248-53.118,91.719c-10.502,45.797,3.911,84.367,19.169,125.202
	c20.922,55.994,42.558,113.894,9.97,204.028c-38.022,105.163-126.76,139.32-184.648,150.331c2.098-5.452,4.108-10.995,5.937-16.713
	c2.57-8.037,4.773-16.171,6.689-24.363c37.373-16.374,98.089-55.765,116.631-142.818c19.319-90.692-12.722-141.818-43.709-191.261
	c-24.494-39.083-47.631-76.001-46.23-132.124c2.423-97.034,64.868-166.692,123.839-177.976c29.717-5.685,52.915,5.465,63.634,30.599
	C1142.773,395.788,1128.797,410.43,1105.644,434.69z M504.969,428.359c-2.141-2.365-1.959-6.019,0.408-8.158
	c2.363-2.142,6.016-1.962,8.158,0.408c16.159,17.859,31.519,17.421,39.229,15.57c8.31-1.992,13.054-6.555,13.94-8.446
	c0-0.009-0.004-0.018-0.004-0.026c0-0.417,0.049-0.821,0.133-1.213v-25.309l-18.555-18.157c-4.194-4.105-1.721-11.236,4.116-11.842
	c5.413-0.562,12.238-1.013,20.195-1.013c8.362,0,15.046,0.385,20.204,0.887c5.858,0.57,8.354,7.737,4.143,11.849l-18.551,18.117
	v26.679c0,0.008-0.003,0.017-0.003,0.025c0.882,1.89,5.626,6.455,13.941,8.447c7.717,1.85,23.072,2.285,39.227-15.57
	c2.138-2.366,5.793-2.551,8.158-0.408c2.366,2.139,2.548,5.793,0.408,8.158c-14.583,16.119-29.093,20.264-40.155,20.264
	c-6.807,0.001-12.306-1.568-15.716-2.883c-4.688-1.806-8.681-4.336-11.702-7.164c-3.021,2.827-7.013,5.358-11.701,7.164
	c-3.41,1.314-8.911,2.883-15.717,2.883C534.062,448.622,519.554,444.479,504.969,428.359z M707.562,378.535
	c24.905-10.539,45.988-15.929,58.68-18.535c7.345-1.508,12.04-8.896,10.093-16.137c-4.936-18.362-13.933-28.61-22.168-37.201
	c-19.008-19.831-40.614-13.396-41.027-13.569c-33.299,4.304-28.681,48.926-23.652,75.758
	C691.033,377.101,699.832,381.806,707.562,378.535z M720.466,308.971c5.98-0.021,10.846,4.81,10.867,10.79
	c0.021,5.98-4.81,10.846-10.79,10.867c-5.98,0.021-10.846-4.81-10.867-10.79C709.655,313.858,714.486,308.992,720.466,308.971z
	 M708.397,335.146c2.634-0.009,4.777,2.118,4.787,4.753c0.009,2.634-2.119,4.777-4.753,4.787c-2.634,0.009-4.777-2.119-4.787-4.753
	C703.634,337.299,705.762,335.156,708.397,335.146z M324.443,675.603c-9.583-4.572-20.496-4.637-29.873-0.836
	c-2.925-9.667-9.814-18.093-19.368-22.651c-8.669-4.135-18.425-4.645-27.473-1.441c-9.051,3.204-16.312,9.741-20.446,18.406
	c-0.422,0.886-0.805,1.801-1.176,2.806c-0.177,0.322-0.337,0.656-0.475,1.001c-9.341,23.373,7.989,60.25,19.15,80.148
	c3.493,6.233,10.09,9.997,17.081,9.997c1.089,0,2.189-0.092,3.287-0.279c22.491-3.85,62.056-13.589,74.341-35.553
	c0.176-0.314,0.33-0.639,0.462-0.97c0.556-0.931,1.031-1.813,1.458-2.709h-0.002C349.943,705.634,342.332,684.138,324.443,675.603z
	 M325.77,716.061h-0.002c-0.3,0.633-0.689,1.31-1.224,2.131c-0.322,0.495-0.585,1.017-0.793,1.56
	c-7.054,10.727-30.386,20.591-61.526,25.922c-0.932,0.148-1.867-0.286-2.33-1.111c-15.435-27.521-22.454-51.836-18.586-64.086
	c0.296-0.515,0.54-1.063,0.726-1.637c0.305-0.938,0.587-1.668,0.887-2.299c2.141-4.487,5.9-7.872,10.588-9.532
	c4.688-1.66,9.739-1.393,14.228,0.746c8.037,3.834,12.515,12.789,10.644,21.292c-0.864,3.93,1.093,7.94,4.724,9.677
	c3.634,1.737,7.98,0.745,10.498-2.396c5.372-6.696,15.418-8.879,23.376-5.084C326.247,695.663,330.188,706.796,325.77,716.061z
	 M219.677,566.988c-6.264-2.987-13.32-3.356-19.859-1.042c-6.133,2.172-11.096,6.499-14.193,11.88
	c-5.776-2.241-12.339-2.485-18.459-0.319c-6.542,2.317-11.791,7.043-14.779,13.307c-2.988,6.264-3.358,13.317-1.042,19.859
	c0.217,0.613,0.463,1.221,0.75,1.857c0.085,0.265,0.182,0.528,0.293,0.786c6.474,15.095,28.93,24.201,46.628,29.182
	c1.39,0.392,2.805,0.581,4.205,0.581c4.974,0,9.773-2.389,12.739-6.58c10.621-15.008,22.342-36.216,17.875-52.022
	c-0.075-0.268-0.164-0.53-0.265-0.787c-0.176-0.677-0.37-1.306-0.587-1.921v-0.001C230.666,575.225,225.941,569.976,219.677,566.988
	z M202.524,625.479c-17.408-5.046-30.43-12.077-33.839-18.24c-0.141-0.441-0.319-0.874-0.532-1.293
	c-0.173-0.34-0.341-0.686-0.472-1.056c-0.773-2.179-0.649-4.528,0.347-6.614c0.994-2.087,2.743-3.661,4.923-4.432
	c3.895-1.386,8.457,0.127,10.615,3.502c2.172,3.39,6.394,4.843,10.184,3.502c3.795-1.34,6.168-5.118,5.728-9.119
	c-0.439-3.994,2.194-8.054,6.125-9.446c2.18-0.773,4.525-0.649,6.613,0.347c2.087,0.994,3.661,2.743,4.432,4.923
	c0.133,0.371,0.219,0.747,0.299,1.124c0.097,0.451,0.23,0.89,0.396,1.314C218.585,596.917,212.889,610.586,202.524,625.479z
	 M246.533,1035.955c1.382,1.195,2.093,2.993,1.904,4.809c-0.189,1.823-1.216,3.379-2.815,4.264
	c-3.015,1.673-6.391,3.057-10.034,4.114c-3.877,1.122-7.464,1.805-10.665,2.026c-0.127,0.009-0.255,0.014-0.382,0.014
	c-1.668,0-3.26-0.761-4.314-2.084c-1.146-1.437-1.514-3.346-0.982-5.105l5.101-16.854c0.549-1.813,1.962-3.211,3.782-3.739
	c1.818-0.526,3.76-0.102,5.193,1.137L246.533,1035.955z M262.381,901.771c-4.311-1.458-8.904-0.77-12.603,1.881
	c-3.713,2.66-5.848,6.804-5.857,11.371c-0.044,22.512,0.822,41.836,2.575,57.435c0.566,5.039,3.686,9.247,8.347,11.258
	c1.814,0.781,3.707,1.166,5.584,1.166c2.96,0,5.878-0.957,8.364-2.826c16.716-12.567,31.536-20.97,41.024-25.807
	c4.005-2.042,6.727-5.759,7.466-10.2c0.73-4.39-0.619-8.734-3.702-11.917C295.653,915.627,275.843,906.319,262.381,901.771z
	 M276.27,936.342c-5.165,1.497-10.566-1.477-12.064-6.642c-1.497-5.165,1.477-10.566,6.642-12.064
	c5.165-1.497,10.566,1.477,12.064,6.642C284.409,929.444,281.436,934.845,276.27,936.342z M290.283,945.402
	c-2.275,0.659-4.654-0.65-5.314-2.926c-0.659-2.275,0.65-4.654,2.926-5.314c2.275-0.66,4.654,0.65,5.314,2.926
	C293.869,942.363,292.559,944.742,290.283,945.402z M455.778,369.796c4.839-26.866,9.143-71.52-24.186-75.589
	c-0.412,0.177-22.063-6.106-40.93,13.859c-8.173,8.649-17.098,18.961-21.905,37.357c-1.895,7.255,2.851,14.609,10.207,16.065
	c12.71,2.516,33.83,7.757,58.809,18.12C445.524,382.823,454.29,378.056,455.778,369.796z M394.502,345.913
	c-2.634,0.009-4.777-2.119-4.787-4.753c-0.009-2.634,2.119-4.777,4.753-4.787c2.634-0.009,4.777,2.119,4.787,4.753
	C399.265,343.761,397.137,345.904,394.502,345.913z M406.615,331.856c-5.98,0.021-10.845-4.81-10.867-10.79
	c-0.021-5.98,4.81-10.845,10.79-10.867c5.98-0.021,10.845,4.81,10.867,10.79C417.426,326.969,412.595,331.835,406.615,331.856z
	 M147.472,943.627c-2.371-3.904-6.342-6.346-10.896-6.7c-4.545-0.357-8.825,1.439-11.757,4.912
	c-9.166,10.857-21.303,29.072-27.067,54.185c-0.991,4.318,0.102,8.732,3,12.113c2.93,3.417,7.202,5.195,11.665,4.865
	c10.626-0.773,27.658-1.251,48.46,0.855c0.489,0.049,0.976,0.073,1.458,0.073c4.506,0,8.666-2.13,11.335-5.871
	c2.949-4.133,3.441-9.348,1.319-13.953C168.407,979.832,159.149,962.848,147.472,943.627z M140.451,975.897
	c-5.191,1.505-10.618-1.483-12.122-6.674c-1.504-5.191,1.483-10.618,6.674-12.122c5.191-1.504,10.618,1.483,12.122,6.674
	C148.629,968.965,145.641,974.392,140.451,975.897z M154.532,985.001c-2.286,0.663-4.677-0.654-5.34-2.94
	c-0.663-2.286,0.653-4.677,2.94-5.34c2.286-0.663,4.677,0.654,5.34,2.94C158.135,981.947,156.819,984.338,154.532,985.001z"/>
</svg>
