solid exported
	facet normal 0 1 2.220446049250313e-16
		outer loop
			vertex 527.9999694824219 9.078088825911941e-14 -408.8407745361328
			vertex -529.4485778808594 9.078088825911941e-14 -408.8407745361328
			vertex -529.4485778808594 -9.059420219754456e-14 408.00001525878906
		endloop
	endfacet
	facet normal 0 1 2.220446049250313e-16
		outer loop
			vertex -529.4485778808594 -9.059420219754456e-14 408.00001525878906
			vertex 527.9999694824219 -9.059420219754456e-14 408.00001525878906
			vertex 527.9999694824219 9.078088825911941e-14 -408.8407745361328
		endloop
	endfacet
	facet normal 0 -1 -2.2181605018073984e-16
		outer loop
			vertex -529.4485778808594 0.9999999999999094 408.00001525878906
			vertex -529.4485778808594 1.0000000000000906 -408.8407745361328
			vertex 527.9999694824219 1.0000000000000906 -408.8407745361328
		endloop
	endfacet
	facet normal 0 -1 -2.2181605018073984e-16
		outer loop
			vertex 527.9999694824219 1.0000000000000906 -408.8407745361328
			vertex 527.9999694824219 0.9999999999999094 408.00001525878906
			vertex -529.4485778808594 0.9999999999999094 408.00001525878906
		endloop
	endfacet
	facet normal -1 0 0
		outer loop
			vertex 527.9999694824219 9.078088825911941e-14 -408.8407745361328
			vertex 527.9999694824219 -9.059420219754456e-14 408.00001525878906
			vertex 527.9999694824219 1.0000000000000906 -408.8407745361328
		endloop
	endfacet
	facet normal -1 0 0
		outer loop
			vertex 527.9999694824219 -9.059420219754456e-14 408.00001525878906
			vertex 527.9999694824219 0.9999999999999094 408.00001525878906
			vertex 527.9999694824219 1.0000000000000906 -408.8407745361328
		endloop
	endfacet
	facet normal 0 0 -1
		outer loop
			vertex 527.9999694824219 -9.059420219754456e-14 408.00001525878906
			vertex -529.4485778808594 -9.059420219754456e-14 408.00001525878906
			vertex 527.9999694824219 0.9999999999999094 408.00001525878906
		endloop
	endfacet
	facet normal 0 0 -1
		outer loop
			vertex -529.4485778808594 -9.059420219754456e-14 408.00001525878906
			vertex -529.4485778808594 0.9999999999999094 408.00001525878906
			vertex 527.9999694824219 0.9999999999999094 408.00001525878906
		endloop
	endfacet
	facet normal 1 0 0
		outer loop
			vertex -529.4485778808594 -9.059420219754456e-14 408.00001525878906
			vertex -529.4485778808594 9.078088825911941e-14 -408.8407745361328
			vertex -529.4485778808594 0.9999999999999094 408.00001525878906
		endloop
	endfacet
	facet normal 1 0 0
		outer loop
			vertex -529.4485778808594 9.078088825911941e-14 -408.8407745361328
			vertex -529.4485778808594 1.0000000000000906 -408.8407745361328
			vertex -529.4485778808594 0.9999999999999094 408.00001525878906
		endloop
	endfacet
	facet normal 0 0 1
		outer loop
			vertex -529.4485778808594 9.078088825911941e-14 -408.8407745361328
			vertex 527.9999694824219 9.078088825911941e-14 -408.8407745361328
			vertex -529.4485778808594 1.0000000000000906 -408.8407745361328
		endloop
	endfacet
	facet normal 0 0 1
		outer loop
			vertex 527.9999694824219 9.078088825911941e-14 -408.8407745361328
			vertex 527.9999694824219 1.0000000000000906 -408.8407745361328
			vertex -529.4485778808594 1.0000000000000906 -408.8407745361328
		endloop
	endfacet
endsolid exported
