<?xml version="1.0" encoding="UTF-8" standalone="no"?>
<!-- Created with Inkscape (http://www.inkscape.org/) -->

<svg
   width="216.58386mm"
   height="252.09076mm"
   viewBox="0 0 216.58386 252.09076"
   version="1.1"
   id="svg1"
   inkscape:version="1.3.2 (091e20e, 2023-11-25, custom)"
   sodipodi:docname="gargoyle-path.svg"
   xmlns:inkscape="http://www.inkscape.org/namespaces/inkscape"
   xmlns:sodipodi="http://sodipodi.sourceforge.net/DTD/sodipodi-0.dtd"
   xmlns="http://www.w3.org/2000/svg"
   xmlns:svg="http://www.w3.org/2000/svg">
  <sodipodi:namedview
     id="namedview1"
     pagecolor="#ffffff"
     bordercolor="#000000"
     borderopacity="0.25"
     inkscape:showpageshadow="2"
     inkscape:pageopacity="0.0"
     inkscape:pagecheckerboard="0"
     inkscape:deskcolor="#d1d1d1"
     inkscape:document-units="mm"
     inkscape:zoom="1.0610059"
     inkscape:cx="421.76957"
     inkscape:cy="500.93973"
     inkscape:window-width="1954"
     inkscape:window-height="1387"
     inkscape:window-x="2558"
     inkscape:window-y="488"
     inkscape:window-maximized="0"
     inkscape:current-layer="layer1" />
  <defs
     id="defs1" />
  <g
     inkscape:label="Layer 1"
     inkscape:groupmode="layer"
     id="layer1"
     transform="translate(6.5838667,-16.032229)">
    <path
       style="display:inline;fill:#000000;stroke-width:0.352778"
       d="m 94.625464,268.07254 c -1.88725,-0.0626 -7.13724,-0.3459 -11.66664,-0.62964 -4.52941,-0.2837 -10.93749,-0.67465 -14.24018,-0.86878 -10.30283,-0.60551 -12.88389,-1.14805 -21.8571,-4.59437 -3.24568,-1.24657 -7.15353,-2.60166 -8.68412,-3.01135 l -2.78288,-0.74482 0.23428,-1.3977 c 0.12886,-0.76874 0.93255,-3.48227 1.786,-6.03007 1.30879,-3.90708 1.77984,-4.87905 3.00874,-6.20829 1.77706,-1.92214 2.09477,-2.53019 3.91085,-7.4847 1.35498,-3.69655 2.62297,-6.55208 2.90948,-6.55208 0.0709,0 0.67521,1.65993 1.34291,3.68875 0.6677,2.02879 1.49747,4.35586 1.84393,5.17123 l 0.62993,1.48255 4.62557,-3.0655 c 5.46253,-3.6202 7.54223,-5.66578 7.54223,-7.41856 0,-1.82573 0.47351,-2.7051 2.72506,-5.06077 1.67408,-1.75147 2.14045,-2.07487 2.39458,-1.66042 1.27358,2.07708 2.096,2.99025 3.12765,3.47281 2.43951,1.14106 2.52929,1.12596 3.35038,-0.56409 0.41539,-0.85499 0.75524,-1.84736 0.75524,-2.20528 0,-1.78252 -4.68612,-5.19431 -9.42133,-6.85935 -5.43135,-1.90983 -8.69193,-4.26272 -17.27728,-12.46752 -6.19768,-5.92296 -6.42438,-6.29137 -6.382,-10.37163 0.0492,-4.73921 1.55627,-9.15841 3.45398,-10.1283 0.5361,-0.27399 2.10048,-1.53412 3.47641,-2.80028 2.22485,-2.04736 5.18804,-3.71354 6.6043,-3.71354 1.16724,0 -0.80026,-12.18602 -3.43779,-21.29251 -4.6226,-15.9603 -11.47978,-27.05928 -19.99784,-32.36835 -3.549657,-2.2124 -5.341923,-2.82415 -9.061598,-3.09294 -3.64079,-0.26309 -6.386403,-0.98948 -7.338405,-1.94148 -0.993271,-0.99327 -0.853334,-1.23813 1.305673,-2.28458 3.466341,-1.6801 5.139301,-4.91803 5.957234,-11.52992 0.99157,-8.015513 -0.868786,-21.553868 -4.113583,-29.935709 -1.709444,-4.415783 -1.563179,-4.3521 -4.37745,-1.905896 -3.289469,2.859253 -8.1594253,8.427349 -10.3301193,11.811003 -3.84983604,6.001088 -4.63466804,9.889126 -2.993299,14.828702 0.530493,1.59649 0.848029,3.01922 0.705626,3.16162 -0.518107,0.5181 -3.461875,-1.50542 -4.575573,-3.14521 -3.581661,-5.273588 -3.309719,-13.5931 0.954204,-29.191808 2.597679,-9.503085 2.833359,-10.813715 2.869237,-15.955856 0.02762,-3.957253 -0.08468,-5.005247 -0.77051604,-7.191093 -0.724754,-2.309886 -2.53152996,-6.235753 -3.48103096,-7.563788 -0.38117,-0.533128 -0.364565,-0.299713 0.152562,2.144606 0.247174,1.168323 -0.427031,1.256588 -2.03019,0.26578 -3.844012,-2.375729 -2.200921,-10.270638 4.10804696,-19.738784 6.09537204,-9.1476 9.34146004,-9.13464 20.94856534,0.08362 5.908703,4.692639 17.623366,12.855472 23.914476,16.663708 5.32402,3.222826 15.55337,8.220223 19.43194,9.493186 7.19499,2.361424 10.43459,2.21996 11.96944,-0.522679 0.3168,-0.566078 0.47252,-0.53534 2.18333,0.430908 3.06866,1.733162 3.93821,4.383782 5.79531,17.665728 1.09707,7.846215 1.22502,8.414028 3.89021,17.263857 1.8355,6.094815 2.81152,10.047735 2.54637,10.312887 -0.39131,0.391308 -2.82969,-3.194474 -2.99781,-4.408449 -0.17155,-1.238698 -0.31697,-1.392791 -1.86957,-1.981108 -0.92595,-0.350866 -2.12264,-1.058612 -2.65931,-1.572772 -1.02073,-0.977931 -1.39347,-0.930042 -0.41067,0.05276 0.52469,0.52469 0.51162,0.618426 -0.18286,1.311271 -0.64182,0.640306 -0.79429,0.673153 -1.07454,0.231482 -0.45716,-0.720488 -0.41628,-2.185511 0.0747,-2.676465 0.25241,-0.252409 0.27299,-0.411765 0.0532,-0.411765 -0.55664,0 -1.49435,1.184261 -1.49435,1.887251 0,0.34773 0.24516,0.90314 0.5448,1.234243 0.29965,0.331103 0.67231,1.578553 0.82815,2.77211 0.15583,1.19356 0.53735,3.236806 0.84782,4.540553 0.51666,2.169601 0.51917,2.59406 0.0297,5.009717 -0.78921,3.89491 -0.70153,6.21063 0.31078,8.20833 0.46506,0.91775 1.01203,2.71071 1.2155,3.98436 0.39889,2.49694 0.73648,3.34664 1.78951,4.50416 l 0.67658,0.74372 -1.46947,1.59419 c -1.1548,1.25281 -2.59933,2.15317 -6.74571,4.20454 -6.9995,3.46288 -7.5918,4.10996 -10.60552,11.58635 -3.46244,8.58958 -4.02719,11.45413 -3.18406,16.15019 0.65388,3.64198 1.64637,6.44434 3.27313,9.24193 2.74811,4.726 3.14528,5.46638 3.40535,6.34803 0.24523,0.83134 0.23225,0.83929 -0.42007,0.25735 -1.07684,-0.96066 -1.20186,-0.7374 -0.96074,1.71568 0.55031,5.59851 2.04636,10.02337 6.15708,18.21069 2.38173,4.74369 2.53821,5.2084 1.75385,5.2084 -0.81352,0 -0.871,0.43657 -0.50149,3.80877 0.51148,4.66792 2.21766,9.39934 6.34079,17.58375 3.72162,7.38738 5.29474,11.35049 5.28917,13.32477 -0.004,1.58482 -1.50456,3.99493 -4.91299,7.89348 -2.40881,2.75519 -3.03533,3.72067 -3.67395,5.66176 -0.42345,1.28708 -1.13448,3.06846 -1.58006,3.95863 -1.0902,2.17794 -1.03825,2.86642 0.60482,8.01567 1.48608,4.65727 2.18746,6.32167 2.66389,6.32167 0.15771,0 0.22362,-0.4246 0.14646,-0.94361 l -0.14028,-0.94364 0.47842,1.02954 c 0.26314,0.56628 0.75598,1.25992 1.09521,1.54143 0.5625,0.46687 0.59841,0.45173 0.40807,-0.1717 -0.7529,-2.46598 -1.6637,-9.52358 -1.50526,-11.66396 0.22603,-3.05325 1.11701,-6.51965 2.07264,-8.06369 l 0.74331,-1.20099 0.0992,2.80134 c 0.074,2.09038 -0.0694,3.28083 -0.56492,4.69078 -0.60218,1.71333 -0.63983,2.42781 -0.40381,7.66434 0.14316,3.1762 0.35418,6.0065 0.46895,6.2896 0.11476,0.28307 0.38944,0.97794 0.6104,1.54411 0.38223,0.97942 0.43187,0.87112 1.02228,-2.2304 0.3413,-1.79289 0.62834,-4.2194 0.63785,-5.39224 0.0217,-2.6663 1.10398,-8.33032 2.24863,-11.76736 0.78808,-2.3664 2.59,-5.22937 3.02179,-4.80113 0.0951,0.0944 -0.21077,1.56125 -0.67981,3.25977 -0.49986,1.81014 -0.95866,4.65903 -1.10858,6.88365 -0.14067,2.08745 -0.36796,3.97689 -0.50509,4.19879 -0.17983,0.29097 -0.0293,0.32685 0.54013,0.12873 0.86621,-0.30141 1.95972,-2.3139 4.12223,-7.58652 3.17904,-7.75109 3.59499,-12.81726 1.64988,-20.09521 -0.98618,-3.68992 -1.13249,-4.86615 -1.40851,-11.3235 -0.33954,-7.94329 -0.6639,-10.83373 -1.72108,-15.33673 -0.76942,-3.27731 -0.97368,-3.58355 -2.01754,-3.02489 -0.66291,0.35478 -0.69337,0.27241 -0.69337,-1.87505 0,-1.2354 0.24654,-3.75002 0.54788,-5.58806 0.67616,-4.12438 0.46811,-7.22819 -0.74437,-11.10515 -1.21408,-3.88206 -3.54962,-9.85023 -3.95204,-10.09895 -0.17946,-0.11091 -0.79822,0.19544 -1.37501,0.68078 -1.21586,1.02308 -1.85527,1.14177 -1.52582,0.28323 0.12647,-0.32956 0.5386,-2.45272 0.91585,-4.71813 0.99154,-5.95421 2.19178,-8.01008 5.00815,-8.57836 l 1.10503,-0.22297 -0.93346,1.65493 c -0.89059,1.57893 -0.93282,1.86765 -0.91962,6.28727 0.0119,3.97654 0.123,4.90717 0.7848,6.57355 1.55338,3.91128 3.28414,5.60781 5.72096,5.60781 1.97173,0 3.12946,-0.89203 4.60979,-3.55185 0.68982,-1.23947 1.277616,-1.95686 1.417666,-1.73024 0.13159,0.21291 0.35312,3.87946 0.4923,8.1479 0.13918,4.26842 0.3641,8.06098 0.49983,8.42791 0.13574,0.36692 0.35045,-1.71524 0.47716,-4.62702 0.1267,-2.91179 0.32938,-6.88529 0.45041,-8.83002 l 0.22004,-3.53586 1.00856,2.10136 c 1.26815,2.64224 2.52491,3.52041 4.76322,3.32836 4.24393,-0.36414 7.40806,-6.02875 7.09705,-12.70556 -0.1397,-2.99884 -0.32046,-3.64347 -1.92468,-6.86344 -0.20833,-0.41816 2.39364,0.13837 3.24922,0.69497 1.12702,0.73318 1.76328,2.74332 2.16712,6.84653 0.42608,4.32919 0.79819,5.45278 2.02699,6.12062 0.85364,0.46394 0.86011,0.48776 0.13614,0.50084 -0.41807,0.007 -1.28772,-0.44949 -1.93256,-1.01567 -0.64484,-0.56617 -1.33065,-1.02941 -1.52403,-1.02941 -0.78903,0 -4.66142,10.69684 -5.25874,14.52642 -0.28516,1.8282 -0.24994,3.26515 0.15976,6.5196 1.00814,8.00794 1.00622,8.57023 -0.0262,7.7134 -0.76392,-0.63401 -1.27492,0.27418 -2.12261,3.77254 -1.02649,4.23619 -1.38849,7.23282 -1.39661,11.56112 -0.0103,5.51085 -0.57718,10.62144 -1.54362,13.91716 -2.0234,6.90009 -1.9324,10.2356 0.46975,17.2181 2.19948,6.39335 3.1236,8.40972 4.5601,9.94985 0.75245,0.80673 1.24641,1.15577 1.10041,0.77755 -0.1457,-0.37743 -0.29282,-2.07595 -0.32693,-3.77451 -0.0437,-2.17597 -0.3282,-3.99609 -0.96314,-6.16161 -1.06419,-3.62956 -1.12345,-4.39738 -0.32753,-4.24343 1.39081,0.26903 4.07385,9.20733 4.61682,15.38055 0.19089,2.17032 0.54394,5.25854 0.78455,6.86273 l 0.43748,2.91666 0.7876,-1.70156 c 0.72607,-1.56859 0.78658,-2.15836 0.77454,-7.54898 -0.009,-4.04421 -0.18248,-6.62157 -0.56245,-8.35766 -0.61433,-2.80684 -0.7209,-5.75017 -0.21942,-6.06012 0.45546,-0.28148 1.63153,2.13219 2.2952,4.7105 0.65149,2.531 0.48588,7.65058 -0.39505,12.21211 -0.69487,3.59805 -0.57228,4.42965 0.41909,2.843 0.69611,-1.11407 0.72807,-1.12695 0.85012,-0.34311 0.12129,0.77896 0.16024,0.76214 0.89449,-0.38654 0.42222,-0.66054 1.00343,-2.05024 1.29158,-3.08822 0.28815,-1.03798 0.82533,-2.82462 1.19375,-3.97027 0.8904,-2.76884 0.85093,-4.61274 -0.14115,-6.5926 -0.44605,-0.89017 -1.00757,-2.23612 -1.24782,-2.99103 -0.87569,-2.75149 -2.193,-4.82272 -4.79583,-7.54059 -5.27648,-5.50961 -5.23069,-6.28025 1.18298,-19.91035 4.23866,-9.00787 5.43269,-12.20365 6.19688,-16.58582 0.69182,-3.96719 0.66001,-4.76454 -0.20096,-5.0378 -0.38784,-0.12309 -0.65686,-0.3265 -0.59782,-0.45202 0.059,-0.12555 1.15279,-2.31281 2.43057,-4.86059 2.49592,-4.97667 4.63343,-11.05144 5.57798,-15.85248 0.67546,-3.43334 0.54746,-4.28248 -0.55649,-3.69166 -0.66065,0.35357 -0.70223,0.31742 -0.47632,-0.41413 0.37895,-1.22717 1.13538,-2.63196 2.83356,-5.26228 3.00916,-4.66092 4.19387,-8.66404 4.18466,-14.13993 -0.007,-3.89655 -0.66109,-6.58808 -2.50642,-10.30656 -0.82003,-1.65244 -1.84576,-3.9728 -2.2794,-5.15634 -0.43363,-1.18355 -0.94902,-2.25115 -1.1453,-2.37247 -0.23356,-0.14434 -0.25938,0.006 -0.0747,0.43622 0.15519,0.36123 0.35205,1.15274 0.43747,1.75893 0.14413,1.02289 0.0419,1.15727 -1.42194,1.86844 l -1.57724,0.76628 -0.94652,-0.90317 c -1.58837,-1.51562 -4.46431,-2.655 -6.7111,-2.65878 -3.34472,-0.006 -4.65781,1.05263 -6.59826,5.31776 -2.4774,5.44537 -5.62697,9.38966 -10.40997,13.0367 -0.99004,0.7549 -2.12389,1.91298 -2.51967,2.57352 -1.49641,2.49741 -2.96946,2.78702 -3.996206,0.78566 -0.38665,-0.75366 -1.75213,-2.12321 -3.34639,-3.35639 -3.46383,-2.67932 -6.0467,-5.77619 -8.34478,-10.00544 -4.02427,-7.40605 -4.96861,-8.35168 -8.34236,-8.35388 -2.33275,-10e-4 -5.00421,0.93184 -6.80179,2.37641 l -1.27822,1.02721 -1.4434,-0.56699 c -1.38304,-0.54327 -1.43528,-0.61701 -1.24924,-1.76344 0.53717,-3.31019 3.18005,-5.60166 9.96626,-8.64106 4.10242,-1.8374 6.72181,-3.74872 6.72181,-4.90477 0,-1.01112 0.56272,-0.60759 1.84427,1.32255 0.98678,1.48621 1.29936,2.34826 1.46194,4.03186 0.11374,1.1778 0.44383,2.51975 0.73353,2.9821 l 0.52673,0.84063 0.31171,-0.84063 c 0.40683,-1.09716 0.0408,-2.97507 -0.81385,-4.1753 -0.60462,-0.84912 -0.62323,-1.0133 -0.16661,-1.46992 0.58661,-0.5866 2.62188,-0.70132 2.62188,-0.14778 0,0.21011 0.29259,0.2734 0.68627,0.14845 0.91455,-0.29027 0.87357,-0.1142 -0.39103,1.67989 -0.7514,1.06602 -1.12813,2.05736 -1.24532,3.27698 -0.0924,0.96173 -0.30247,1.83171 -0.46681,1.93327 -0.66882,0.41335 -0.22511,1.54353 0.9602,2.44571 4.68483,3.56574 5.983,5.38657 8.511686,11.93862 0.55117,1.42814 0.80408,-1.11502 0.49422,-4.96971 -0.35416,-4.40593 -0.83454,-5.56557 -2.699676,-6.5171 -1.90125,-0.96993 -1.92406,-1.21491 -0.18912,-2.03043 2.060666,-0.96863 5.270436,-0.96748 7.378776,0.002 l 1.54411,0.71051 -0.84973,0.56872 c -1.92713,1.28983 -3.03019,2.51073 -3.22867,3.57358 -0.56867,3.04536 -0.88459,6.75892 -0.68798,8.0871 0.26047,1.75955 0.5287,1.56548 1.33988,-0.96942 1.33178,-4.16181 2.64346,-6.07184 6.01965,-8.76565 1.31412,-1.04851 2.62736,-2.2697 2.91831,-2.71374 0.49454,-0.75476 1.95602,-7.07434 1.69613,-7.33423 -0.40763,-0.40763 -1.21922,1.86459 -1.30839,3.6631 -0.0676,1.36352 -0.30002,2.32096 -0.64788,2.66881 -0.49452,0.49453 -0.50933,0.41835 -0.16758,-0.86201 0.41447,-1.5528 -0.1323,-3.07285 -2.22039,-6.17282 -0.78586,-1.16668 -0.87365,-1.44631 -0.39337,-1.25296 2.42308,0.97553 5.37247,0.23915 6.03112,-1.50581 0.21027,-0.55706 0.6611,-1.08575 1.00187,-1.17486 0.80467,-0.21042 0.79646,-1.13686 -0.0139,-1.57055 -0.34841,-0.18647 -0.91055,-1.07977 -1.2492,-1.98511 -1.18241,-3.16107 -1.89183,-3.33732 -1.89183,-0.47001 0,2.50843 -0.91366,3.4789 -3.22029,3.42054 l -1.41206,-0.0357 1.71569,-0.51731 c 2.18659,-0.65929 2.51429,-0.93895 2.31595,-1.97647 -0.2464,-1.28898 -0.95568,-1.72428 -1.51301,-0.92858 -0.62452,0.89163 -3.69125,1.565 -3.95828,0.86914 -0.33937,-0.88439 -1.47701,0.51743 -1.47701,1.82001 0,0.63128 -0.14926,1.14779 -0.3317,1.14779 -0.72851,0 -2.74989,-2.47552 -3.10834,-3.80669 -0.4724,-1.75437 -0.20338,-2.16476 0.33992,-0.51855 0.37128,1.125 0.4772,1.19577 1.49253,0.99731 0.60109,-0.1175 1.44824,-0.44341 1.88256,-0.72425 0.59458,-0.38446 0.88705,-0.41324 1.18382,-0.11647 0.46282,0.46282 1.62944,0.52931 1.62944,0.0929 0,-0.16571 -0.32724,-0.51856 -0.72719,-0.78412 l -0.72719,-0.48284 0.89876,-0.4095 c 0.53582,-0.24414 0.89876,-0.27391 0.89876,-0.0737 0,0.43348 0.87159,0.42342 2.50023,-0.0289 1.03641,-0.28781 1.3394,-0.56151 1.49768,-1.3529 0.21214,-1.06071 1.69589,-2.98816 3.41212,-4.43248 0.50545,-0.42537 0.55262,-0.96991 0.36621,-4.22792 -0.20194,-3.529403 -0.16579,-3.834757 0.64302,-5.430857 0.47134,-0.930152 0.93473,-1.691185 1.02975,-1.691185 0.095,0 -0.12631,0.586225 -0.49184,1.302724 -1.08605,2.128844 -1.17485,3.441636 -0.39651,5.862058 0.83002,2.58111 0.89296,4.76678 0.20443,7.09889 -1.33782,4.53133 -1.53597,5.65698 -1.14638,6.51205 0.61018,1.33919 0.8701,1.01026 1.30051,-1.64585 0.72075,-4.44772 1.05311,-5.59248 1.92257,-6.6218 l 0.85565,-1.013 -0.22961,1.20098 c -0.12628,0.66054 -0.51924,1.94015 -0.87324,2.84359 -0.38451,0.98131 -0.63161,2.4318 -0.61379,3.60293 l 0.0299,1.96033 0.60408,-2.57352 c 0.33224,-1.41544 1.01215,-3.42279 1.51092,-4.46078 1.05723,-2.20024 1.11065,-3.1997 0.36298,-6.79141 -0.37481,-1.800525 -0.4824,-3.411633 -0.33701,-5.046804 0.11747,-1.321075 0.31078,-3.482837 0.42959,-4.803916 0.15832,-1.760506 0.43159,-2.68551 1.02327,-3.463756 0.9885,-1.30018 1.02495,-2.237764 0.11888,-3.057743 -0.95838,-0.867322 -1.11983,-0.518185 -0.53149,1.149357 0.27674,0.784338 0.3669,1.426072 0.20037,1.426072 -0.61724,0 -1.38246,2.221865 -1.38246,4.014054 0,1.01739 -0.25186,2.852451 -0.55969,4.07792 -0.57334,2.282522 -0.5666,2.413321 0.44949,8.721726 0.40932,2.54126 -0.58645,0.43503 -1.2657,-2.67718 -0.58524,-2.681491 -0.63451,-3.508232 -0.32715,-5.489245 0.19903,-1.282753 0.31621,-3.531465 0.2604,-4.99714 l -0.10146,-2.664858 -1.05563,1.03396 c -0.5806,0.568677 -1.23226,1.623483 -1.44814,2.344017 -0.25548,0.852703 -0.75809,1.526015 -1.4397,1.928651 l -1.04719,0.618592 1.037,-1.635175 c 0.57035,-0.899346 1.03699,-1.900794 1.03699,-2.225438 0,-0.576174 1.80934,-2.206798 3.33787,-3.008175 0.6434,-0.337323 0.7326,-0.318033 0.56377,0.12192 -0.23756,0.619079 0.57622,0.711447 1.15641,0.131258 0.29309,-0.293095 0.24785,-0.581685 -0.18015,-1.149096 l -0.57154,-0.75771 -0.63397,0.80596 c -0.34868,0.443279 -0.89722,0.805959 -1.21898,0.805959 -1.06474,0 -2.17911,1.099686 -3.00361,2.964011 -0.44753,1.011946 -0.95742,1.839902 -1.13309,1.839902 -0.17567,0 -0.58819,0.103145 -0.91671,0.22921 -0.89749,0.344399 -0.5339,-1.581954 1.87347,-9.925918 2.43292,-8.432517 2.88906,-10.60632 3.7975,-18.097365 0.74087,-6.109317 1.63397,-10.141091 2.71637,-12.262774 0.66957,-1.312471 3.17471,-3.864649 3.79342,-3.864649 0.17274,0 0.53626,-0.08526 0.80781,-0.189463 0.32099,-0.123176 0.64334,0.171739 0.92136,0.842931 0.61133,1.475881 2.00321,1.852574 5.1874,1.403883 6.90825,-0.973459 14.73103,-4.290731 25.36535,-10.756248 6.06945,-3.690143 14.88046,-9.627259 18.86289,-12.710378 5.95709,-4.611855 12.77766,-9.488295 14.49575,-10.363875 4.42961,-2.25746 7.59132,-0.3539 12.78505,7.697468 5.72869,8.880595 6.81979,15.571155 2.95988,18.149732 -1.59996,1.068853 -2.15809,1.020649 -1.9073,-0.164726 0.5194,-2.455013 0.4087,-2.492845 -0.75304,-0.257355 -4.58364,8.820361 -4.60972,12.739062 -0.19748,29.681324 1.95784,7.517913 2.51961,11.065986 2.72948,17.239954 0.25946,7.63162 -0.50681,10.981386 -2.98997,13.070826 -1.05551,0.88816 -3.26157,1.5469 -3.70283,1.10568 -0.12895,-0.12898 0.13603,-1.18979 0.58886,-2.35737 1.94038,-5.002944 1.05325,-10.079088 -2.75028,-15.736801 -2.13737,-3.179325 -6.66758,-8.327576 -9.85997,-11.205149 l -2.79047,-2.515203 -1.04044,1.640608 c -3.22681,5.088152 -5.40017,17.791803 -5.06906,29.629475 0.25618,9.15844 1.47039,12.03721 5.92992,14.05926 1.83156,0.83047 2.14236,1.09519 1.98634,1.69181 -0.10173,0.38901 -0.36286,0.85494 -0.5803,1.0354 -0.70756,0.58723 -5.78986,1.7532 -7.64194,1.7532 -8.56747,0 -16.15193,6.59552 -22.68874,19.73036 -4.68614,9.41615 -8.39981,21.72788 -9.67478,32.07428 -0.4853,3.93823 -0.45855,4.45695 0.24219,4.69714 2.8237,0.96784 4.66068,2.09971 6.62593,4.08258 1.20196,1.21274 2.67656,2.36709 3.2769,2.56522 1.34429,0.44365 2.21657,2.28675 3.06526,6.47673 0.68043,3.35929 0.52676,5.85237 -0.48268,7.83103 -0.90798,1.77977 -13.36873,13.61137 -16.63532,15.79538 -1.52278,1.01812 -3.59772,2.00537 -5.4626,2.59913 -3.11187,0.99077 -7.08124,3.35079 -8.96944,5.33287 -1.1283,1.18442 -1.25351,2.462 -0.40257,4.10757 0.73638,1.42399 0.87305,1.46396 2.74631,0.80331 1.35452,-0.47773 1.85887,-0.90999 2.83573,-2.4305 l 1.18818,-1.84944 1.89896,1.84944 c 2.09774,2.04304 2.85211,3.43891 2.85211,5.27745 0,1.79543 2.05153,3.81882 7.54901,7.44552 l 4.63234,3.05597 0.58618,-1.30299 c 0.3224,-0.71666 1.159,-3.03752 1.85911,-5.15747 0.97955,-2.96612 1.37195,-3.77228 1.70259,-3.49789 0.23631,0.19614 1.14535,2.3 2.02009,4.67526 1.85832,5.04609 2.89913,7.19821 4.23413,8.75509 1.98594,2.31602 3.26732,5.19148 4.65847,10.45369 0.59366,2.24557 0.71849,3.1925 0.43501,3.29978 -17.7399,6.71368 -22.07733,7.82083 -33.16711,8.46589 -3.49142,0.20309 -10.13112,0.58882 -14.75489,0.85718 -9.40018,0.54553 -20.041466,0.81841 -25.220536,0.64667 z m -31.89225,-13.9217 c -0.29379,-0.41946 -0.53417,-1.20336 -0.53417,-1.74209 0,-1.01558 -0.78971,-1.94744 -3.19672,-3.77215 -1.18157,-0.89574 -1.26405,-1.07886 -1.26405,-2.80638 0,-1.17045 0.18539,-2.03348 0.5056,-2.3537 0.77437,-0.77438 2.93941,-2.04611 3.14068,-1.84485 0.20479,0.20479 -0.54374,1.59508 -1.77773,3.30189 -1.05979,1.46587 -0.89595,1.76386 2.62529,4.77471 2.95191,2.52405 5.61036,4.3524 6.82967,4.6971 0.71314,0.20161 0.61542,0.0321 -0.5794,-1.00592 -1.03352,-0.89774 -1.46726,-1.558 -1.54411,-2.35048 -0.0805,-0.83044 -0.39369,-1.27226 -1.27067,-1.79278 -1.78355,-1.05858 -3.12542,-2.44832 -3.12542,-3.23688 0,-0.39144 0.52402,-1.29117 1.16449,-1.99944 1.6381,-1.81151 8.16284,-5.62871 8.70109,-5.09044 0.44983,0.44982 -1.08529,3.57346 -2.30351,4.68711 -1.61536,1.47673 -1.9732,2.65377 -1.36607,4.4934 0.35388,1.07227 0.36495,1.60239 0.0508,2.43459 -0.22086,0.58515 -0.34914,1.11629 -0.28507,1.18036 0.21698,0.21699 1.24412,-0.31401 1.24412,-0.64319 0,-0.17981 0.75126,-1.12835 1.66947,-2.10788 1.10384,-1.17753 2.45943,-3.34105 4.00108,-6.3857 2.35368,-4.64834 3.76823,-6.46363 6.80697,-8.73538 4.73248,-3.53793 2.69042,-12.58556 -5.23714,-23.20392 -4.58395,-6.13982 -8.0194,-9.02145 -13.3217,-11.17417 -2.01282,-0.81717 -1.53691,-1.17845 1.55501,-1.18046 h 2.63906 l -1.02941,-0.83252 c -0.56617,-0.45787 -2.4522,-1.71609 -4.19116,-2.79601 -1.73896,-1.07989 -3.08465,-2.08824 -2.99041,-2.24071 0.0942,-0.15247 0.71055,-0.37839 1.36958,-0.50203 1.71019,-0.32082 2.51795,-1.95054 1.17763,-2.37595 -0.58948,-0.18709 -1.79607,0.0622 -5.30441,1.09596 -0.45436,0.13388 -0.13206,-0.40372 0.9888,-1.64933 0.91458,-1.01637 1.98214,-2.50419 2.37235,-3.30627 0.53329,-1.09618 0.90826,-1.45834 1.50997,-1.45834 1.17401,0 2.95427,0.82532 4.76868,2.21072 1.83244,1.39917 2.35754,1.49657 2.87326,0.53295 0.9466,-1.76875 -1.29439,-5.26637 -4.50999,-7.03895 -3.89388,-2.14648 -8.40865,-1.01412 -13.1015,3.28602 -1.25545,1.1504 -2.80697,2.23641 -3.44783,2.41335 -1.40959,0.38921 -2.37947,2.33997 -3.01974,6.07372 -0.68684,4.00534 -0.0894,5.81523 2.96793,8.99097 1.36359,1.41644 3.09947,3.50199 3.85751,4.63458 0.75803,1.13259 2.06181,2.68937 2.89727,3.45948 2.16829,1.99863 7.65784,5.17955 10.80712,6.26219 6.76853,2.32679 11.78375,6.57102 11.78375,9.97222 0,1.62239 -0.50705,2.55249 -2.27775,4.17827 -0.91025,0.83573 -2.35285,2.24776 -3.20578,3.13785 -1.60931,1.67944 -4.24015,3.06839 -8.06991,4.26053 -1.79292,0.5581 -2.51195,1.08032 -5.57597,4.04979 -2.40893,2.33461 -3.51762,3.65241 -3.51762,4.18108 0,1.40364 0.59951,2.38379 2.04192,3.3383 0.84144,0.55686 2.05261,1.91351 2.95856,3.31396 1.27395,1.96935 2.61877,3.42914 3.15904,3.42914 0.0631,0 -0.1257,-0.34318 -0.41948,-0.76263 z m 78.633546,0.24281 c 0.40816,-0.28585 1.38197,-1.6444 2.16403,-3.01893 1.04806,-1.8421 1.82833,-2.75629 2.96768,-3.47708 3.06483,-1.93897 2.71536,-3.42957 -1.80786,-7.71119 -2.49871,-2.3652 -3.2405,-2.85553 -5.70874,-3.77342 -4.50627,-1.6758 -7.24005,-3.16735 -7.741,-4.22342 -0.24384,-0.51407 -1.34236,-1.62645 -2.44114,-2.47195 -4.0782,-3.1381 -4.06091,-5.90557 0.0604,-9.67225 2.06661,-1.88874 4.58601,-3.32522 8.65742,-4.93618 6.46876,-2.55947 10.68273,-5.70251 14.13845,-10.54526 0.84058,-1.17796 2.42012,-2.95438 3.51009,-3.94755 2.947,-2.68535 3.30564,-3.83526 2.77963,-8.9124 -0.41043,-3.96151 -1.0124,-5.17078 -3.04122,-6.10935 -0.88146,-0.40777 -2.48687,-1.66137 -3.56756,-2.78577 -2.39415,-2.49097 -4.39354,-3.44195 -7.68443,-3.65502 -5.2611,-0.34062 -9.74084,2.70586 -9.73088,6.61754 0.006,2.4424 0.29525,2.47381 3.38756,0.36819 1.93318,-1.31635 3.14339,-1.91231 3.88332,-1.91231 1.18191,0 2.32921,0.82833 2.33122,1.68308 0.002,0.82039 1.31248,2.8284 2.52739,3.87242 1.21678,1.04562 1.14043,1.04804 -2.31701,0.0736 -1.68585,-0.47513 -3.2999,-0.34603 -3.2999,0.26394 0,0.84773 0.77564,1.5963 1.86592,1.80084 0.65903,0.12365 1.27519,0.34932 1.36924,0.50147 0.0941,0.15219 -1.67564,1.4973 -3.93263,2.98916 l -4.10362,2.71247 2.71656,0.17159 c 3.33873,0.21086 3.62712,0.44295 1.50489,1.21106 -3.43359,1.24273 -4.79086,2.08336 -7.43073,4.60223 -3.12828,2.98485 -6.28987,6.91469 -8.73624,10.85903 -6.53608,10.53836 -6.90549,15.63455 -1.419,19.57617 1.76527,1.26824 4.4804,5.21173 6.46419,9.38869 1.00009,2.10576 4.65996,7.05926 5.6048,7.58588 0.335,0.18673 0.44742,-0.45893 0.48953,-2.81139 l 0.0547,-3.05382 -1.54748,-1.72117 c -1.4283,-1.58859 -2.80277,-4.62294 -2.315,-5.11072 0.41632,-0.41632 6.08274,2.86212 7.87312,4.55517 2.71735,2.56967 2.58588,4.15078 -0.44492,5.35076 -1.35846,0.53784 -2.13094,1.5519 -2.13094,2.79738 0,0.64322 -0.38688,1.24256 -1.28676,1.99337 l -1.28676,1.07361 1.37254,-0.54324 c 0.75491,-0.29877 2.0674,-1.15799 2.91667,-1.90938 0.84926,-0.75138 2.33733,-1.89512 3.30682,-2.54165 0.96949,-0.64654 2.01177,-1.42459 2.31617,-1.729 0.81732,-0.81732 0.69353,-2.68538 -0.2534,-3.82369 -0.94932,-1.1412 -1.78738,-2.64855 -1.37106,-2.46602 0.15987,0.0701 1.10134,0.55379 2.09214,1.07491 1.74214,0.91624 1.80132,0.99526 1.79679,2.39998 -0.008,2.32361 -0.31007,2.90689 -2.10549,4.05903 -1.68296,1.07996 -2.69374,2.44884 -2.69374,3.64814 0,0.34484 -0.24038,0.97014 -0.53417,1.3896 -0.61902,0.88377 -0.28363,0.98813 0.78044,0.24281 z m 0.0969,-13.56903 c 0,-0.19988 0.15441,-0.26797 0.34313,-0.15134 0.18873,0.11666 0.34314,0.28018 0.34314,0.3634 0,0.0832 -0.15441,0.1513 -0.34314,0.1513 -0.18872,0 -0.34313,-0.16351 -0.34313,-0.36336 z M 57.161034,150.3556 c 0.24145,-5.65122 1.11518,-13.70047 2.46903,-22.74585 2.07744,-13.87988 1.39361,-21.39701 -2.27254,-24.98135 -2.06858,-2.02242 -4.08487,-1.38912 -6.80575,2.13765 -1.08582,1.40742 -3.6878,3.5232 -10.18574,8.28247 l -8.727374,6.39217 1.983644,1.1936 c 10.16657,6.11744 17.95154,17.58651 22.24421,32.77091 0.35615,1.25981 0.74434,2.23076 0.86264,2.15765 0.11829,-0.0731 0.31264,-2.41637 0.43188,-5.20725 z m 89.952076,3.43084 c 0.45681,-1.82007 3.36817,-9.57336 4.73523,-12.61047 4.53953,-10.08516 10.15302,-16.6972 17.515,-20.63065 l 2.00745,-1.07256 -1.65704,-1.1986 c -0.91136,-0.65922 -2.89232,-2.02345 -4.40213,-3.0316 -3.42322,-2.28583 -10.21065,-7.63012 -11.82635,-9.31186 -0.66706,-0.69432 -1.84234,-1.96822 -2.61174,-2.83088 -1.27143,-1.42556 -1.54042,-1.56846 -2.95233,-1.56846 -2.52776,0 -3.98381,1.85996 -5.24421,6.69895 -0.73793,2.8331 -0.66816,8.66664 0.18135,15.16289 0.38965,2.97964 0.99853,7.63383 1.35308,10.34264 0.35455,2.70882 0.90028,8.26763 1.21273,12.35292 0.31245,4.0853 0.63456,7.78155 0.7158,8.2139 0.18383,0.97835 0.66166,0.72489 0.97316,-0.51622 z m -15.00615,-26.09361 c -0.72758,-0.75943 -3.61249,-2.74142 -2.99626,-2.0585 0.38088,0.4221 3.6012,3.00483 3.74663,3.00483 0.0859,0 -0.25172,-0.42585 -0.75037,-0.94633 z m -3.33939,-2.30023 c 0,-0.0871 -1.81962,-1.08603 -4.04361,-2.21988 -4.66266,-2.37717 -7.17666,-4.29673 -6.57568,-5.02086 0.21134,-0.25466 0.28229,-0.62802 0.15765,-0.82968 -0.12464,-0.20167 -0.0313,-0.32425 0.20743,-0.27239 0.23873,0.0519 0.49315,-0.17593 0.56538,-0.5062 0.19348,-0.88474 -0.50458,-0.73003 -1.1499,0.25485 -1.32537,2.02278 0.59063,4.19203 5.57778,6.31504 1.85553,0.7899 3.75972,1.65599 4.23154,1.92465 0.9724,0.55371 1.02941,0.57334 1.02941,0.35447 z M 24.675218,116.59397 c 7.068055,-2.16843 18.197916,-9.68719 25.220566,-17.037718 7.79682,-8.160844 15.94549,-23.201637 18.29397,-33.766971 1.16725,-5.251185 0.56536,-4.640933 -3.73757,3.789521 -4.32053,8.464931 -9.03091,15.993879 -13.22831,21.14375 -7.55107,9.264572 -17.44019,18.494848 -26.115642,24.375748 -3.916232,2.65472 -3.887502,2.55549 -0.433014,1.49567 z m 156.060402,0.4367 c -0.17929,-0.15674 -2.56495,-1.88378 -5.30146,-3.83785 -6.60456,-4.71616 -9.45024,-7.02529 -13.50207,-10.95626 -9.56819,-9.282812 -17.26593,-20.336888 -25.77292,-37.010323 -1.08843,-2.133286 -2.03544,-3.822224 -2.10447,-3.753196 -0.069,0.06903 0.3233,1.891651 0.87184,4.05027 5.69241,22.400697 18.66177,38.981029 38.10566,48.715199 3.6816,1.84311 8.69741,3.66113 7.70342,2.79216 z M 29.089922,108.89533 c 4.125342,-2.9598 5.973322,-4.7065 11.421292,-10.795338 7.96543,-8.902421 14.19428,-19.166201 15.12001,-24.914425 2.03945,-12.663819 -13.84919,-11.086617 -22.84169,2.267401 -1.618774,2.403906 -3.791648,6.929095 -4.991904,10.396047 -1.062362,3.068648 -1.089103,3.288714 -0.946595,7.790201 0.24928,7.874214 0.120301,11.712824 -0.468619,13.946564 -0.629299,2.38691 -0.693106,3.21027 -0.248783,3.21027 0.168893,0 1.499221,-0.85533 2.956289,-1.90072 z m 148.059638,1.4718 c -1.5e-4,-0.23591 -0.24864,-1.58701 -0.55218,-3.00245 -0.44959,-2.09647 -0.51529,-3.8826 -0.35441,-9.635507 0.22373,-8.000594 -0.0891,-10.097402 -2.28207,-15.294846 -4.75691,-11.274255 -12.09645,-17.640895 -20.30223,-17.611061 -8.81324,0.03203 -8.87807,8.462909 -0.16748,21.781646 6.69025,10.229575 13.93093,18.092178 21.03844,22.845478 2.14343,1.43346 2.62038,1.60035 2.61993,0.91674 z m 27.78908,-23.099447 c 0.006,-2.030459 -0.42308,-3.588248 -2.96541,-10.762051 -2.22667,-6.283169 -3.34016,-10.747971 -4.05361,-16.254034 -1.13642,-8.770211 -0.62768,-11.949448 3.0707,-19.189802 1.41958,-2.779141 2.58106,-5.208524 2.58106,-5.398622 0,-0.190101 -0.81068,-0.761622 -1.80149,-1.270049 -5.0312,-2.581734 -13.37945,-0.622392 -20.41431,4.791255 -6.34327,4.881446 -8.23984,9.845258 -5.66338,14.822547 1.50317,2.903883 3.79492,5.489465 9.74424,10.99356 9.62395,8.903737 16.58512,17.804948 18.47082,23.618514 0.55058,1.697408 1.02405,1.077056 1.03138,-1.351318 z M 2.1023977,83.1437 c 2.087809,-3.998486 6.352734,-8.940719 15.5200913,-17.984833 7.410499,-7.310871 8.278251,-8.28796 9.29453,-10.465668 C 29.83163,48.447714 27.83494,43.43114 20.48909,38.543382 14.091984,34.286893 8.4346527,32.405518 4.4929997,33.223804 c -2.048062,0.425175 -5.08883704,2.126911 -5.08662904,2.846673 7.06e-4,0.240062 1.007759,2.21221 2.23782804,4.382548 3.30193,5.825941 3.775506,7.594088 3.722166,13.897038 -0.05373,6.34782 -1.035876,11.869138 -3.563091,20.030464 -2.34963104,7.587834 -2.73283504,9.357215 -2.72180404,12.567521 l 0.0094,2.745095 0.796865,-1.917097 C 0.32600866,86.721639 1.3225947,84.637086 2.1023647,83.1437 Z M 19.056425,67.672144 C 26.217739,63.142569 47.812114,56.47648 63.998764,53.79864 c 3.73649,-0.618148 2.76952,-0.876053 -2.17553,-0.580256 -8.26998,0.494682 -20.16155,2.937414 -26.68051,5.480628 -6.637009,2.589266 -17.894585,8.606388 -17.894585,9.564571 0,0.485987 0.217152,0.414965 1.808286,-0.591439 z M 184.35571,67.182965 c -8.23696,-7.107104 -30.9282,-14.133227 -45.22583,-14.00374 l -3.32801,0.03013 8.92155,1.802271 c 10.6559,2.152625 15.62363,3.410394 21.6927,5.492316 4.11484,1.411548 15.44087,6.076223 17.58294,7.24161 1.45869,0.793598 1.62479,0.531594 0.35665,-0.562596 z M 45.213784,45.659429 C 38.345994,42.050717 33.582844,38.81735 23.433539,30.87435 13.120208,22.802987 12.379276,22.278947 10.499055,21.726237 c -1.9616243,-0.57663 -3.5240523,-0.21518 -4.5744273,1.05824 -0.487588,0.591133 -0.436753,0.611619 0.964996,0.38882 2.677657,-0.42559 3.7513013,0.156583 12.6869153,6.879419 12.870021,9.682935 18.955765,13.599936 25.294105,16.280183 4.51188,1.907903 4.66898,1.599565 0.34314,-0.67347 z M 159.85449,45.387606 c 6.54497,-3.171666 16.76654,-9.742783 23.08957,-14.843534 8.5491,-6.896512 10.10329,-7.816785 12.2769,-7.269465 0.88239,0.22219 1.73796,0.258755 2.0442,0.08737 0.82204,-0.46003 -1.05666,-1.52119 -3.02863,-1.71067 -2.32399,-0.22331 -4.17771,0.80808 -10.73866,5.974854 -14.08223,11.089816 -21.9935,16.613437 -27.6225,19.285934 l -0.85785,0.407282 0.85785,-0.209607 c 0.47181,-0.115284 2.26241,-0.890259 3.97912,-1.722166 z M 121.93192,256.77212 c 0.0165,-0.39974 0.0978,-0.48105 0.20731,-0.2073 0.0991,0.24769 0.0869,0.54363 -0.0271,0.65769 -0.11402,0.11402 -0.19512,-0.0887 -0.18022,-0.45039 z m -41.588686,-3.05965 c -0.1175,-0.1887 -0.32243,-1.11516 -0.45541,-2.05881 -0.13297,-0.94361 -0.53868,-2.22634 -0.90156,-2.85048 -0.91278,-1.56993 -0.84862,-1.98896 0.6868,-4.48518 0.83661,-1.36013 1.43322,-2.82127 1.57607,-3.85992 0.31798,-2.312 1.0261,-2.67941 0.75517,-0.39183 -0.20442,1.726 -0.7662,3.21476 -1.87117,4.95875 -0.55011,0.86826 -0.54807,1.06257 0.0359,3.4314 0.56273,2.28265 0.68866,6.08246 0.17419,5.25607 z m 42.624096,-2.05881 c -0.0181,-1.51052 0.16055,-2.7651 0.4815,-3.38049 0.62021,-1.18918 0.41777,-2.20345 -0.91303,-4.5745 -0.67215,-1.19758 -1.0086,-2.29479 -1.02996,-3.35898 -0.0439,-2.18909 0.27933,-2.29859 0.56897,-0.19268 0.15925,1.15788 0.64774,2.34018 1.44695,3.50202 1.35324,1.96727 1.76917,3.891 1.10791,5.12431 -0.24226,0.45184 -0.7089,1.82517 -1.03698,3.05188 l -0.5965,2.2304 z m -4.44422,-60.79246 c 0.0692,-0.15723 0.52825,-1.05793 1.02007,-2.00155 1.3384,-2.56793 1.92961,-4.68636 2.66347,-9.54369 0.52624,-3.48314 0.84907,-4.66332 1.55376,-5.6802 0.48924,-0.70596 0.88952,-1.49916 0.88952,-1.76267 0,-0.32638 0.11182,-0.36728 0.3508,-0.12829 0.23898,0.23898 0.12493,0.86143 -0.3578,1.95274 -0.76817,1.73657 -1.3588,5.8955 -1.36295,9.59716 -0.003,2.61356 -0.61023,4.3963 -1.99384,5.85293 -0.91931,0.96782 -3.00386,2.26062 -2.76303,1.71357 z m -35.267196,-0.77264 c -0.5915,-0.36068 -1.51796,-1.23559 -2.05882,-1.94425 -0.96265,-1.26133 -0.9877,-1.40474 -1.18917,-6.80617 -0.198,-5.30841 -0.51646,-7.05928 -1.56355,-8.59648 -0.54641,-0.80218 -0.58784,-1.21041 -0.12284,-1.21041 0.71929,0 2.4182,4.13364 2.78486,6.77586 0.75306,5.42667 1.32212,7.69684 2.51717,10.0418 1.31552,2.58132 1.28094,2.74491 -0.36765,1.73965 z m 47.333156,-30.17017 c 0.11415,-1.48021 0.63887,-4.52984 1.16605,-6.77695 0.74633,-3.18119 0.95793,-4.92402 0.95586,-7.87276 -0.002,-3.57472 -0.0651,-3.91387 -1.11519,-6.04701 -1.60382,-3.25781 -1.52591,-3.46794 0.92263,-2.48823 2.01278,0.80536 2.60438,2.57357 2.57289,7.69001 -0.0285,4.6342 -0.42909,6.68947 -2.00021,10.26284 -0.63553,1.44546 -1.42058,3.81955 -1.74456,5.27576 -0.32397,1.4562 -0.67364,2.64764 -0.77703,2.64764 -0.10339,0 -0.0946,-1.21108 0.0196,-2.6913 z m -58.564556,-0.39693 c -0.35211,-1.22672 -1.27858,-3.7745 -2.05882,-5.66176 l -1.41862,-3.43136 0.001,-5.49019 c 0.002,-6.77144 0.42159,-8.03596 2.83643,-8.54285 0.80591,-0.16917 1.54495,-0.22793 1.64229,-0.13059 0.0974,0.0974 -0.3922,1.47105 -1.08789,3.05267 -1.82297,4.14448 -1.86231,5.84382 -0.31549,13.62915 1.35975,6.84383 1.59746,10.74436 0.40069,6.57493 z m 33.673696,-6.00489 c 0.42385,-0.78457 2.73047,-3.0168 5.76884,-5.58276 2.7026,-2.28241 3.64341,-3.68337 5.50813,-8.20225 1.91127,-4.63166 2.67724,-5.77724 4.4375,-6.63672 2.04309,-0.99757 2.51766,-0.83103 0.92321,0.32399 -2.97877,2.15781 -3.13525,3.9742 -0.85443,9.91791 0.11573,0.30159 -0.51451,-0.20822 -1.40053,-1.13293 -1.54494,-1.61239 -1.63152,-1.65408 -2.113,-1.01758 -0.85228,1.12668 -0.62375,2.6328 0.6771,4.46248 0.66054,0.92906 1.20098,1.80551 1.20098,1.94765 0,0.14215 -1.06147,0.25845 -2.35881,0.25845 -3.62805,0 -6.87913,1.5043 -10.57216,4.8918 -0.87317,0.80093 -1.42074,1.14741 -1.21683,0.76996 z m -11.450626,-2.39479 c -4.77668,-3.33511 -6.40658,-3.90701 -9.47437,-3.32436 -1.46449,0.27814 -1.5876,0.25221 -1.3055,-0.2749 0.17132,-0.32009 0.56171,-0.78966 0.86754,-1.04348 1.32947,-1.10336 1.90395,-3.57638 1.23055,-5.29722 -0.23705,-0.60576 -0.42405,-0.51599 -2.00441,0.96224 l -1.74296,1.63034 1.01531,-3.15723 c 1.23571,-3.84259 1.11416,-4.67984 -0.97406,-6.70936 -1.73024,-1.6816 -1.69216,-1.79425 0.26842,-0.79404 1.61515,0.82399 2.28901,1.84312 3.93269,5.94772 1.87792,4.68956 4.39017,8.00712 8.22154,10.85698 3.91503,2.91211 3.88535,3.94034 -0.0348,1.20331 z m 1.97892,-22.68439 c 0.32312,-1.6441 4.889986,-3.02034 7.463746,-2.24922 1.38595,0.41524 3.4597,1.90441 3.4597,2.48443 0,0.17356 -0.85471,-0.16681 -1.89937,-0.75637 -2.60339,-1.46927 -4.58618,-1.46479 -7.210496,0.0163 -1.54837,0.87385 -1.90564,0.97331 -1.81358,0.50488 z m 4.034746,-5.20018 c -0.566906,-0.64139 -0.613276,-0.76599 -0.1456,-0.39117 0.37745,0.3025 0.9951,0.72133 1.37255,0.93074 0.51944,0.28817 0.55483,0.38327 0.14559,0.39116 -0.29737,0.006 -0.91501,-0.41309 -1.37254,-0.93073 z m 2.33642,0.21232 c 0.23276,-0.23451 0.50964,-0.33994 0.61529,-0.23429 0.10565,0.10565 -0.0848,0.29752 -0.4232,0.42637 -0.48904,0.18622 -0.52845,0.14681 -0.19209,-0.19208 z m 1.47749,-1.51773 c 0.74513,-0.89783 1.72752,-1.29677 2.15085,-0.87344 0.27114,0.27115 0.2372,0.37551 -0.12262,0.37704 -0.27366,0.001 -0.94204,0.23393 -1.4853,0.51725 -0.89277,0.46559 -0.94498,0.46359 -0.54293,-0.0209 z m -6.104106,-0.27459 c -0.61336,-0.20121 -1.1152,-0.48832 -1.1152,-0.63802 0,-0.49683 0.94189,-0.28175 1.76345,0.40268 0.44555,0.37117 0.73287,0.65828 0.63851,0.63803 -0.0944,-0.0203 -0.67341,-0.20147 -1.28676,-0.40269 z m 8.889936,-1.25333 c 0,-0.47182 0.0779,-0.66483 0.17308,-0.42893 0.0952,0.23591 0.0952,0.62194 0,0.85785 -0.0952,0.2359 -0.17308,0.0429 -0.17308,-0.42892 z m -10.348276,-0.42887 c 0,-0.30802 0.16469,-0.66182 0.36597,-0.78622 0.58848,-0.3637 0.64623,-0.038 0.12068,0.68072 -0.40699,0.5566 -0.48665,0.57387 -0.48665,0.1055 z m 9.264696,-1.14383 c -0.57694,-0.32014 -0.67497,-0.47766 -0.29937,-0.48107 0.30716,-0.003 0.7507,0.22656 0.98564,0.50965 0.50107,0.60376 0.44944,0.60161 -0.68627,-0.0286 z m -7.883346,-1.51553 c -0.0206,-1.96365 -0.64311,-3.77291 -1.22167,-3.55089 -0.27655,0.10612 -0.50281,0.42605 -0.50281,0.71096 0,0.36974 -0.22098,0.45879 -0.77206,0.31111 -0.42463,-0.1138 -1.04965,-0.20902 -1.38893,-0.21159 -0.33928,-0.002 -1.00905,-0.42785 -1.48838,-0.94505 -0.84682,-0.91374 -0.88522,-0.9216 -1.35616,-0.27755 -0.26656,0.36454 -0.48466,0.87402 -0.48466,1.13218 0,0.25815 -0.15441,0.37394 -0.34313,0.2573 -0.18873,-0.11664 -0.34314,-0.98728 -0.34314,-1.93477 v -1.72269 l 1.11519,0.23498 c 0.61336,0.12924 1.26189,0.37313 1.44117,0.54197 0.17929,0.16884 0.77635,0.30699 1.32679,0.30699 0.83187,0 0.97051,0.11584 0.82134,0.68627 -0.18687,0.71458 0.87756,1.0273 1.28005,0.37606 0.10559,-0.17085 0.957,-0.0194 1.89523,0.33708 2.461236,0.9352 3.411216,0.29299 2.915136,-1.97072 -0.16319,-0.74468 -0.12744,-0.85211 0.15245,-0.4581 0.63921,0.8998 0.41504,2.43262 -0.52002,3.55584 -0.492896,0.59207 -1.260136,1.69415 -1.704976,2.44905 l -0.8088,1.37254 z m -12.83641,-0.94363 c -0.25102,-0.84777 -1.58413,-7.92919 -1.58413,-8.41484 0,-0.22113 0.24374,-0.0541 0.54165,0.37125 0.29791,0.42532 0.74693,2.11961 0.99784,3.76507 0.2509,1.64547 0.62098,3.41639 0.8224,3.93539 0.2934,0.75598 0.27016,0.94362 -0.11687,0.94362 -0.2657,0 -0.5631,-0.27022 -0.66089,-0.60049 z m 6.38987,0.37193 c -0.23807,-0.0959 -0.59392,-0.47535 -0.79079,-0.84318 -0.34658,-0.6476 -0.31792,-0.65209 0.90368,-0.14167 0.69389,0.28993 1.74459,0.5295 2.3349,0.53239 0.81916,0.004 0.95142,0.084 0.55859,0.33788 -0.5385,0.348 -2.26377,0.41375 -3.00638,0.11458 z m -4.89015,-2.60232 c -0.003,-1.35791 -0.32947,-3.15157 -0.89059,-4.8897 -0.86336,-2.67429 -0.99601,-6.26098 -0.27472,-7.42806 0.33085,-0.53532 0.81497,0.36744 0.8213,1.53152 0.007,1.2952 0.50043,2.18344 2.18424,3.93231 1.50474,1.56289 1.93368,3.20825 1.09352,4.19462 -0.24113,0.28309 -0.86555,1.47978 -1.38762,2.65931 -0.52205,1.17953 -1.08252,2.14461 -1.24547,2.14461 -0.16296,0 -0.29825,-0.96508 -0.30066,-2.14461 z m -3.68966,-7.35488 c -0.52728,-0.93295 -0.55417,-5.12156 -0.0423,-6.58988 0.29352,-0.841991 0.25841,-1.821372 -0.15249,-4.254632 -0.53033,-3.140396 -0.6267,-7.450074 -0.16659,-7.450074 0.46915,0 0.6685,0.716717 0.78794,2.832851 0.0665,1.178447 0.29643,3.727221 0.51091,5.663942 0.21449,1.936722 0.28877,3.685083 0.16506,3.885233 -0.1237,0.20016 -0.32706,1.78101 -0.45192,3.513 -0.19736,2.73788 -0.28231,3.0512 -0.6506,2.39956 z m 9.22056,-7.707503 c -0.81363,-1.506379 -1.39293,-2.825267 -1.28733,-2.930864 0.45119,-0.451192 1.28392,0.323706 2.11917,1.971989 l 0.89607,1.768309 1.94876,-0.227111 1.94875,-0.227111 -1.07379,0.675091 c -0.59058,0.3713 -1.52346,0.90762 -2.07305,1.19183 l -0.99927,0.51674 z m 15.404816,1.371023 -1.54411,-1.027721 1.88725,0.218779 1.88725,0.218782 1.0173,-1.909329 c 0.88573,-1.662405 1.08124,-1.845384 1.51174,-1.414878 0.4305,0.430501 0.30482,0.785484 -0.97182,2.744949 -0.80644,1.237778 -1.64114,2.238498 -1.85488,2.223818 -0.21374,-0.0147 -1.08347,-0.48915 -1.93273,-1.0544 z m 5.49019,-4.715522 c 0,-0.402968 1.00343,-0.779544 1.40911,-0.528821 0.17477,0.108013 0.22893,0.340134 0.12035,0.515817 -0.25231,0.408249 -1.52946,0.419107 -1.52946,0.01302 z M 87.399594,93.610345 c -1.22936,-1.773968 -0.97983,-1.893115 0.59396,-0.283609 0.87371,0.893537 1.12001,1.342637 0.80303,1.464271 -0.26613,0.102126 -0.84996,-0.391294 -1.39699,-1.180662 z m -1.65452,-2.502824 c -0.11199,-0.446197 -0.74611,-1.225046 -1.40915,-1.730778 -1.80093,-1.373635 -1.45424,-1.697108 0.51015,-0.475978 1.24939,0.776665 1.71568,1.280227 1.71568,1.852828 0,1.091889 -0.56952,1.338703 -0.81668,0.353928 z"
       id="path117" />
  </g>
</svg>
